<svg width="100" height="47" viewBox="0 0 100 47" fill="none" xmlns="http://www.w3.org/2000/svg">
<path d="M12.0556 5.6963C12.0556 6.49136 11.9296 7.21481 11.6778 7.86667C11.4259 8.51852 11.0704 9.07654 10.6111 9.54074C10.1519 10.0049 9.59877 10.3654 8.95185 10.6222C8.30988 10.8741 7.59877 11 6.81852 11H2.85556L2.85556 0.385185L6.81852 0.385185C7.59877 0.385185 8.30988 0.51358 8.95185 0.77037C9.59877 1.02222 10.1519 1.38272 10.6111 1.85185C11.0704 2.31605 11.4259 2.87407 11.6778 3.52593C11.9296 4.17778 12.0556 4.90123 12.0556 5.6963ZM10.5815 5.6963C10.5815 5.04444 10.4926 4.46173 10.3148 3.94815C10.137 3.43457 9.88519 3 9.55926 2.64444C9.23333 2.28889 8.83827 2.01728 8.37407 1.82963C7.90988 1.64198 7.39136 1.54815 6.81852 1.54815L4.29259 1.54815L4.29259 9.83704H6.81852C7.39136 9.83704 7.90988 9.74321 8.37407 9.55556C8.83827 9.3679 9.23333 9.09877 9.55926 8.74815C9.88519 8.39259 10.137 7.95802 10.3148 7.44444C10.4926 6.93086 10.5815 6.34815 10.5815 5.6963ZM19.3529 6.42963C19.3529 6.12346 19.3085 5.84444 19.2196 5.59259C19.1356 5.3358 19.0097 5.11605 18.8418 4.93333C18.6789 4.74568 18.4789 4.60247 18.2418 4.5037C18.0048 4.4 17.7356 4.34815 17.4344 4.34815C16.8023 4.34815 16.3011 4.53333 15.9307 4.9037C15.5653 5.26914 15.3381 5.77778 15.2492 6.42963L19.3529 6.42963ZM20.4196 9.94815C20.2566 10.1457 20.0616 10.3185 19.8344 10.4667C19.6073 10.6099 19.3628 10.7284 19.1011 10.8222C18.8443 10.916 18.5776 10.9852 18.3011 11.0296C18.0245 11.079 17.7505 11.1037 17.4789 11.1037C16.9603 11.1037 16.4813 11.0173 16.0418 10.8444C15.6073 10.6667 15.2295 10.4099 14.9085 10.0741C14.5924 9.73333 14.3455 9.31358 14.1677 8.81481C13.99 8.31605 13.9011 7.74321 13.9011 7.0963C13.9011 6.57284 13.9801 6.08395 14.1381 5.62963C14.3011 5.17531 14.5332 4.78272 14.8344 4.45185C15.1356 4.11605 15.5035 3.85432 15.9381 3.66667C16.3727 3.47407 16.8616 3.37778 17.4048 3.37778C17.8542 3.37778 18.269 3.45432 18.6492 3.60741C19.0344 3.75556 19.3653 3.97284 19.6418 4.25926C19.9233 4.54074 20.1431 4.89136 20.3011 5.31111C20.4591 5.72593 20.5381 6.2 20.5381 6.73333C20.5381 6.94074 20.5159 7.07901 20.4715 7.14815C20.427 7.21728 20.3431 7.25185 20.2196 7.25185L15.2048 7.25185C15.2196 7.72593 15.2838 8.13827 15.3974 8.48889C15.5159 8.83951 15.6789 9.13333 15.8863 9.37037C16.0937 9.60247 16.3406 9.77778 16.627 9.8963C16.9134 10.0099 17.2344 10.0667 17.59 10.0667C17.9208 10.0667 18.2048 10.0296 18.4418 9.95556C18.6838 9.87654 18.8912 9.79259 19.064 9.7037C19.2369 9.61481 19.3801 9.53333 19.4937 9.45926C19.6122 9.38025 19.7134 9.34074 19.7974 9.34074C19.906 9.34074 19.99 9.38272 20.0492 9.46667L20.4196 9.94815ZM29.0454 3.4963L25.9862 11H24.801L21.7417 3.4963L22.8158 3.4963C22.9245 3.4963 23.0133 3.52346 23.0825 3.57778C23.1516 3.6321 23.1985 3.6963 23.2232 3.77037L25.1269 8.6C25.1862 8.78272 25.238 8.96049 25.2825 9.13333C25.3269 9.30617 25.3689 9.47901 25.4084 9.65185C25.4479 9.47901 25.4899 9.30617 25.5343 9.13333C25.5788 8.96049 25.6331 8.78272 25.6973 8.6L27.6232 3.77037C27.6529 3.69136 27.7022 3.62716 27.7714 3.57778C27.8405 3.52346 27.922 3.4963 28.0158 3.4963H29.0454ZM35.6917 6.42963C35.6917 6.12346 35.6472 5.84444 35.5583 5.59259C35.4744 5.3358 35.3485 5.11605 35.1806 4.93333C35.0176 4.74568 34.8176 4.60247 34.5806 4.5037C34.3435 4.4 34.0744 4.34815 33.7731 4.34815C33.141 4.34815 32.6398 4.53333 32.2694 4.9037C31.904 5.26914 31.6769 5.77778 31.588 6.42963L35.6917 6.42963ZM36.7583 9.94815C36.5954 10.1457 36.4003 10.3185 36.1731 10.4667C35.946 10.6099 35.7015 10.7284 35.4398 10.8222C35.183 10.916 34.9164 10.9852 34.6398 11.0296C34.3633 11.079 34.0892 11.1037 33.8176 11.1037C33.2991 11.1037 32.8201 11.0173 32.3806 10.8444C31.946 10.6667 31.5682 10.4099 31.2472 10.0741C30.9312 9.73333 30.6843 9.31358 30.5065 8.81481C30.3287 8.31605 30.2398 7.74321 30.2398 7.0963C30.2398 6.57284 30.3188 6.08395 30.4769 5.62963C30.6398 5.17531 30.8719 4.78272 31.1731 4.45185C31.4744 4.11605 31.8423 3.85432 32.2769 3.66667C32.7114 3.47407 33.2003 3.37778 33.7435 3.37778C34.1929 3.37778 34.6077 3.45432 34.988 3.60741C35.3731 3.75556 35.704 3.97284 35.9806 4.25926C36.262 4.54074 36.4818 4.89136 36.6398 5.31111C36.7978 5.72593 36.8769 6.2 36.8769 6.73333C36.8769 6.94074 36.8546 7.07901 36.8102 7.14815C36.7657 7.21728 36.6818 7.25185 36.5583 7.25185L31.5435 7.25185C31.5583 7.72593 31.6225 8.13827 31.7361 8.48889C31.8546 8.83951 32.0176 9.13333 32.225 9.37037C32.4324 9.60247 32.6793 9.77778 32.9657 9.8963C33.2522 10.0099 33.5731 10.0667 33.9287 10.0667C34.2596 10.0667 34.5435 10.0296 34.7806 9.95556C35.0225 9.87654 35.2299 9.79259 35.4028 9.7037C35.5756 9.61481 35.7188 9.53333 35.8324 9.45926C35.9509 9.38025 36.0522 9.34074 36.1361 9.34074C36.2448 9.34074 36.3287 9.38272 36.388 9.46667L36.7583 9.94815ZM40.4767 0.0888887V11L39.1581 11V0.0888887L40.4767 0.0888887ZM46.3951 3.37778C46.9432 3.37778 47.4371 3.46914 47.8766 3.65185C48.3161 3.83457 48.6914 4.09383 49.0025 4.42963C49.3136 4.76543 49.5507 5.17284 49.7136 5.65185C49.8815 6.12593 49.9655 6.65679 49.9655 7.24444C49.9655 7.83704 49.8815 8.37037 49.7136 8.84444C49.5507 9.31852 49.3136 9.72346 49.0025 10.0593C48.6914 10.3951 48.3161 10.6543 47.8766 10.837C47.4371 11.0148 46.9432 11.1037 46.3951 11.1037C45.842 11.1037 45.3432 11.0148 44.8988 10.837C44.4593 10.6543 44.084 10.3951 43.7729 10.0593C43.4618 9.72346 43.2223 9.31852 43.0544 8.84444C42.8914 8.37037 42.8099 7.83704 42.8099 7.24444C42.8099 6.65679 42.8914 6.12593 43.0544 5.65185C43.2223 5.17284 43.4618 4.76543 43.7729 4.42963C44.084 4.09383 44.4593 3.83457 44.8988 3.65185C45.3432 3.46914 45.842 3.37778 46.3951 3.37778ZM46.3951 10.0741C47.1358 10.0741 47.6889 9.82716 48.0544 9.33333C48.4198 8.83457 48.6025 8.14074 48.6025 7.25185C48.6025 6.35802 48.4198 5.66173 48.0544 5.16296C47.6889 4.6642 47.1358 4.41481 46.3951 4.41481C46.0198 4.41481 45.6914 4.47901 45.4099 4.60741C45.1334 4.7358 44.9013 4.92099 44.7136 5.16296C44.5309 5.40494 44.3926 5.7037 44.2988 6.05926C44.2099 6.40988 44.1655 6.80741 44.1655 7.25185C44.1655 8.14074 44.3482 8.83457 44.7136 9.33333C45.084 9.82716 45.6445 10.0741 46.3951 10.0741ZM53.581 9.19259C53.823 9.51852 54.0872 9.74815 54.3736 9.88148C54.66 10.0148 54.981 10.0815 55.3366 10.0815C56.0378 10.0815 56.5761 9.8321 56.9514 9.33333C57.3267 8.83457 57.5144 8.12346 57.5144 7.2C57.5144 6.71111 57.4699 6.29136 57.381 5.94074C57.2971 5.59012 57.1736 5.3037 57.0106 5.08148C56.8477 4.85432 56.6477 4.68889 56.4106 4.58518C56.1736 4.48148 55.9045 4.42963 55.6032 4.42963C55.1736 4.42963 54.7958 4.52839 54.4699 4.72593C54.1489 4.92346 53.8526 5.20247 53.581 5.56296V9.19259ZM53.5144 4.65926C53.8304 4.26914 54.1958 3.95556 54.6106 3.71852C55.0255 3.48148 55.4995 3.36296 56.0329 3.36296C56.4674 3.36296 56.86 3.44691 57.2106 3.61481C57.5613 3.77778 57.86 4.02222 58.1069 4.34815C58.3539 4.66914 58.544 5.06914 58.6773 5.54815C58.8106 6.02716 58.8773 6.57778 58.8773 7.2C58.8773 7.75309 58.8032 8.26914 58.6551 8.74815C58.5069 9.22222 58.2921 9.63457 58.0106 9.98519C57.7341 10.3309 57.3934 10.6049 56.9884 10.8074C56.5884 11.0049 56.1366 11.1037 55.6329 11.1037C55.1736 11.1037 54.7785 11.0272 54.4477 10.8741C54.1218 10.716 53.8329 10.4988 53.581 10.2222V13.5407H52.2551V3.4963L53.0477 3.4963C53.2353 3.4963 53.3514 3.58765 53.3958 3.77037L53.5144 4.65926ZM66.199 6.42963C66.199 6.12346 66.1546 5.84444 66.0657 5.59259C65.9817 5.3358 65.8558 5.11605 65.6879 4.93333C65.5249 4.74568 65.3249 4.60247 65.0879 4.5037C64.8508 4.4 64.5817 4.34815 64.2805 4.34815C63.6484 4.34815 63.1471 4.53333 62.7768 4.9037C62.4113 5.26914 62.1842 5.77778 62.0953 6.42963L66.199 6.42963ZM67.2657 9.94815C67.1027 10.1457 66.9076 10.3185 66.6805 10.4667C66.4533 10.6099 66.2089 10.7284 65.9471 10.8222C65.6904 10.916 65.4237 10.9852 65.1471 11.0296C64.8706 11.079 64.5965 11.1037 64.3249 11.1037C63.8064 11.1037 63.3274 11.0173 62.8879 10.8444C62.4533 10.6667 62.0755 10.4099 61.7546 10.0741C61.4385 9.73333 61.1916 9.31358 61.0138 8.81481C60.836 8.31605 60.7471 7.74321 60.7471 7.0963C60.7471 6.57284 60.8262 6.08395 60.9842 5.62963C61.1471 5.17531 61.3792 4.78272 61.6805 4.45185C61.9817 4.11605 62.3496 3.85432 62.7842 3.66667C63.2187 3.47407 63.7076 3.37778 64.2508 3.37778C64.7002 3.37778 65.115 3.45432 65.4953 3.60741C65.8805 3.75556 66.2113 3.97284 66.4879 4.25926C66.7694 4.54074 66.9891 4.89136 67.1471 5.31111C67.3052 5.72593 67.3842 6.2 67.3842 6.73333C67.3842 6.94074 67.362 7.07901 67.3175 7.14815C67.2731 7.21728 67.1891 7.25185 67.0657 7.25185L62.0508 7.25185C62.0657 7.72593 62.1299 8.13827 62.2434 8.48889C62.362 8.83951 62.5249 9.13333 62.7323 9.37037C62.9397 9.60247 63.1866 9.77778 63.4731 9.8963C63.7595 10.0099 64.0805 10.0667 64.436 10.0667C64.7669 10.0667 65.0508 10.0296 65.2879 9.95556C65.5299 9.87654 65.7373 9.79259 65.9101 9.7037C66.0829 9.61481 66.2262 9.53333 66.3397 9.45926C66.4583 9.38025 66.5595 9.34074 66.6434 9.34074C66.7521 9.34074 66.836 9.38272 66.8953 9.46667L67.2657 9.94815ZM74.5099 5.28148C74.263 4.95062 73.9963 4.72099 73.7099 4.59259C73.4235 4.45926 73.1025 4.39259 72.7469 4.39259C72.0507 4.39259 71.5148 4.64198 71.1395 5.14074C70.7642 5.63951 70.5766 6.35062 70.5766 7.27407C70.5766 7.76296 70.6186 8.18272 70.7025 8.53333C70.7865 8.87901 70.9099 9.16543 71.0729 9.39259C71.2358 9.61481 71.4358 9.77778 71.6729 9.88148C71.9099 9.98519 72.179 10.037 72.4803 10.037C72.9148 10.037 73.2926 9.93827 73.6136 9.74074C73.9395 9.54321 74.2383 9.2642 74.5099 8.9037V5.28148ZM75.8284 0.0888887V11H75.0432C74.8556 11 74.7371 10.9086 74.6877 10.7259L74.5692 9.81481C74.2482 10.2 73.8827 10.5111 73.4729 10.7481C73.063 10.9852 72.5889 11.1037 72.0507 11.1037C71.621 11.1037 71.2309 11.0222 70.8803 10.8593C70.5297 10.6914 70.2309 10.4469 69.984 10.1259C69.7371 9.80494 69.5469 9.40494 69.4136 8.92593C69.2803 8.44691 69.2136 7.8963 69.2136 7.27407C69.2136 6.72099 69.2877 6.20741 69.4358 5.73333C69.584 5.25432 69.7963 4.83951 70.0729 4.48889C70.3494 4.13827 70.6877 3.8642 71.0877 3.66667C71.4926 3.4642 71.9469 3.36296 72.4507 3.36296C72.9099 3.36296 73.3025 3.44198 73.6284 3.6C73.9593 3.75309 74.2531 3.9679 74.5099 4.24444V0.0888887L75.8284 0.0888887ZM84.262 9.19259C84.5039 9.51852 84.7681 9.74815 85.0545 9.88148C85.3459 10.0148 85.6644 10.0815 86.0101 10.0815C86.7163 10.0815 87.257 9.8321 87.6323 9.33333C88.0076 8.83457 88.1953 8.09136 88.1953 7.1037C88.1953 6.18519 88.0274 5.51111 87.6916 5.08148C87.3607 4.64691 86.8866 4.42963 86.2694 4.42963C85.8397 4.42963 85.4644 4.52839 85.1434 4.72593C84.8274 4.92346 84.5336 5.20247 84.262 5.56296V9.19259ZM84.262 4.57778C84.578 4.21235 84.9336 3.92099 85.3286 3.7037C85.7286 3.48642 86.1879 3.37778 86.7064 3.37778C87.1459 3.37778 87.541 3.46173 87.8916 3.62963C88.2471 3.79753 88.5484 4.04198 88.7953 4.36296C89.0422 4.67901 89.2299 5.0642 89.3583 5.51852C89.4916 5.97284 89.5583 6.48395 89.5583 7.05185C89.5583 7.65926 89.4842 8.21235 89.336 8.71111C89.1879 9.20988 88.9731 9.63704 88.6916 9.99259C88.415 10.3432 88.0768 10.6173 87.6768 10.8148C87.2768 11.0074 86.8274 11.1037 86.3286 11.1037C85.8348 11.1037 85.4175 11.0123 85.0768 10.8296C84.741 10.642 84.4471 10.3778 84.1953 10.037L84.1286 10.7185C84.0891 10.9062 83.9755 11 83.7879 11H82.936V0.0888887L84.262 0.0888887V4.57778ZM98.1292 3.4963L93.9441 13.2148C93.8996 13.3136 93.8428 13.3926 93.7737 13.4519C93.7095 13.5111 93.6083 13.5407 93.47 13.5407H92.4922L93.8626 10.563L90.7663 3.4963L91.907 3.4963C92.0206 3.4963 92.1095 3.52593 92.1737 3.58518C92.2428 3.63951 92.2897 3.70123 92.3144 3.77037L94.3218 8.4963C94.4008 8.7037 94.4675 8.92099 94.5218 9.14815C94.591 8.91605 94.665 8.6963 94.7441 8.48889L96.6922 3.77037C96.7218 3.69136 96.7712 3.62716 96.8404 3.57778C96.9144 3.52346 96.9959 3.4963 97.0848 3.4963H98.1292Z" fill="#CCCCCC"/>
<g clip-path="url(#clip0_3570_22749)">
<path d="M70.0889 43.1914L70.7313 38.2928H71.3202L70.7447 42.6494H72.508L72.4378 43.1914H70.0889ZM73.4851 38.681C73.4851 38.5828 73.5208 38.498 73.5922 38.4267C73.6658 38.3553 73.7528 38.3196 73.8531 38.3196C73.9558 38.3196 74.0416 38.3553 74.1108 38.4267C74.1822 38.4958 74.2179 38.5806 74.2179 38.681C74.2179 38.7858 74.1822 38.8739 74.1108 38.9453C74.0416 39.0167 73.9558 39.0524 73.8531 39.0524C73.7528 39.0524 73.6658 39.0167 73.5922 38.9453C73.5208 38.8717 73.4851 38.7836 73.4851 38.681ZM73.0468 43.1914L73.4516 40.1298H73.9836L73.5788 43.1914H73.0468ZM76.5768 43.1914L76.8244 41.3109C76.8311 41.2641 76.8356 41.2173 76.8378 41.1704C76.8423 41.1236 76.8445 41.0778 76.8445 41.0332C76.8445 40.8481 76.7965 40.7087 76.7006 40.615C76.6069 40.519 76.4675 40.4711 76.2824 40.4711C76.0414 40.4711 75.8485 40.5692 75.7035 40.7655C75.5607 40.9596 75.4637 41.2518 75.4124 41.6422L75.2049 43.1914H74.6796L75.0878 40.1298H75.5964L75.5262 40.6016C75.6712 40.4053 75.8295 40.2592 76.0013 40.1633C76.1731 40.0673 76.3604 40.0194 76.5634 40.0194C76.7687 40.0194 76.9426 40.0707 77.0854 40.1733C77.2282 40.2737 77.323 40.4142 77.3698 40.5949C77.5237 40.4031 77.691 40.2592 77.8717 40.1633C78.0546 40.0673 78.2487 40.0194 78.4539 40.0194C78.7149 40.0194 78.9213 40.0997 79.0729 40.2603C79.2269 40.4209 79.3038 40.6395 79.3038 40.9161C79.3038 40.9808 79.296 41.0834 79.2804 41.2239C79.2782 41.2396 79.2771 41.2507 79.2771 41.2574L79.0228 43.1914H78.4874L78.735 41.3143C78.7417 41.2674 78.7462 41.2206 78.7484 41.1738C78.7528 41.1269 78.7551 41.0801 78.7551 41.0332C78.7551 40.8481 78.7071 40.7087 78.6112 40.615C78.5175 40.519 78.3781 40.4711 78.1929 40.4711C77.9453 40.4711 77.7513 40.5648 77.6107 40.7522C77.4724 40.9395 77.3765 41.2362 77.323 41.6422L77.1189 43.1914H76.5768ZM80.5251 38.681C80.5251 38.5828 80.5608 38.498 80.6322 38.4267C80.7058 38.3553 80.7928 38.3196 80.8932 38.3196C80.9958 38.3196 81.0817 38.3553 81.1508 38.4267C81.2222 38.4958 81.2579 38.5806 81.2579 38.681C81.2579 38.7858 81.2222 38.8739 81.1508 38.9453C81.0817 39.0167 80.9958 39.0524 80.8932 39.0524C80.7928 39.0524 80.7058 39.0167 80.6322 38.9453C80.5608 38.8717 80.5251 38.7836 80.5251 38.681ZM80.0868 43.1914L80.4917 40.1298H81.0237L80.6188 43.1914H80.0868ZM81.8468 43.1914L82.1914 40.5748H81.6226L81.6828 40.1298H82.2517L82.4089 38.8951H82.951L82.787 40.1298H83.4596L83.4027 40.5748H82.7268L82.3822 43.1914H81.8468ZM86.5915 41.7493L84.1388 41.7526V41.8062C84.1388 42.1341 84.2225 42.3928 84.3898 42.5824C84.5571 42.7698 84.7857 42.8635 85.0757 42.8635C85.2564 42.8635 85.4226 42.82 85.5743 42.733C85.726 42.646 85.8732 42.511 86.0159 42.3281L86.384 42.6293C86.2056 42.8613 86.0093 43.0353 85.7951 43.1513C85.581 43.265 85.3479 43.3219 85.0958 43.3219C84.6385 43.3219 84.2749 43.1847 84.005 42.9103C83.7373 42.6337 83.6035 42.2612 83.6035 41.7928C83.6035 41.2819 83.7596 40.8592 84.0719 40.5246C84.3842 40.1878 84.7757 40.0194 85.2464 40.0194C85.6747 40.0194 86.007 40.1499 86.2435 40.4109C86.4799 40.6719 86.5982 41.0388 86.5982 41.5117C86.5982 41.5764 86.597 41.6255 86.5948 41.6589C86.5948 41.6924 86.5937 41.7225 86.5915 41.7493ZM86.0829 41.3143C86.0784 41.0377 86.0026 40.8247 85.8553 40.6752C85.7103 40.5257 85.5051 40.451 85.2397 40.451C84.9764 40.451 84.7489 40.5291 84.5571 40.6852C84.3675 40.8414 84.2437 41.0511 84.1857 41.3143H86.0829ZM88.6192 42.8267C88.9158 42.8267 89.1679 42.7029 89.3754 42.4553C89.5828 42.2077 89.6865 41.8998 89.6865 41.5318C89.6865 41.2217 89.6051 40.9708 89.4423 40.7789C89.2817 40.5871 89.0709 40.4912 88.8099 40.4912C88.4708 40.4912 88.1942 40.6116 87.9801 40.8525C87.7659 41.0912 87.6588 41.3979 87.6588 41.7727C87.6588 42.0872 87.747 42.3415 87.9232 42.5356C88.1016 42.7297 88.3336 42.8267 88.6192 42.8267ZM90.1617 38.0051H90.6937L90.0078 43.1914H89.4757L89.5493 42.733C89.4021 42.9315 89.2371 43.0788 89.0541 43.1747C88.8735 43.2684 88.666 43.3152 88.4318 43.3152C88.0414 43.3152 87.7235 43.1724 87.4782 42.8869C87.2328 42.6014 87.1101 42.23 87.1101 41.7727C87.1101 41.2663 87.2596 40.8481 87.5585 40.5179C87.8574 40.1856 88.2332 40.0194 88.6861 40.0194C88.9582 40.0194 89.1869 40.0796 89.372 40.2001C89.5572 40.3205 89.701 40.5023 89.8036 40.7455L90.1617 38.0051Z" fill="white"/>
<path d="M59.2058 46.6077C54.3348 45.1343 49.4638 43.8504 44.5353 42.921C44.2244 42.8635 43.9136 42.7936 43.6121 42.7454L42.6795 42.59C42.0578 42.4905 41.447 42.377 40.8284 42.2791L38.9633 42.0258C38.6525 41.9838 38.3416 41.9325 38.0308 41.8983L37.0982 41.7988C36.4765 41.7382 35.8548 41.6527 35.2331 41.5983L33.368 41.4429L32.9018 41.4025L32.4355 41.3761L31.503 41.3248C30.8813 41.2891 30.2596 41.2502 29.6379 41.244C29.0162 41.2378 28.3945 41.2005 27.7728 41.1911H25.9077C25.286 41.1911 24.6643 41.2145 24.0426 41.2238C23.4209 41.2331 22.7992 41.2688 22.1775 41.2968C19.6845 41.4118 17.1977 41.6336 14.7171 41.962C12.2366 42.2905 9.76738 42.7241 7.30961 43.2629C4.83482 43.7979 2.39398 44.4793 0 45.3037C0.540877 44.9664 1.10818 44.6726 1.67392 44.3789C2.23966 44.0851 2.82406 43.8256 3.40846 43.5645C4.57414 43.0422 5.77246 42.5915 6.98321 42.1656C9.40876 41.331 11.8863 40.6561 14.4001 40.1451C16.9187 39.6375 19.4655 39.2814 22.0267 39.0789C22.6671 39.023 23.3074 38.9763 23.9493 38.953C24.5912 38.9297 25.2331 38.8862 25.8766 38.8769L27.8039 38.8613C28.4473 38.8613 29.0892 38.8893 29.7311 38.9033C30.373 38.9173 31.0149 38.9592 31.6568 38.9997L32.6189 39.0603L33.0992 39.0914L33.5794 39.1395L35.4958 39.3385C36.133 39.4069 36.7687 39.5063 37.4044 39.5949L38.3572 39.7333C38.668 39.7799 38.9897 39.8436 39.3053 39.898L41.1874 40.2524C41.8091 40.3829 42.4402 40.5259 43.065 40.6674L43.9975 40.8834C44.3084 40.9533 44.6192 41.0388 44.9301 41.1259C49.8814 42.405 54.6708 44.2442 59.2058 46.6077Z" fill="white"/>
<path d="M13.8987 23.5762H16.6015C16.7053 23.5762 16.8048 23.6172 16.8785 23.6902C16.9522 23.7633 16.9939 23.8625 16.9948 23.9663V35.721C16.9948 35.8253 16.9533 35.9253 16.8796 35.9991C16.8059 36.0728 16.7058 36.1143 16.6015 36.1143H13.8987C13.8471 36.1143 13.7959 36.1041 13.7482 36.0843C13.7005 36.0646 13.6572 36.0356 13.6207 35.9991C13.5842 35.9626 13.5552 35.9192 13.5354 35.8715C13.5157 35.8238 13.5055 35.7727 13.5055 35.721V23.9663C13.5063 23.8625 13.5481 23.7633 13.6218 23.6902C13.6954 23.6172 13.795 23.5762 13.8987 23.5762ZM28.3967 36.1143H25.9332C25.8289 36.1143 25.7289 36.0728 25.6552 35.9991C25.5814 35.9253 25.54 35.8253 25.54 35.721V35.6464C25.5402 35.5705 25.5185 35.4962 25.4775 35.4323C25.4364 35.3685 25.3777 35.3179 25.3085 35.2867C25.2393 35.2555 25.1626 35.245 25.0876 35.2564C25.0125 35.2678 24.9424 35.3007 24.8857 35.3511C24.6414 35.5802 24.3681 35.7761 24.0728 35.934C23.5069 36.2062 22.8836 36.3379 22.2559 36.3179C21.2974 36.3179 20.5462 36.0314 20.0022 35.4584C19.4582 34.8854 19.1857 34.0046 19.1847 32.8161V27.4245C19.1847 27.3723 19.1951 27.3207 19.2152 27.2725C19.2354 27.2244 19.2649 27.1808 19.3021 27.1442C19.3392 27.1076 19.3833 27.0788 19.4317 27.0594C19.4802 27.04 19.532 27.0304 19.5841 27.0313H22.2963C22.4005 27.0317 22.5002 27.0732 22.5739 27.1469C22.6475 27.2205 22.6891 27.3203 22.6895 27.4245V32.0266C22.6895 32.5975 22.7931 33.0021 23.0004 33.2405C23.1127 33.3626 23.2507 33.4583 23.4044 33.5209C23.5581 33.5835 23.7237 33.6114 23.8894 33.6026C24.0852 33.607 24.2793 33.566 24.4565 33.4826C24.6337 33.3993 24.7891 33.2759 24.9105 33.1223C25.1758 32.8042 25.3084 32.2312 25.3084 31.4033V27.4245C25.3088 27.3203 25.3504 27.2205 25.424 27.1469C25.4977 27.0732 25.5975 27.0317 25.7016 27.0313H28.3967C28.501 27.0313 28.601 27.0727 28.6747 27.1464C28.7485 27.2202 28.7899 27.3202 28.7899 27.4245V35.721C28.7899 35.8253 28.7485 35.9253 28.6747 35.9991C28.601 36.0728 28.501 36.1143 28.3967 36.1143ZM40.5928 32.4369H34.4753C34.4159 32.4367 34.3573 32.45 34.3037 32.4758C34.2502 32.5015 34.2032 32.5391 34.1663 32.5856C34.1293 32.6321 34.1034 32.6864 34.0904 32.7443C34.0775 32.8023 34.0778 32.8625 34.0914 32.9203C34.153 33.2009 34.2791 33.4632 34.4598 33.6865C34.6206 33.8781 34.8227 34.0306 35.0511 34.1326C35.2794 34.2347 35.5279 34.2835 35.7778 34.2756C36.0565 34.2836 36.3332 34.227 36.5864 34.1102C36.8396 33.9935 37.0623 33.8197 37.2372 33.6026C37.2777 33.5566 37.3286 33.5209 37.3856 33.4984C37.4426 33.476 37.5042 33.4675 37.5652 33.4736L40.1452 33.7114C40.2144 33.7175 40.2808 33.7418 40.3375 33.7819C40.3943 33.8219 40.4394 33.8763 40.4683 33.9395C40.4972 34.0027 40.5088 34.0724 40.502 34.1415C40.4953 34.2106 40.4703 34.2767 40.4296 34.3331C40.0324 34.9126 39.5056 35.3915 38.8909 35.7319C38.1491 36.1277 37.0854 36.3256 35.7001 36.3256C34.4971 36.3256 33.5506 36.1562 32.8605 35.8174C32.1472 35.4539 31.5537 34.8928 31.1508 34.201C30.6806 33.4126 30.4425 32.5075 30.4638 31.5898C30.4638 30.1713 30.9187 29.0228 31.8285 28.1441C32.7382 27.2654 33.993 26.8261 35.5928 26.8261C36.8943 26.8261 37.9206 27.023 38.6718 27.4167C39.4087 27.7939 40.0096 28.3915 40.3908 29.1264C40.7856 29.8734 40.9824 30.8459 40.9814 32.0437C40.9814 32.1472 40.9406 32.2465 40.8679 32.3201C40.7951 32.3937 40.6963 32.4357 40.5928 32.4369ZM36.9917 30.7692C37.0504 30.7691 37.1085 30.7559 37.1615 30.7305C37.2145 30.7051 37.2612 30.6682 37.2981 30.6225C37.3351 30.5768 37.3613 30.5234 37.375 30.4662C37.3887 30.409 37.3894 30.3495 37.3771 30.2921C37.3184 29.9311 37.1565 29.5948 36.9108 29.3238C36.7363 29.1678 36.5317 29.0493 36.3095 28.9756C36.0873 28.9019 35.8524 28.8747 35.6192 28.8955C35.3861 28.9164 35.1597 28.9848 34.9541 29.0967C34.7486 29.2086 34.5681 29.3616 34.4241 29.546C34.2653 29.7671 34.1551 30.0192 34.1008 30.2858C34.0875 30.3436 34.0873 30.4037 34.1004 30.4615C34.1135 30.5194 34.1395 30.5735 34.1763 30.62C34.2132 30.6664 34.2601 30.7039 34.3135 30.7298C34.3668 30.7556 34.4254 30.7691 34.4847 30.7692H36.9917Z" fill="white"/>
<path d="M42.8674 23.9674C42.8674 23.8632 42.9089 23.7631 42.9826 23.6894C43.0563 23.6156 43.1564 23.5742 43.2607 23.5742H48.6228C49.7574 23.5742 50.6739 23.7296 51.3722 24.0405C52.0504 24.3328 52.6457 24.7882 53.1052 25.3663C53.5699 25.9611 53.9075 26.6452 54.0968 27.3759C54.3066 28.1685 54.4112 28.9853 54.4077 29.8052C54.4077 31.1449 54.2554 32.1842 53.9507 32.923C53.6689 33.6273 53.2354 34.2609 52.6809 34.7788C52.1893 35.2512 51.5887 35.595 50.9324 35.7797C50.1807 35.9938 49.4043 36.1087 48.6228 36.1216H43.2607C43.1564 36.1216 43.0563 36.0802 42.9826 36.0065C42.9089 35.9327 42.8674 35.8327 42.8674 35.7284V23.9674ZM46.7422 26.807V32.8686C46.7422 32.9729 46.7836 33.0729 46.8573 33.1466C46.9311 33.2204 47.0311 33.2618 47.1354 33.2618H47.6902C48.5005 33.2618 49.0766 33.1722 49.4186 32.9929C49.7875 32.7816 50.0715 32.4487 50.2221 32.0511C50.4169 31.6034 50.5138 30.8781 50.5128 29.8751C50.5128 28.5468 50.2962 27.637 49.8631 27.1459C49.43 26.6547 48.714 26.4117 47.7151 26.4169H47.1432C47.0909 26.4159 47.0389 26.4253 46.9903 26.4446C46.9417 26.4639 46.8974 26.4927 46.8601 26.5293C46.8227 26.5659 46.7931 26.6096 46.7728 26.6579C46.7526 26.7061 46.7421 26.7579 46.7422 26.8102V26.807ZM65.3931 36.1123H62.9234C62.8717 36.1123 62.8206 36.1021 62.7729 36.0824C62.7252 36.0626 62.6818 36.0336 62.6453 35.9971C62.6088 35.9606 62.5799 35.9173 62.5601 35.8696C62.5403 35.8218 62.5302 35.7707 62.5302 35.7191V35.6445C62.5308 35.5686 62.5094 35.4941 62.4685 35.4302C62.4277 35.3662 62.3691 35.3155 62.2999 35.2842C62.2308 35.2529 62.154 35.2424 62.079 35.254C62.004 35.2655 61.9339 35.2986 61.8774 35.3492C61.6328 35.5794 61.3589 35.7764 61.063 35.9351C60.497 36.2074 59.8737 36.3391 59.246 36.319C58.2886 36.319 57.5374 36.0325 56.9924 35.4595C56.4474 34.8865 56.1749 34.0058 56.1749 32.8173V27.4256C56.1751 27.3735 56.1856 27.322 56.2058 27.274C56.226 27.2259 56.2556 27.1824 56.2927 27.1458C56.3298 27.1093 56.3738 27.0804 56.4222 27.061C56.4705 27.0415 56.5222 27.0318 56.5743 27.0324H59.2849C59.3892 27.0324 59.4892 27.0738 59.563 27.1476C59.6367 27.2213 59.6781 27.3213 59.6781 27.4256V32.0277C59.6781 32.5987 59.7817 33.0033 59.989 33.2416C60.1012 33.3643 60.2394 33.4604 60.3935 33.523C60.5475 33.5857 60.7135 33.6132 60.8796 33.6037C61.0755 33.6082 61.2699 33.5671 61.4473 33.4838C61.6248 33.4005 61.7805 33.2771 61.9022 33.1235C62.1665 32.8054 62.2986 32.2324 62.2986 31.4045V27.4256C62.299 27.3212 62.3408 27.2212 62.4148 27.1475C62.4887 27.0738 62.5889 27.0324 62.6934 27.0324H65.3869C65.4911 27.0324 65.5912 27.0738 65.6649 27.1476C65.7387 27.2213 65.7801 27.3213 65.7801 27.4256V35.7222C65.7801 35.8265 65.7387 35.9265 65.6649 36.0002C65.5912 36.074 65.4911 36.1154 65.3869 36.1154L65.3931 36.1123ZM74.9781 32.5888L77.5084 32.8779C77.5671 32.8842 77.6237 32.9037 77.6738 32.9349C77.7239 32.9661 77.7663 33.0083 77.7979 33.0582C77.8294 33.1081 77.8493 33.1645 77.8559 33.2232C77.8626 33.2819 77.8559 33.3413 77.8363 33.397C77.6635 33.8788 77.409 34.3273 77.0841 34.7228C76.6553 35.2379 76.1081 35.6416 75.4894 35.8994C74.8429 36.1771 74.0207 36.3164 73.0229 36.3175C72.2119 36.336 71.4022 36.2456 70.6153 36.0486C70.0049 35.8865 69.439 35.5884 68.9601 35.1766C68.5048 34.7848 68.1346 34.304 67.8721 33.7638C67.6094 33.2214 67.4789 32.5049 67.4789 31.6097C67.4789 30.6771 67.6384 29.9 67.9576 29.2783C68.1982 28.8139 68.5228 28.3981 68.915 28.052C69.2806 27.7144 69.7011 27.4416 70.1584 27.2453C70.836 26.9656 71.7054 26.8257 72.7664 26.8257C74.2492 26.8257 75.3796 27.091 76.1578 27.6215C76.8236 28.0819 77.3358 28.7316 77.6281 29.4866C77.6498 29.5418 77.6587 29.6013 77.6541 29.6605C77.6496 29.7197 77.6317 29.7771 77.6018 29.8284C77.5719 29.8797 77.5307 29.9236 77.4814 29.9567C77.4322 29.9898 77.376 30.0113 77.3172 30.0197L74.8398 30.3398C74.7532 30.3502 74.6657 30.3319 74.5905 30.2879C74.5153 30.2438 74.4565 30.1764 74.4232 30.0958C74.3242 29.8603 74.163 29.6562 73.957 29.5052C73.6345 29.2945 73.2537 29.1911 72.869 29.2099C72.6041 29.2015 72.3406 29.253 72.0984 29.3607C71.8562 29.4683 71.6414 29.6293 71.4702 29.8316C71.1137 30.2461 70.9355 30.8709 70.9355 31.706C70.9355 32.451 71.1127 33.0173 71.4671 33.4048C71.6366 33.5938 71.8452 33.7435 72.0784 33.8436C72.3117 33.9437 72.564 33.9918 72.8177 33.9845C73.2292 33.9981 73.6336 33.8751 73.9678 33.6348C74.2351 33.4233 74.4411 33.1443 74.5647 32.8266C74.599 32.7495 74.6569 32.6852 74.7301 32.6431C74.8033 32.6009 74.8879 32.583 74.9719 32.5919L74.9781 32.5888ZM79.6766 23.5742H82.4478C82.4994 23.5742 82.5506 23.5844 82.5983 23.6042C82.646 23.6239 82.6893 23.6529 82.7258 23.6894C82.7623 23.7259 82.7913 23.7693 82.8111 23.817C82.8308 23.8647 82.841 23.9158 82.841 23.9674V28.9876C82.8408 29.0673 82.8647 29.1451 82.9097 29.2108C82.9547 29.2765 83.0185 29.327 83.0928 29.3556C83.1671 29.3843 83.2483 29.3897 83.3257 29.3712C83.4032 29.3526 83.4731 29.311 83.5264 29.2519L85.3169 27.1692C85.3538 27.1262 85.3996 27.0916 85.4511 27.068C85.5026 27.0444 85.5587 27.0323 85.6153 27.0324H88.7471C88.8253 27.0323 88.9018 27.0556 88.9667 27.0992C89.0316 27.1428 89.0821 27.2047 89.1116 27.2771C89.1411 27.3495 89.1484 27.4291 89.1325 27.5057C89.1166 27.5822 89.0782 27.6523 89.0222 27.707L86.6753 29.9995C86.6124 30.0607 86.5717 30.1413 86.5599 30.2283C86.5481 30.3154 86.5657 30.4039 86.61 30.4797L89.5631 35.5248C89.5978 35.5846 89.6161 35.6525 89.6162 35.7216C89.6163 35.7907 89.5982 35.8586 89.5637 35.9185C89.5292 35.9784 89.4795 36.0282 89.4196 36.0627C89.3598 36.0973 89.2919 36.1155 89.2227 36.1154H86.2277C86.1549 36.1156 86.0834 36.0955 86.0213 36.0574C85.9593 36.0192 85.9091 35.9645 85.8764 35.8994L84.3952 32.9541C84.3673 32.8996 84.3269 32.8525 84.2775 32.8164C84.2281 32.7803 84.1709 32.7562 84.1105 32.7461C84.0501 32.736 83.9882 32.7401 83.9297 32.7581C83.8712 32.7762 83.8178 32.8076 83.7736 32.8499L82.9638 33.6395C82.9262 33.675 82.8961 33.7176 82.875 33.7648C82.8539 33.812 82.8424 33.8629 82.841 33.9146V35.7222C82.841 35.8265 82.7996 35.9265 82.7258 36.0002C82.6521 36.074 82.5521 36.1154 82.4478 36.1154H79.6703C79.5661 36.1154 79.466 36.074 79.3923 36.0002C79.3186 35.9265 79.2771 35.8265 79.2771 35.7222V23.9674C79.278 23.8637 79.3197 23.7645 79.3934 23.6914C79.467 23.6183 79.5666 23.5773 79.6703 23.5773L79.6766 23.5742ZM90.8283 33.5447L93.5093 33.2929C93.5911 33.2863 93.673 33.3052 93.7437 33.3469C93.8144 33.3886 93.8704 33.4512 93.9041 33.526C94.0107 33.7735 94.1813 33.9881 94.3984 34.1477C94.7057 34.3375 95.0634 34.4297 95.4242 34.412C95.8915 34.412 96.2541 34.3125 96.5121 34.1135C96.6041 34.0531 96.6797 33.9708 96.7321 33.8739C96.7844 33.7771 96.8119 33.6688 96.8121 33.5587C96.8096 33.4346 96.7709 33.3139 96.7008 33.2114C96.6307 33.109 96.5321 33.0293 96.4173 32.9821C96.2287 32.8857 95.7298 32.766 94.9206 32.623C93.7114 32.4158 92.8716 32.221 92.4012 32.0386C91.9258 31.8552 91.513 31.5391 91.2122 31.1278C90.8925 30.7084 90.7223 30.1941 90.7288 29.6669C90.7162 29.1061 90.901 28.5587 91.251 28.1204C91.6286 27.6681 92.1265 27.3318 92.6871 27.1505C93.2974 26.9381 94.116 26.8314 95.1428 26.8304C96.2267 26.8304 97.0261 26.9133 97.541 27.079C98.0283 27.2276 98.4718 27.4934 98.8326 27.8531C99.0874 28.116 99.2997 28.417 99.4621 28.7452C99.4912 28.8023 99.506 28.8656 99.5051 28.9297C99.5043 28.9938 99.4878 29.0567 99.4572 29.113C99.4266 29.1693 99.3828 29.2173 99.3295 29.2529C99.2761 29.2885 99.215 29.3105 99.1512 29.3171L96.6878 29.5596C96.6105 29.5685 96.5324 29.5536 96.4638 29.517C96.3952 29.4803 96.3394 29.4236 96.3039 29.3544C96.2286 29.1892 96.1112 29.0466 95.9635 28.941C95.6678 28.7527 95.3223 28.6574 94.9719 28.6675C94.5786 28.6675 94.2911 28.7374 94.1124 28.8773C94.0297 28.9339 93.9619 29.0097 93.9148 29.0982C93.8677 29.1867 93.8427 29.2853 93.8419 29.3855C93.842 29.494 93.8747 29.6 93.9356 29.6898C93.9966 29.7796 94.083 29.849 94.1839 29.8891C94.4129 30.002 94.9092 30.1057 95.6728 30.2C96.8313 30.3305 97.6923 30.5129 98.256 30.7471C98.7754 30.9436 99.2256 31.2884 99.5507 31.7387C99.8457 32.1557 100.003 32.6546 99.9999 33.1655C99.9965 33.7097 99.8345 34.2412 99.5336 34.6948C99.1661 35.2317 98.6441 35.6442 98.0368 35.8776C97.354 36.1719 96.4261 36.3185 95.2532 36.3175C93.5953 36.3175 92.4136 36.0812 91.708 35.6087C91.1513 35.2418 90.7274 34.7056 90.4988 34.0793C90.4779 34.0232 90.47 33.9631 90.4757 33.9035C90.4814 33.8439 90.5005 33.7864 90.5316 33.7352C90.5627 33.6841 90.605 33.6407 90.6553 33.6082C90.7056 33.5757 90.7626 33.5551 90.822 33.5478L90.8283 33.5447Z" fill="white"/>
<path d="M10.5347 32.7318C9.60446 33.6684 8.38212 34.259 7.07025 34.4057C5.72894 34.572 4.07833 34.4601 3.04787 33.4825C1.96923 32.4613 1.98321 31.2304 2.64221 29.9823C2.84582 29.5984 3.1318 29.2643 3.27324 28.8477C3.42866 28.3815 3.27324 27.9245 3.10849 27.4753C3.01819 27.2458 2.95103 27.0079 2.90799 26.765C2.84824 26.3551 2.89645 25.9367 3.04787 25.5512C3.27376 24.9884 3.69379 24.5252 4.23183 24.2455C4.76988 23.9658 5.39032 23.8881 5.98073 24.0265C7.47591 24.3902 8.37582 26.0672 7.54896 27.4271C7.28474 27.8623 7.01741 28.4017 7.25365 28.8539C7.53652 29.3948 8.28722 29.4119 8.8079 29.3389C9.35657 29.2618 9.87137 29.0281 10.2906 28.6659C10.435 28.5397 10.5621 28.395 10.6683 28.2354C10.9095 27.8708 11.0731 27.4605 11.1487 27.03C11.2244 26.5995 11.2106 26.158 11.1082 25.733L11.0989 25.6895C11.088 25.646 11.0755 25.6025 11.0631 25.5605C10.9009 25.0603 10.6098 24.6116 10.2191 24.2596C9.56222 23.6503 8.61828 23.3457 7.38732 23.3457H0.621697C0.456813 23.3457 0.298682 23.4112 0.182091 23.5278C0.0655001 23.6444 0 23.8025 0 23.9674L0 35.4937C0 35.6586 0.0655001 35.8167 0.182091 35.9333C0.298682 36.0499 0.456813 36.1154 0.621697 36.1154H6.81225C7.40403 36.0859 7.99389 36.0258 8.57942 35.9351C9.24775 35.848 9.74718 35.7087 10.0777 35.517C10.6038 35.221 11.0416 34.7902 11.346 34.2689C11.6592 33.7264 11.8202 33.1095 11.8122 32.4831C11.8188 32.0353 11.7391 31.5905 11.5776 31.1729C11.3282 31.7519 10.9747 32.2803 10.5347 32.7318Z" fill="white"/>
<path d="M3.04791 25.5547H1.51387C1.51387 25.5547 1.16883 27.168 3.10853 27.4757C3.01823 27.2462 2.95107 27.0083 2.90803 26.7654C2.84882 26.3566 2.89703 25.9393 3.04791 25.5547Z" fill="url(#paint0_linear_3570_22749)"/>
</g>
<defs>
<linearGradient id="paint0_linear_3570_22749" x1="2.29876" y1="27.6374" x2="2.29876" y2="25.4925" gradientUnits="userSpaceOnUse">
<stop stop-color="#F26522"/>
<stop offset="0.29" stop-color="#F26923"/>
<stop offset="0.56" stop-color="#F47428"/>
<stop offset="0.82" stop-color="#F6872F"/>
<stop offset="1" stop-color="#F89936"/>
</linearGradient>
<clipPath id="clip0_3570_22749">
<rect width="100" height="23.2624" fill="white" transform="translate(0 23.3457)"/>
</clipPath>
</defs>
</svg>
