<svg width="2023" height="282" viewBox="0 0 2023 282" fill="none" xmlns="http://www.w3.org/2000/svg">
<g clip-path="url(#clip0_3994_11414)">
<path d="M190.94 226.518C190.817 226.308 190.673 226.07 190.524 225.828C190.375 226.07 190.231 226.305 190.108 226.515C188.403 229.354 185.222 234.647 178.742 234.647C177.729 234.647 176.823 234.484 175.971 234.254V260.242H205.072V234.257C204.214 234.484 203.314 234.647 202.306 234.647C195.826 234.647 192.65 229.358 190.94 226.518Z" fill="#012615"/>
<path d="M256.528 217.182L231.778 185.728C226.22 185.664 223.514 181.358 222.059 179.033C221.91 178.792 221.729 178.503 221.547 178.224C221.366 178.501 221.185 178.789 221.036 179.027C219.57 181.367 216.836 185.722 211.203 185.722C205.565 185.716 202.843 181.361 201.377 179.022C201.228 178.777 201.047 178.489 200.866 178.21C200.679 178.486 200.503 178.774 200.349 179.019C198.883 181.358 196.15 185.707 190.522 185.707C184.884 185.702 182.161 181.346 180.695 179.004C180.546 178.762 180.365 178.474 180.184 178.192C179.997 178.474 179.816 178.762 179.667 179.004C178.201 181.34 175.462 185.696 169.83 185.696C164.192 185.69 161.469 181.332 160.003 178.989C159.854 178.748 159.673 178.46 159.491 178.184C159.315 178.457 159.134 178.745 158.985 178.986C157.53 181.302 154.828 185.585 149.308 185.667L124.512 217.182C121.001 221.657 122.791 225.317 128.514 225.317C134.717 225.317 137.504 218.884 143.393 218.884C149.287 218.884 149.287 228.69 155.175 228.69C161.069 228.69 161.069 218.884 166.958 218.884C172.851 218.884 172.851 228.69 178.74 228.69C184.634 228.69 184.634 218.884 190.522 218.884C196.416 218.884 196.416 228.69 202.305 228.69C208.199 228.69 208.199 218.884 214.082 218.884C219.981 218.884 219.981 228.69 225.858 228.69C231.751 228.69 231.751 218.884 237.639 218.884C243.534 218.884 246.328 225.317 252.526 225.317C258.249 225.317 260.045 221.657 256.528 217.182Z" fill="#012615"/>
<path d="M149.158 179.504C154.332 179.504 154.332 171.249 159.502 171.255C164.676 171.255 164.665 179.515 169.834 179.521C175.014 179.521 175.019 171.264 180.194 171.273C185.363 171.273 185.357 179.527 190.527 179.532C195.695 179.532 195.701 171.276 200.87 171.287C206.044 171.287 206.039 179.542 211.208 179.547C216.382 179.547 216.382 171.293 221.551 171.302C226.724 171.302 226.719 179.556 231.888 179.562C237.606 179.562 239.37 175.937 235.805 171.5L215.013 145.585C214.165 145.728 213.281 145.824 212.348 145.824C208.639 145.824 206.407 143.706 205.074 141.969C203.737 143.706 201.509 145.824 197.8 145.824C194.097 145.824 191.864 143.706 190.526 141.969C189.189 143.706 186.956 145.824 183.247 145.824C179.543 145.824 177.31 143.708 175.973 141.972C174.64 143.709 172.408 145.824 168.704 145.824C167.771 145.824 166.892 145.728 166.045 145.585L145.246 171.433C141.676 175.867 143.435 179.498 149.158 179.504Z" fill="#012615"/>
<path d="M168.709 139.65C172.343 139.65 172.343 134.146 175.978 134.146C179.612 134.146 179.612 139.65 183.252 139.65C186.897 139.65 186.897 134.146 190.526 134.146C194.166 134.146 194.166 139.65 197.805 139.65C201.434 139.65 201.434 134.146 205.079 134.146C208.714 134.146 208.714 139.65 212.348 139.65C218.066 139.65 220.043 135.853 216.744 131.221L196.521 102.834C193.233 98.1961 187.824 98.1961 184.52 102.834L164.307 131.221C161.004 135.853 162.981 139.65 168.709 139.65Z" fill="#012615"/>
</g>
<g clip-path="url(#clip1_3994_11414)">
<path d="M74.0881 226.518C73.9655 226.308 73.8219 226.07 73.6726 225.828C73.5235 226.07 73.3793 226.305 73.2568 226.515C71.5514 229.354 68.3701 234.647 61.8901 234.647C60.8777 234.647 59.9718 234.484 59.1191 234.254V260.242H88.2206V234.257C87.3624 234.484 86.462 234.647 85.4548 234.647C78.9748 234.647 75.7989 229.358 74.0881 226.518Z" fill="#012615"/>
<path d="M139.678 217.182L114.928 185.728C109.37 185.664 106.664 181.358 105.209 179.033C105.06 178.792 104.879 178.503 104.698 178.224C104.516 178.501 104.335 178.789 104.186 179.027C102.721 181.367 99.9866 185.722 94.3538 185.722C88.7158 185.716 85.9929 181.361 84.5276 179.022C84.3782 178.777 84.1972 178.489 84.0159 178.21C83.8294 178.486 83.6536 178.774 83.4991 179.019C82.0338 181.358 79.2999 185.707 73.6726 185.707C68.0346 185.702 65.3114 181.346 63.8458 179.004C63.6967 178.762 63.5154 178.474 63.3341 178.192C63.1476 178.474 62.9663 178.762 62.8173 179.004C61.3517 181.34 58.6127 185.696 52.9801 185.696C47.3421 185.69 44.6189 181.332 43.1533 178.989C43.0042 178.748 42.823 178.46 42.6417 178.184C42.4658 178.457 42.2848 178.745 42.1355 178.986C40.6805 181.302 37.9786 185.585 32.458 185.667L7.66281 217.182C4.15114 221.657 5.94165 225.317 11.6648 225.317C17.8677 225.317 20.6548 218.884 26.5432 218.884C32.4373 218.884 32.4373 228.69 38.3257 228.69C44.2192 228.69 44.2192 218.884 50.1082 218.884C56.0017 218.884 56.0017 228.69 61.8904 228.69C67.7842 228.69 67.7842 218.884 73.6729 218.884C79.5664 218.884 79.5664 228.69 85.4551 228.69C91.3489 228.69 91.3489 218.884 97.2321 218.884C103.131 218.884 103.131 228.69 109.008 228.69C114.902 228.69 114.902 218.884 120.79 218.884C126.684 218.884 129.479 225.317 135.677 225.317C141.399 225.317 143.195 221.657 139.678 217.182Z" fill="#012615"/>
<path d="M32.3067 179.504C37.4808 179.504 37.4808 171.249 42.6501 171.255C47.8245 171.255 47.8138 179.515 52.9828 179.521C58.1624 179.521 58.1678 171.264 63.3422 171.273C68.5112 171.273 68.5057 179.527 73.6749 179.532C78.8439 179.532 78.8493 171.276 84.0183 171.287C89.1927 171.287 89.1872 179.542 94.3562 179.547C99.5306 179.547 99.5306 171.293 104.7 171.302C109.873 171.302 109.868 179.556 115.037 179.562C120.755 179.562 122.519 175.937 118.953 171.5L98.1614 145.585C97.3139 145.728 96.4293 145.824 95.4966 145.824C91.7875 145.824 89.555 143.706 88.2226 141.969C86.8851 143.706 84.6577 145.824 80.9486 145.824C77.245 145.824 75.0122 143.706 73.6747 141.969C72.3371 143.706 70.1043 145.824 66.3952 145.824C62.6916 145.824 60.4588 143.708 59.1212 141.972C57.7888 143.709 55.556 145.824 51.8524 145.824C50.9197 145.824 50.0406 145.728 49.1934 145.585L28.3945 171.433C24.8247 175.867 26.5832 179.498 32.3067 179.504Z" fill="#012615"/>
<path d="M51.8537 139.65C55.488 139.65 55.488 134.146 59.1222 134.146C62.7568 134.146 62.7568 139.65 66.3965 139.65C70.0414 139.65 70.0414 134.146 73.6705 134.146C77.3102 134.146 77.3102 139.65 80.9496 139.65C84.5787 139.65 84.5787 134.146 88.2239 134.146C91.8582 134.146 91.8582 139.65 95.4924 139.65C101.21 139.65 103.187 135.853 99.8887 131.221L79.6653 102.834C76.3775 98.1961 70.9686 98.1961 67.6647 102.834L47.452 131.221C44.1483 135.853 46.1253 139.65 51.8537 139.65Z" fill="#012615"/>
</g>
<g clip-path="url(#clip2_3994_11414)">
<path d="M300.452 222.732C300.316 222.499 300.157 222.234 299.992 221.965C299.827 222.234 299.667 222.496 299.531 222.729C297.641 225.887 294.116 231.774 286.936 231.774C285.815 231.774 284.811 231.592 283.866 231.336V260.242H316.111V231.34C315.16 231.593 314.163 231.774 313.047 231.774C305.867 231.774 302.348 225.891 300.452 222.732Z" fill="#012615"/>
<path d="M373.123 212.346L345.699 177.36C339.541 177.289 336.542 172.499 334.931 169.914C334.766 169.645 334.565 169.325 334.364 169.014C334.163 169.322 333.962 169.642 333.797 169.907C332.173 172.509 329.144 177.354 322.902 177.354C316.655 177.347 313.638 172.503 312.015 169.901C311.849 169.629 311.649 169.309 311.448 168.998C311.241 169.305 311.046 169.626 310.875 169.897C309.252 172.499 306.223 177.337 299.987 177.337C293.74 177.331 290.723 172.486 289.099 169.881C288.934 169.613 288.733 169.292 288.532 168.978C288.325 169.292 288.125 169.613 287.959 169.881C286.335 172.48 283.301 177.324 277.06 177.324C270.813 177.318 267.795 172.47 266.171 169.865C266.006 169.596 265.805 169.276 265.604 168.969C265.41 169.273 265.209 169.593 265.044 169.862C263.431 172.438 260.438 177.202 254.321 177.292L226.847 212.346C222.956 217.323 224.94 221.395 231.282 221.395C238.154 221.395 241.243 214.239 247.767 214.239C254.298 214.239 254.298 225.146 260.822 225.146C267.352 225.146 267.352 214.239 273.877 214.239C280.408 214.239 280.408 225.146 286.932 225.146C293.463 225.146 293.463 214.239 299.988 214.239C306.518 214.239 306.518 225.146 313.043 225.146C319.573 225.146 319.573 214.239 326.092 214.239C332.628 214.239 332.628 225.146 339.14 225.146C345.67 225.146 345.67 214.239 352.194 214.239C358.725 214.239 361.822 221.395 368.689 221.395C375.03 221.394 377.02 217.323 373.123 212.346Z" fill="#012615"/>
<path d="M254.156 170.437C259.889 170.437 259.889 161.256 265.616 161.262C271.35 161.262 271.338 170.45 277.065 170.456C282.804 170.456 282.81 161.272 288.544 161.282C294.271 161.282 294.265 170.463 299.992 170.469C305.72 170.469 305.726 161.285 311.453 161.298C317.186 161.298 317.18 170.479 322.908 170.485C328.641 170.485 328.641 161.304 334.368 161.314C340.1 161.314 340.095 170.495 345.822 170.502C352.157 170.502 354.112 166.469 350.162 161.535L327.124 132.71C326.185 132.869 325.205 132.975 324.171 132.975C320.061 132.975 317.588 130.619 316.111 128.688C314.629 130.62 312.161 132.975 308.052 132.975C303.948 132.975 301.474 130.619 299.992 128.688C298.51 130.62 296.036 132.975 291.926 132.975C287.823 132.975 285.349 130.622 283.867 128.691C282.39 130.623 279.916 132.975 275.813 132.975C274.779 132.975 273.805 132.869 272.866 132.71L249.821 161.46C245.865 166.391 247.814 170.43 254.156 170.437Z" fill="#012615"/>
<path d="M275.817 126.108C279.843 126.108 279.843 119.985 283.87 119.985C287.897 119.985 287.897 126.108 291.93 126.108C295.969 126.108 295.969 119.985 299.99 119.985C304.023 119.985 304.023 126.108 308.055 126.108C312.076 126.108 312.076 119.985 316.115 119.985C320.142 119.985 320.142 126.108 324.169 126.108C330.505 126.108 332.695 121.885 329.04 116.733L306.632 85.1577C302.989 79.9995 296.996 79.9995 293.335 85.1577L270.939 116.733C267.279 121.885 269.469 126.108 275.817 126.108Z" fill="#012615"/>
</g>
<g clip-path="url(#clip3_3994_11414)">
<path d="M405.992 217.407C405.836 217.141 405.654 216.838 405.464 216.531C405.275 216.838 405.091 217.138 404.936 217.403C402.77 221.01 398.729 227.732 390.498 227.732C389.212 227.732 388.062 227.525 386.979 227.233V260.242H423.942V227.238C422.852 227.526 421.709 227.733 420.429 227.733C412.199 227.733 408.165 221.014 405.992 217.407Z" fill="#012615"/>
<path d="M489.299 205.547L457.862 165.594C450.802 165.513 447.365 160.043 445.518 157.091C445.328 156.784 445.098 156.418 444.868 156.064C444.637 156.415 444.407 156.78 444.218 157.083C442.356 160.055 438.884 165.587 431.729 165.587C424.568 165.579 421.109 160.047 419.248 157.076C419.058 156.766 418.828 156.4 418.598 156.045C418.361 156.396 418.138 156.762 417.942 157.072C416.08 160.043 412.608 165.568 405.46 165.568C398.299 165.561 394.84 160.028 392.978 157.053C392.789 156.747 392.559 156.381 392.329 156.022C392.092 156.381 391.861 156.747 391.672 157.053C389.811 160.021 386.331 165.553 379.177 165.553C372.016 165.546 368.557 160.01 366.695 157.035C366.506 156.729 366.276 156.363 366.046 156.012C365.822 156.359 365.592 156.725 365.403 157.032C363.555 159.973 360.123 165.413 353.111 165.517L321.616 205.547C317.156 211.231 319.43 215.88 326.7 215.88C334.578 215.88 338.118 207.709 345.598 207.709C353.084 207.709 353.084 220.163 360.563 220.163C368.049 220.163 368.049 207.709 375.529 207.709C383.015 207.709 383.015 220.163 390.495 220.163C397.981 220.163 397.981 207.709 405.461 207.709C412.946 207.709 412.946 220.163 420.426 220.163C427.912 220.163 427.912 207.709 435.385 207.709C442.878 207.709 442.878 220.163 450.342 220.163C457.828 220.163 457.828 207.709 465.307 207.709C472.794 207.709 476.344 215.88 484.216 215.88C491.485 215.879 493.766 211.231 489.299 205.547Z" fill="#012615"/>
<path d="M352.919 157.691C359.491 157.691 359.491 147.207 366.057 147.214C372.629 147.214 372.616 157.706 379.181 157.713C385.76 157.713 385.767 147.225 392.339 147.237C398.905 147.237 398.898 157.721 405.464 157.728C412.029 157.728 412.036 147.241 418.602 147.255C425.174 147.255 425.167 157.74 431.733 157.747C438.305 157.747 438.305 147.262 444.871 147.274C451.441 147.274 451.435 157.758 458 157.766C465.263 157.766 467.504 153.161 462.975 147.526L436.566 114.609C435.489 114.79 434.366 114.912 433.181 114.912C428.47 114.912 425.634 112.222 423.942 110.016C422.243 112.222 419.414 114.912 414.703 114.912C409.998 114.912 407.162 112.222 405.463 110.016C403.764 112.222 400.928 114.912 396.217 114.912C391.513 114.912 388.677 112.225 386.978 110.019C385.286 112.226 382.45 114.912 377.745 114.912C376.561 114.912 375.444 114.79 374.368 114.609L347.95 147.441C343.415 153.072 345.649 157.684 352.919 157.691Z" fill="#012615"/>
<path d="M377.751 107.068C382.367 107.068 382.367 100.076 386.983 100.076C391.6 100.076 391.6 107.068 396.223 107.068C400.852 107.068 400.852 100.076 405.462 100.076C410.085 100.076 410.085 107.068 414.708 107.068C419.317 107.068 419.317 100.076 423.947 100.076C428.563 100.076 428.563 107.068 433.18 107.068C440.442 107.068 442.954 102.246 438.764 96.3619L413.076 60.3045C408.9 54.4141 402.03 54.4141 397.833 60.3045L372.16 96.3619C367.964 102.246 370.475 107.068 377.751 107.068Z" fill="#012615"/>
</g>
<g clip-path="url(#clip4_3994_11414)">
<path d="M543.409 220.414C543.198 220.05 542.95 219.638 542.692 219.219C542.434 219.638 542.185 220.046 541.974 220.409C539.029 225.331 533.536 234.504 522.347 234.504C520.599 234.504 519.035 234.222 517.562 233.823V278.869H567.812V233.829C566.33 234.222 564.775 234.505 563.036 234.505C551.847 234.505 546.363 225.336 543.409 220.414Z" fill="#012615"/>
<path d="M656.657 204.235L613.92 149.713C604.323 149.603 599.651 142.138 597.139 138.11C596.882 137.691 596.569 137.191 596.256 136.708C595.943 137.187 595.63 137.686 595.372 138.099C592.842 142.154 588.121 149.703 578.395 149.703C568.66 149.693 563.958 142.144 561.428 138.089C561.17 137.666 560.858 137.167 560.545 136.682C560.223 137.161 559.919 137.661 559.652 138.084C557.122 142.138 552.402 149.678 542.685 149.678C532.95 149.668 528.248 142.118 525.717 138.058C525.46 137.64 525.147 137.141 524.834 136.651C524.512 137.141 524.199 137.64 523.941 138.058C521.411 142.108 516.681 149.658 506.955 149.658C497.22 149.647 492.518 142.093 489.988 138.033C489.73 137.615 489.417 137.115 489.104 136.637C488.801 137.111 488.488 137.61 488.23 138.028C485.718 142.043 481.052 149.466 471.52 149.607L428.706 204.235C422.643 211.991 425.734 218.335 435.617 218.335C446.327 218.335 451.14 207.185 461.307 207.185C471.484 207.185 471.484 224.18 481.652 224.18C491.828 224.18 491.828 207.185 501.996 207.185C512.173 207.185 512.173 224.18 522.341 224.18C532.518 224.18 532.518 207.185 542.685 207.185C552.862 207.185 552.862 224.18 563.03 224.18C573.207 224.18 573.207 207.185 583.365 207.185C593.551 207.185 593.551 224.18 603.698 224.18C613.875 224.18 613.875 207.185 624.042 207.185C634.219 207.185 639.045 218.335 649.747 218.335C659.628 218.334 662.73 211.991 656.657 204.235Z" fill="#012615"/>
<path d="M471.262 138.924C480.196 138.924 480.196 124.616 489.121 124.626C498.056 124.626 498.038 138.944 506.963 138.954C515.906 138.954 515.916 124.641 524.85 124.656C533.776 124.656 533.766 138.964 542.692 138.974C551.617 138.974 551.626 124.662 560.552 124.682C569.486 124.682 569.477 138.989 578.402 138.999C587.337 138.999 587.337 124.692 596.262 124.707C605.194 124.707 605.185 139.015 614.111 139.025C623.984 139.025 627.03 132.741 620.874 125.051L584.972 80.1319C583.509 80.3792 581.982 80.5453 580.371 80.5453C573.967 80.5453 570.112 76.8737 567.811 73.8633C565.502 76.8742 561.656 80.5453 555.251 80.5453C548.856 80.5453 545.001 76.8737 542.691 73.8633C540.382 76.8742 536.526 80.5453 530.122 80.5453C523.727 80.5453 519.872 76.8786 517.562 73.8682C515.261 76.8791 511.406 80.5453 505.011 80.5453C503.401 80.5453 501.883 80.3792 500.42 80.1319L464.506 124.935C458.342 132.62 461.379 138.913 471.262 138.924Z" fill="#012615"/>
<path d="M505.02 69.8444C511.295 69.8444 511.295 60.3029 517.571 60.3029C523.846 60.3029 523.846 69.8444 530.131 69.8444C536.425 69.8444 536.425 60.3029 542.691 60.3029C548.976 60.3029 548.976 69.8444 555.26 69.8444C561.526 69.8444 561.526 60.3029 567.82 60.3029C574.096 60.3029 574.096 69.8444 580.371 69.8444C590.244 69.8444 593.658 63.2631 587.962 55.2342L553.042 6.02868C547.365 -2.00956 538.026 -2.00956 532.321 6.02868L497.42 55.2342C491.715 63.2631 495.129 69.8444 505.02 69.8444Z" fill="#012615"/>
</g>
<g clip-path="url(#clip5_3994_11414)">
<path d="M680.069 217.407C679.913 217.141 679.731 216.838 679.541 216.531C679.352 216.838 679.169 217.138 679.013 217.403C676.847 221.01 672.806 227.732 664.575 227.732C663.289 227.732 662.139 227.525 661.056 227.233V260.242H698.02V227.238C696.93 227.526 695.786 227.733 694.507 227.733C686.276 227.733 682.242 221.014 680.069 217.407Z" fill="#012615"/>
<path d="M763.376 205.547L731.939 165.594C724.879 165.513 721.442 160.043 719.595 157.091C719.405 156.784 719.175 156.418 718.945 156.064C718.714 156.415 718.485 156.78 718.295 157.083C716.434 160.055 712.961 165.587 705.806 165.587C698.645 165.579 695.186 160.047 693.325 157.076C693.135 156.766 692.906 156.4 692.675 156.045C692.438 156.396 692.215 156.762 692.019 157.072C690.158 160.043 686.685 165.568 679.537 165.568C672.376 165.561 668.917 160.028 667.056 157.053C666.866 156.747 666.636 156.381 666.406 156.022C666.169 156.381 665.939 156.747 665.749 157.053C663.888 160.021 660.409 165.553 653.254 165.553C646.093 165.546 642.634 160.01 640.773 157.035C640.583 156.729 640.353 156.363 640.123 156.012C639.899 156.359 639.669 156.725 639.48 157.032C637.632 159.973 634.2 165.413 627.188 165.517L595.693 205.547C591.233 211.231 593.507 215.88 600.777 215.88C608.655 215.88 612.196 207.709 619.675 207.709C627.161 207.709 627.161 220.163 634.641 220.163C642.126 220.163 642.126 207.709 649.606 207.709C657.092 207.709 657.092 220.163 664.572 220.163C672.058 220.163 672.058 207.709 679.538 207.709C687.024 207.709 687.024 220.163 694.503 220.163C701.989 220.163 701.989 207.709 709.462 207.709C716.955 207.709 716.955 220.163 724.42 220.163C731.905 220.163 731.905 207.709 739.385 207.709C746.871 207.709 750.421 215.88 758.293 215.88C765.562 215.879 767.844 211.231 763.376 205.547Z" fill="#012615"/>
<path d="M626.998 157.691C633.57 157.691 633.57 147.207 640.136 147.214C646.708 147.214 646.695 157.706 653.26 157.713C659.839 157.713 659.846 147.225 666.418 147.237C672.984 147.237 672.977 157.721 679.543 157.728C686.108 157.728 686.115 147.241 692.681 147.255C699.253 147.255 699.246 157.74 705.812 157.747C712.384 157.747 712.384 147.262 718.95 147.274C725.52 147.274 725.514 157.758 732.079 157.766C739.342 157.766 741.583 153.161 737.054 147.526L710.645 114.609C709.568 114.79 708.445 114.912 707.26 114.912C702.549 114.912 699.713 112.222 698.021 110.016C696.322 112.222 693.493 114.912 688.782 114.912C684.077 114.912 681.241 112.222 679.542 110.016C677.844 112.222 675.007 114.912 670.296 114.912C665.592 114.912 662.756 112.225 661.057 110.019C659.365 112.226 656.529 114.912 651.824 114.912C650.64 114.912 649.523 114.79 648.447 114.609L622.029 147.441C617.494 153.072 619.728 157.684 626.998 157.691Z" fill="#012615"/>
<path d="M651.832 107.068C656.448 107.068 656.448 100.076 661.064 100.076C665.681 100.076 665.681 107.068 670.304 107.068C674.933 107.068 674.933 100.076 679.543 100.076C684.166 100.076 684.166 107.068 688.789 107.068C693.398 107.068 693.398 100.076 698.028 100.076C702.644 100.076 702.644 107.068 707.261 107.068C714.523 107.068 717.035 102.246 712.845 96.3619L687.157 60.3045C682.981 54.4141 676.111 54.4141 671.915 60.3045L646.241 96.3619C642.045 102.246 644.556 107.068 651.832 107.068Z" fill="#012615"/>
</g>
<g clip-path="url(#clip6_3994_11414)">
<path d="M785.476 222.732C785.34 222.499 785.181 222.234 785.015 221.965C784.85 222.234 784.69 222.496 784.554 222.729C782.665 225.887 779.14 231.774 771.96 231.774C770.838 231.774 769.834 231.592 768.89 231.336V260.242H801.135V231.34C800.184 231.593 799.186 231.774 798.07 231.774C790.89 231.774 787.371 225.891 785.476 222.732Z" fill="#012615"/>
<path d="M858.146 212.346L830.723 177.36C824.564 177.289 821.566 172.499 819.954 169.914C819.789 169.645 819.588 169.325 819.387 169.014C819.186 169.322 818.986 169.642 818.82 169.907C817.197 172.509 814.167 177.354 807.926 177.354C801.679 177.347 798.662 172.503 797.038 169.901C796.873 169.629 796.672 169.309 796.471 168.998C796.265 169.305 796.07 169.626 795.899 169.897C794.275 172.499 791.246 177.337 785.011 177.337C778.764 177.331 775.746 172.486 774.122 169.881C773.957 169.613 773.756 169.292 773.556 168.978C773.349 169.292 773.148 169.613 772.983 169.881C771.359 172.48 768.324 177.324 762.083 177.324C755.836 177.318 752.819 172.47 751.195 169.865C751.03 169.596 750.829 169.276 750.628 168.969C750.433 169.273 750.233 169.593 750.067 169.862C748.455 172.438 745.461 177.202 739.344 177.292L711.871 212.346C707.98 217.323 709.964 221.395 716.305 221.395C723.178 221.395 726.266 214.239 732.79 214.239C739.321 214.239 739.321 225.146 745.846 225.146C752.376 225.146 752.376 214.239 758.901 214.239C765.431 214.239 765.431 225.146 771.956 225.146C778.486 225.146 778.486 214.239 785.011 214.239C791.541 214.239 791.541 225.146 798.066 225.146C804.596 225.146 804.596 214.239 811.115 214.239C817.651 214.239 817.651 225.146 824.163 225.146C830.693 225.146 830.693 214.239 837.218 214.239C843.748 214.239 846.845 221.395 853.712 221.395C860.053 221.394 862.043 217.323 858.146 212.346Z" fill="#012615"/>
<path d="M739.174 170.437C744.907 170.437 744.907 161.256 750.635 161.262C756.368 161.262 756.356 170.45 762.084 170.456C767.823 170.456 767.829 161.272 773.562 161.282C779.289 161.282 779.283 170.463 785.011 170.469C790.738 170.469 790.744 161.285 796.472 161.298C802.205 161.298 802.199 170.479 807.926 170.485C813.659 170.485 813.659 161.304 819.387 161.314C825.119 161.314 825.113 170.495 830.84 170.502C837.176 170.502 839.131 166.469 835.18 161.535L812.142 132.71C811.203 132.869 810.223 132.975 809.19 132.975C805.08 132.975 802.606 130.619 801.13 128.688C799.648 130.62 797.18 132.975 793.07 132.975C788.967 132.975 786.493 130.619 785.011 128.688C783.529 130.62 781.055 132.975 776.945 132.975C772.841 132.975 770.367 130.622 768.885 128.691C767.409 130.623 764.935 132.975 760.831 132.975C759.798 132.975 758.824 132.869 757.885 132.71L734.839 161.46C730.884 166.391 732.832 170.43 739.174 170.437Z" fill="#012615"/>
<path d="M760.842 126.108C764.869 126.108 764.869 119.985 768.896 119.985C772.923 119.985 772.923 126.108 776.956 126.108C780.994 126.108 780.994 119.985 785.015 119.985C789.048 119.985 789.048 126.108 793.081 126.108C797.102 126.108 797.102 119.985 801.141 119.985C805.168 119.985 805.168 126.108 809.194 126.108C815.53 126.108 817.721 121.885 814.066 116.733L791.658 85.1577C788.015 79.9995 782.022 79.9995 778.361 85.1577L755.965 116.733C752.304 121.885 754.495 126.108 760.842 126.108Z" fill="#012615"/>
</g>
<g clip-path="url(#clip7_3994_11414)">
<path d="M894.891 226.518C894.768 226.308 894.625 226.07 894.475 225.828C894.326 226.07 894.182 226.305 894.059 226.515C892.354 229.354 889.173 234.647 882.693 234.647C881.68 234.647 880.775 234.484 879.922 234.254V260.242H909.023V234.257C908.165 234.484 907.265 234.647 906.258 234.647C899.777 234.647 896.602 229.358 894.891 226.518Z" fill="#012615"/>
<path d="M960.479 217.182L935.729 185.728C930.171 185.664 927.465 181.358 926.01 179.033C925.861 178.792 925.68 178.503 925.499 178.224C925.317 178.501 925.136 178.789 924.987 179.027C923.522 181.367 920.787 185.722 915.155 185.722C909.517 185.716 906.794 181.361 905.328 179.022C905.179 178.777 904.998 178.489 904.817 178.21C904.63 178.486 904.454 178.774 904.3 179.019C902.835 181.358 900.101 185.707 894.473 185.707C888.835 185.702 886.112 181.346 884.647 179.004C884.497 178.762 884.316 178.474 884.135 178.192C883.948 178.474 883.767 178.762 883.618 179.004C882.152 181.34 879.413 185.696 873.781 185.696C868.143 185.69 865.42 181.332 863.954 178.989C863.805 178.748 863.624 178.46 863.442 178.184C863.267 178.457 863.086 178.745 862.936 178.986C861.481 181.302 858.779 185.585 853.259 185.667L828.464 217.182C824.952 221.657 826.742 225.317 832.466 225.317C838.669 225.317 841.456 218.884 847.344 218.884C853.238 218.884 853.238 228.69 859.126 228.69C865.02 228.69 865.02 218.884 870.909 218.884C876.802 218.884 876.802 228.69 882.691 228.69C888.585 228.69 888.585 218.884 894.474 218.884C900.367 218.884 900.367 228.69 906.256 228.69C912.15 228.69 912.15 218.884 918.033 218.884C923.932 218.884 923.932 228.69 929.809 228.69C935.702 228.69 935.702 218.884 941.591 218.884C947.485 218.884 950.28 225.317 956.477 225.317C962.2 225.317 963.996 221.657 960.479 217.182Z" fill="#012615"/>
<path d="M853.109 179.504C858.284 179.504 858.284 171.249 863.453 171.255C868.627 171.255 868.617 179.515 873.786 179.521C878.965 179.521 878.971 171.264 884.145 171.273C889.314 171.273 889.308 179.527 894.478 179.532C899.647 179.532 899.652 171.276 904.821 171.287C909.995 171.287 909.99 179.542 915.159 179.547C920.333 179.547 920.333 171.293 925.503 171.302C930.676 171.302 930.67 179.556 935.839 179.562C941.557 179.562 943.321 175.937 939.756 171.5L918.964 145.585C918.117 145.728 917.232 145.824 916.299 145.824C912.59 145.824 910.358 143.706 909.025 141.969C907.688 143.706 905.46 145.824 901.751 145.824C898.048 145.824 895.815 143.706 894.477 141.969C893.14 143.706 890.907 145.824 887.198 145.824C883.494 145.824 881.262 143.708 879.924 141.972C878.592 143.709 876.359 145.824 872.655 145.824C871.722 145.824 870.843 145.728 869.996 145.585L849.197 171.433C845.627 175.867 847.386 179.498 853.109 179.504Z" fill="#012615"/>
<path d="M872.662 139.65C876.297 139.65 876.297 134.146 879.931 134.146C883.565 134.146 883.565 139.65 887.205 139.65C890.85 139.65 890.85 134.146 894.479 134.146C898.119 134.146 898.119 139.65 901.758 139.65C905.387 139.65 905.387 134.146 909.033 134.146C912.667 134.146 912.667 139.65 916.301 139.65C922.019 139.65 923.996 135.853 920.697 131.221L900.474 102.834C897.186 98.1961 891.777 98.1961 888.473 102.834L868.261 131.221C864.957 135.853 866.934 139.65 872.662 139.65Z" fill="#012615"/>
</g>
<g clip-path="url(#clip8_3994_11414)">
<path d="M1011.75 226.518C1011.63 226.308 1011.49 226.07 1011.34 225.828C1011.19 226.07 1011.04 226.305 1010.92 226.515C1009.21 229.354 1006.03 234.647 999.553 234.647C998.541 234.647 997.635 234.484 996.782 234.254V260.242H1025.88V234.257C1025.03 234.484 1024.13 234.647 1023.12 234.647C1016.64 234.647 1013.46 229.358 1011.75 226.518Z" fill="#012615"/>
<path d="M1077.34 217.182L1052.59 185.728C1047.03 185.664 1044.32 181.358 1042.87 179.033C1042.72 178.792 1042.54 178.503 1042.36 178.224C1042.17 178.501 1041.99 178.789 1041.84 179.027C1040.38 181.367 1037.64 185.722 1032.01 185.722C1026.37 185.716 1023.65 181.361 1022.19 179.022C1022.04 178.777 1021.86 178.489 1021.67 178.21C1021.49 178.486 1021.31 178.774 1021.16 179.019C1019.69 181.358 1016.96 185.707 1011.33 185.707C1005.69 185.702 1002.97 181.346 1001.5 179.004C1001.35 178.762 1001.17 178.474 1000.99 178.192C1000.81 178.474 1000.62 178.762 1000.48 179.004C999.01 181.34 996.271 185.696 990.638 185.696C985 185.69 982.277 181.332 980.812 178.989C980.662 178.748 980.481 178.46 980.3 178.184C980.124 178.457 979.943 178.745 979.794 178.986C978.339 181.302 975.637 185.585 970.116 185.667L945.321 217.182C941.809 221.657 943.6 225.317 949.323 225.317C955.526 225.317 958.313 218.884 964.201 218.884C970.096 218.884 970.096 228.69 975.984 228.69C981.877 228.69 981.877 218.884 987.766 218.884C993.66 218.884 993.66 228.69 999.549 228.69C1005.44 228.69 1005.44 218.884 1011.33 218.884C1017.22 218.884 1017.22 228.69 1023.11 228.69C1029.01 228.69 1029.01 218.884 1034.89 218.884C1040.79 218.884 1040.79 228.69 1046.67 228.69C1052.56 228.69 1052.56 218.884 1058.45 218.884C1064.34 218.884 1067.14 225.317 1073.33 225.317C1079.06 225.317 1080.85 221.657 1077.34 217.182Z" fill="#012615"/>
<path d="M969.967 179.504C975.141 179.504 975.141 171.249 980.31 171.255C985.485 171.255 985.474 179.515 990.643 179.521C995.823 179.521 995.828 171.264 1001 171.273C1006.17 171.273 1006.17 179.527 1011.34 179.532C1016.5 179.532 1016.51 171.276 1021.68 171.287C1026.85 171.287 1026.85 179.542 1032.02 179.547C1037.19 179.547 1037.19 171.293 1042.36 171.302C1047.53 171.302 1047.53 179.556 1052.7 179.562C1058.41 179.562 1060.18 175.937 1056.61 171.5L1035.82 145.585C1034.97 145.728 1034.09 145.824 1033.16 145.824C1029.45 145.824 1027.22 143.706 1025.88 141.969C1024.55 143.706 1022.32 145.824 1018.61 145.824C1014.91 145.824 1012.67 143.706 1011.33 141.969C1010 143.706 1007.76 145.824 1004.06 145.824C1000.35 145.824 998.119 143.708 996.781 141.972C995.449 143.709 993.216 145.824 989.513 145.824C988.58 145.824 987.701 145.728 986.854 145.585L966.055 171.433C962.485 175.867 964.243 179.498 969.967 179.504Z" fill="#012615"/>
<path d="M989.516 139.65C993.15 139.65 993.15 134.146 996.784 134.146C1000.42 134.146 1000.42 139.65 1004.06 139.65C1007.7 139.65 1007.7 134.146 1011.33 134.146C1014.97 134.146 1014.97 139.65 1018.61 139.65C1022.24 139.65 1022.24 134.146 1025.89 134.146C1029.52 134.146 1029.52 139.65 1033.15 139.65C1038.87 139.65 1040.85 135.853 1037.55 131.221L1017.33 102.834C1014.04 98.1961 1008.63 98.1961 1005.33 102.834L985.114 131.221C981.81 135.853 983.787 139.65 989.516 139.65Z" fill="#012615"/>
</g>
<g clip-path="url(#clip9_3994_11414)">
<path d="M1128.94 229.518C1128.82 229.308 1128.67 229.07 1128.52 228.828C1128.38 229.07 1128.23 229.305 1128.11 229.515C1126.4 232.354 1123.22 237.647 1116.74 237.647C1115.73 237.647 1114.82 237.484 1113.97 237.254V263.242H1143.07V237.257C1142.21 237.484 1141.31 237.647 1140.31 237.647C1133.83 237.647 1130.65 232.358 1128.94 229.518Z" fill="#012615"/>
<path d="M1194.53 220.182L1169.78 188.728C1164.22 188.664 1161.51 184.358 1160.06 182.033C1159.91 181.792 1159.73 181.503 1159.55 181.224C1159.37 181.501 1159.19 181.789 1159.04 182.027C1157.57 184.367 1154.84 188.722 1149.2 188.722C1143.57 188.716 1140.84 184.361 1139.38 182.022C1139.23 181.777 1139.05 181.489 1138.87 181.21C1138.68 181.486 1138.5 181.774 1138.35 182.019C1136.88 184.358 1134.15 188.707 1128.52 188.707C1122.88 188.702 1120.16 184.346 1118.7 182.004C1118.55 181.762 1118.37 181.474 1118.18 181.192C1118 181.474 1117.82 181.762 1117.67 182.004C1116.2 184.34 1113.46 188.696 1107.83 188.696C1102.19 188.69 1099.47 184.332 1098 181.989C1097.85 181.748 1097.67 181.46 1097.49 181.184C1097.32 181.457 1097.13 181.745 1096.99 181.986C1095.53 184.302 1092.83 188.585 1087.31 188.667L1062.51 220.182C1059 224.657 1060.79 228.317 1066.51 228.317C1072.72 228.317 1075.5 221.884 1081.39 221.884C1087.29 221.884 1087.29 231.69 1093.18 231.69C1099.07 231.69 1099.07 221.884 1104.96 221.884C1110.85 221.884 1110.85 231.69 1116.74 231.69C1122.63 231.69 1122.63 221.884 1128.52 221.884C1134.42 221.884 1134.42 231.69 1140.3 231.69C1146.2 231.69 1146.2 221.884 1152.08 221.884C1157.98 221.884 1157.98 231.69 1163.86 231.69C1169.75 231.69 1169.75 221.884 1175.64 221.884C1181.53 221.884 1184.33 228.317 1190.53 228.317C1196.25 228.317 1198.05 224.657 1194.53 220.182Z" fill="#012615"/>
<path d="M1087.16 182.504C1092.33 182.504 1092.33 174.249 1097.5 174.255C1102.68 174.255 1102.67 182.515 1107.83 182.521C1113.01 182.521 1113.02 174.264 1118.19 174.273C1123.36 174.273 1123.36 182.527 1128.53 182.532C1133.7 182.532 1133.7 174.276 1138.87 174.287C1144.04 174.287 1144.04 182.542 1149.21 182.547C1154.38 182.547 1154.38 174.293 1159.55 174.302C1164.72 174.302 1164.72 182.556 1169.89 182.562C1175.61 182.562 1177.37 178.937 1173.8 174.5L1153.01 148.585C1152.17 148.728 1151.28 148.824 1150.35 148.824C1146.64 148.824 1144.41 146.706 1143.07 144.969C1141.74 146.706 1139.51 148.824 1135.8 148.824C1132.1 148.824 1129.86 146.706 1128.53 144.969C1127.19 146.706 1124.96 148.824 1121.25 148.824C1117.54 148.824 1115.31 146.708 1113.97 144.972C1112.64 146.709 1110.41 148.824 1106.7 148.824C1105.77 148.824 1104.89 148.728 1104.04 148.585L1083.25 174.433C1079.68 178.867 1081.43 182.498 1087.16 182.504Z" fill="#012615"/>
<path d="M1106.71 142.65C1110.34 142.65 1110.34 137.146 1113.98 137.146C1117.61 137.146 1117.61 142.65 1121.25 142.65C1124.9 142.65 1124.9 137.146 1128.53 137.146C1132.17 137.146 1132.17 142.65 1135.81 142.65C1139.43 142.65 1139.43 137.146 1143.08 137.146C1146.71 137.146 1146.71 142.65 1150.35 142.65C1156.07 142.65 1158.04 138.853 1154.74 134.221L1134.52 105.834C1131.23 101.196 1125.82 101.196 1122.52 105.834L1102.31 134.221C1099 138.853 1100.98 142.65 1106.71 142.65Z" fill="#012615"/>
</g>
<g clip-path="url(#clip10_3994_11414)">
<path d="M1012.09 229.518C1011.97 229.308 1011.82 229.07 1011.67 228.828C1011.52 229.07 1011.38 229.305 1011.26 229.515C1009.55 232.354 1006.37 237.647 999.89 237.647C998.878 237.647 997.972 237.484 997.119 237.254V263.242H1026.22V237.257C1025.36 237.484 1024.46 237.647 1023.45 237.647C1016.97 237.647 1013.8 232.358 1012.09 229.518Z" fill="#012615"/>
<path d="M1077.68 220.182L1052.93 188.728C1047.37 188.664 1044.66 184.358 1043.21 182.033C1043.06 181.792 1042.88 181.503 1042.7 181.224C1042.52 181.501 1042.34 181.789 1042.19 182.027C1040.72 184.367 1037.99 188.722 1032.35 188.722C1026.72 188.716 1023.99 184.361 1022.53 182.022C1022.38 181.777 1022.2 181.489 1022.02 181.21C1021.83 181.486 1021.65 181.774 1021.5 182.019C1020.03 184.358 1017.3 188.707 1011.67 188.707C1006.03 188.702 1003.31 184.346 1001.85 182.004C1001.7 181.762 1001.52 181.474 1001.33 181.192C1001.15 181.474 1000.97 181.762 1000.82 182.004C999.352 184.34 996.613 188.696 990.98 188.696C985.342 188.69 982.619 184.332 981.153 181.989C981.004 181.748 980.823 181.46 980.642 181.184C980.466 181.457 980.285 181.745 980.135 181.986C978.68 184.302 975.979 188.585 970.458 188.667L945.663 220.182C942.151 224.657 943.942 228.317 949.665 228.317C955.868 228.317 958.655 221.884 964.543 221.884C970.437 221.884 970.437 231.69 976.326 231.69C982.219 231.69 982.219 221.884 988.108 221.884C994.002 221.884 994.002 231.69 999.89 231.69C1005.78 231.69 1005.78 221.884 1011.67 221.884C1017.57 221.884 1017.57 231.69 1023.46 231.69C1029.35 231.69 1029.35 221.884 1035.23 221.884C1041.13 221.884 1041.13 231.69 1047.01 231.69C1052.9 231.69 1052.9 221.884 1058.79 221.884C1064.68 221.884 1067.48 228.317 1073.68 228.317C1079.4 228.317 1081.2 224.657 1077.68 220.182Z" fill="#012615"/>
<path d="M970.307 182.504C975.481 182.504 975.481 174.249 980.65 174.255C985.824 174.255 985.814 182.515 990.983 182.521C996.162 182.521 996.168 174.264 1001.34 174.273C1006.51 174.273 1006.51 182.527 1011.67 182.532C1016.84 182.532 1016.85 174.276 1022.02 174.287C1027.19 174.287 1027.19 182.542 1032.36 182.547C1037.53 182.547 1037.53 174.293 1042.7 174.302C1047.87 174.302 1047.87 182.556 1053.04 182.562C1058.75 182.562 1060.52 178.937 1056.95 174.5L1036.16 148.585C1035.31 148.728 1034.43 148.824 1033.5 148.824C1029.79 148.824 1027.55 146.706 1026.22 144.969C1024.89 146.706 1022.66 148.824 1018.95 148.824C1015.25 148.824 1013.01 146.706 1011.67 144.969C1010.34 146.706 1008.1 148.824 1004.4 148.824C1000.69 148.824 998.459 146.708 997.121 144.972C995.789 146.709 993.556 148.824 989.852 148.824C988.92 148.824 988.041 148.728 987.193 148.585L966.394 174.433C962.825 178.867 964.583 182.498 970.307 182.504Z" fill="#012615"/>
<path d="M989.854 142.65C993.488 142.65 993.488 137.146 997.122 137.146C1000.76 137.146 1000.76 142.65 1004.4 142.65C1008.04 142.65 1008.04 137.146 1011.67 137.146C1015.31 137.146 1015.31 142.65 1018.95 142.65C1022.58 142.65 1022.58 137.146 1026.22 137.146C1029.86 137.146 1029.86 142.65 1033.49 142.65C1039.21 142.65 1041.19 138.853 1037.89 134.221L1017.67 105.834C1014.38 101.196 1008.97 101.196 1005.66 105.834L985.452 134.221C982.148 138.853 984.125 142.65 989.854 142.65Z" fill="#012615"/>
</g>
<g clip-path="url(#clip11_3994_11414)">
<path d="M1238.45 225.732C1238.32 225.499 1238.16 225.234 1237.99 224.965C1237.83 225.234 1237.67 225.496 1237.53 225.729C1235.64 228.887 1232.12 234.774 1224.94 234.774C1223.81 234.774 1222.81 234.592 1221.87 234.336V263.242H1254.11V234.34C1253.16 234.593 1252.16 234.774 1251.05 234.774C1243.87 234.774 1240.35 228.891 1238.45 225.732Z" fill="#012615"/>
<path d="M1311.12 215.346L1283.7 180.36C1277.54 180.289 1274.54 175.499 1272.93 172.914C1272.77 172.645 1272.56 172.325 1272.36 172.014C1272.16 172.322 1271.96 172.642 1271.8 172.907C1270.17 175.509 1267.14 180.354 1260.9 180.354C1254.66 180.347 1251.64 175.503 1250.01 172.901C1249.85 172.629 1249.65 172.309 1249.45 171.998C1249.24 172.305 1249.05 172.626 1248.88 172.897C1247.25 175.499 1244.22 180.337 1237.99 180.337C1231.74 180.331 1228.72 175.486 1227.1 172.881C1226.93 172.613 1226.73 172.292 1226.53 171.978C1226.33 172.292 1226.12 172.613 1225.96 172.881C1224.34 175.48 1221.3 180.324 1215.06 180.324C1208.81 180.318 1205.8 175.47 1204.17 172.865C1204.01 172.596 1203.81 172.276 1203.6 171.969C1203.41 172.273 1203.21 172.593 1203.04 172.862C1201.43 175.438 1198.44 180.202 1192.32 180.292L1164.85 215.346C1160.96 220.323 1162.94 224.395 1169.28 224.395C1176.15 224.395 1179.24 217.239 1185.77 217.239C1192.3 217.239 1192.3 228.146 1198.82 228.146C1205.35 228.146 1205.35 217.239 1211.88 217.239C1218.41 217.239 1218.41 228.146 1224.93 228.146C1231.46 228.146 1231.46 217.239 1237.99 217.239C1244.52 217.239 1244.52 228.146 1251.04 228.146C1257.57 228.146 1257.57 217.239 1264.09 217.239C1270.63 217.239 1270.63 228.146 1277.14 228.146C1283.67 228.146 1283.67 217.239 1290.19 217.239C1296.72 217.239 1299.82 224.395 1306.69 224.395C1313.03 224.394 1315.02 220.323 1311.12 215.346Z" fill="#012615"/>
<path d="M1192.16 173.437C1197.89 173.437 1197.89 164.256 1203.62 164.262C1209.35 164.262 1209.34 173.45 1215.07 173.456C1220.8 173.456 1220.81 164.272 1226.54 164.282C1232.27 164.282 1232.26 173.463 1237.99 173.469C1243.72 173.469 1243.73 164.285 1249.45 164.298C1255.19 164.298 1255.18 173.479 1260.91 173.485C1266.64 173.485 1266.64 164.304 1272.37 164.314C1278.1 164.314 1278.09 173.495 1283.82 173.502C1290.16 173.502 1292.11 169.469 1288.16 164.535L1265.12 135.71C1264.18 135.869 1263.2 135.975 1262.17 135.975C1258.06 135.975 1255.59 133.619 1254.11 131.688C1252.63 133.62 1250.16 135.975 1246.05 135.975C1241.95 135.975 1239.47 133.619 1237.99 131.688C1236.51 133.62 1234.04 135.975 1229.93 135.975C1225.82 135.975 1223.35 133.622 1221.87 131.691C1220.39 133.623 1217.92 135.975 1213.81 135.975C1212.78 135.975 1211.81 135.869 1210.87 135.71L1187.82 164.46C1183.87 169.391 1185.81 173.43 1192.16 173.437Z" fill="#012615"/>
<path d="M1213.82 129.108C1217.84 129.108 1217.84 122.985 1221.87 122.985C1225.9 122.985 1225.9 129.108 1229.93 129.108C1233.97 129.108 1233.97 122.985 1237.99 122.985C1242.02 122.985 1242.02 129.108 1246.06 129.108C1250.08 129.108 1250.08 122.985 1254.12 122.985C1258.14 122.985 1258.14 129.108 1262.17 129.108C1268.5 129.108 1270.7 124.885 1267.04 119.733L1244.63 88.1577C1240.99 82.9995 1235 82.9995 1231.34 88.1577L1208.94 119.733C1205.28 124.885 1207.47 129.108 1213.82 129.108Z" fill="#012615"/>
</g>
<g clip-path="url(#clip12_3994_11414)">
<path d="M1343.99 220.407C1343.84 220.141 1343.65 219.838 1343.46 219.531C1343.27 219.838 1343.09 220.138 1342.94 220.403C1340.77 224.01 1336.73 230.732 1328.5 230.732C1327.21 230.732 1326.06 230.525 1324.98 230.233V263.242H1361.94V230.238C1360.85 230.526 1359.71 230.733 1358.43 230.733C1350.2 230.733 1346.16 224.014 1343.99 220.407Z" fill="#012615"/>
<path d="M1427.3 208.547L1395.86 168.594C1388.8 168.513 1385.37 163.043 1383.52 160.091C1383.33 159.784 1383.1 159.418 1382.87 159.064C1382.64 159.415 1382.41 159.78 1382.22 160.083C1380.36 163.055 1376.88 168.587 1369.73 168.587C1362.57 168.579 1359.11 163.047 1357.25 160.076C1357.06 159.766 1356.83 159.4 1356.6 159.045C1356.36 159.396 1356.14 159.762 1355.94 160.072C1354.08 163.043 1350.61 168.568 1343.46 168.568C1336.3 168.561 1332.84 163.028 1330.98 160.053C1330.79 159.747 1330.56 159.381 1330.33 159.022C1330.09 159.381 1329.86 159.747 1329.67 160.053C1327.81 163.021 1324.33 168.553 1317.18 168.553C1310.02 168.546 1306.56 163.01 1304.7 160.035C1304.51 159.729 1304.28 159.363 1304.05 159.012C1303.82 159.359 1303.59 159.725 1303.4 160.032C1301.55 162.973 1298.12 168.413 1291.11 168.517L1259.62 208.547C1255.16 214.231 1257.43 218.88 1264.7 218.88C1272.58 218.88 1276.12 210.709 1283.6 210.709C1291.08 210.709 1291.08 223.163 1298.56 223.163C1306.05 223.163 1306.05 210.709 1313.53 210.709C1321.02 210.709 1321.02 223.163 1328.49 223.163C1335.98 223.163 1335.98 210.709 1343.46 210.709C1350.95 210.709 1350.95 223.163 1358.43 223.163C1365.91 223.163 1365.91 210.709 1373.38 210.709C1380.88 210.709 1380.88 223.163 1388.34 223.163C1395.83 223.163 1395.83 210.709 1403.31 210.709C1410.79 210.709 1414.34 218.88 1422.22 218.88C1429.49 218.879 1431.77 214.231 1427.3 208.547Z" fill="#012615"/>
<path d="M1290.92 160.691C1297.49 160.691 1297.49 150.207 1304.06 150.214C1310.63 150.214 1310.61 160.706 1317.18 160.713C1323.76 160.713 1323.77 150.225 1330.34 150.237C1336.9 150.237 1336.9 160.721 1343.46 160.728C1350.03 160.728 1350.04 150.241 1356.6 150.255C1363.17 150.255 1363.17 160.74 1369.73 160.747C1376.3 160.747 1376.3 150.262 1382.87 150.274C1389.44 150.274 1389.43 160.758 1396 160.766C1403.26 160.766 1405.5 156.161 1400.97 150.526L1374.56 117.609C1373.49 117.79 1372.36 117.912 1371.18 117.912C1366.47 117.912 1363.63 115.222 1361.94 113.016C1360.24 115.222 1357.41 117.912 1352.7 117.912C1348 117.912 1345.16 115.222 1343.46 113.016C1341.76 115.222 1338.93 117.912 1334.22 117.912C1329.51 117.912 1326.68 115.225 1324.98 113.019C1323.28 115.226 1320.45 117.912 1315.74 117.912C1314.56 117.912 1313.44 117.79 1312.37 117.609L1285.95 150.441C1281.41 156.072 1283.65 160.684 1290.92 160.691Z" fill="#012615"/>
<path d="M1315.75 110.068C1320.37 110.068 1320.37 103.076 1324.98 103.076C1329.6 103.076 1329.6 110.068 1334.22 110.068C1338.85 110.068 1338.85 103.076 1343.46 103.076C1348.08 103.076 1348.08 110.068 1352.71 110.068C1357.32 110.068 1357.32 103.076 1361.95 103.076C1366.56 103.076 1366.56 110.068 1371.18 110.068C1378.44 110.068 1380.95 105.246 1376.76 99.3619L1351.08 63.3045C1346.9 57.4141 1340.03 57.4141 1335.83 63.3045L1310.16 99.3619C1305.96 105.246 1308.47 110.068 1315.75 110.068Z" fill="#012615"/>
</g>
<g clip-path="url(#clip13_3994_11414)">
<path d="M1481.41 223.414C1481.2 223.05 1480.95 222.638 1480.69 222.219C1480.44 222.638 1480.19 223.046 1479.97 223.409C1477.03 228.331 1471.54 237.504 1460.35 237.504C1458.6 237.504 1457.04 237.222 1455.56 236.823V281.869H1505.81V236.829C1504.33 237.222 1502.78 237.505 1501.04 237.505C1489.85 237.505 1484.36 228.336 1481.41 223.414Z" fill="#012615"/>
<path d="M1594.66 207.235L1551.92 152.713C1542.32 152.603 1537.65 145.138 1535.14 141.11C1534.88 140.691 1534.57 140.191 1534.26 139.708C1533.94 140.187 1533.63 140.686 1533.37 141.099C1530.84 145.154 1526.12 152.703 1516.4 152.703C1506.66 152.693 1501.96 145.144 1499.43 141.089C1499.17 140.666 1498.86 140.167 1498.54 139.682C1498.22 140.161 1497.92 140.661 1497.65 141.084C1495.12 145.138 1490.4 152.678 1480.68 152.678C1470.95 152.668 1466.25 145.118 1463.72 141.058C1463.46 140.64 1463.15 140.141 1462.83 139.651C1462.51 140.141 1462.2 140.64 1461.94 141.058C1459.41 145.108 1454.68 152.658 1444.96 152.658C1435.22 152.647 1430.52 145.093 1427.99 141.033C1427.73 140.615 1427.42 140.115 1427.1 139.637C1426.8 140.111 1426.49 140.61 1426.23 141.028C1423.72 145.043 1419.05 152.466 1409.52 152.607L1366.71 207.235C1360.64 214.991 1363.73 221.335 1373.62 221.335C1384.33 221.335 1389.14 210.185 1399.31 210.185C1409.48 210.185 1409.48 227.18 1419.65 227.18C1429.83 227.18 1429.83 210.185 1440 210.185C1450.17 210.185 1450.17 227.18 1460.34 227.18C1470.52 227.18 1470.52 210.185 1480.69 210.185C1490.86 210.185 1490.86 227.18 1501.03 227.18C1511.21 227.18 1511.21 210.185 1521.36 210.185C1531.55 210.185 1531.55 227.18 1541.7 227.18C1551.87 227.18 1551.87 210.185 1562.04 210.185C1572.22 210.185 1577.05 221.335 1587.75 221.335C1597.63 221.334 1600.73 214.991 1594.66 207.235Z" fill="#012615"/>
<path d="M1409.26 141.924C1418.2 141.924 1418.2 127.616 1427.12 127.626C1436.06 127.626 1436.04 141.944 1444.96 141.954C1453.91 141.954 1453.92 127.641 1462.85 127.656C1471.78 127.656 1471.77 141.964 1480.69 141.974C1489.62 141.974 1489.63 127.662 1498.55 127.682C1507.49 127.682 1507.48 141.989 1516.4 141.999C1525.34 141.999 1525.34 127.692 1534.26 127.707C1543.19 127.707 1543.19 142.015 1552.11 142.025C1561.98 142.025 1565.03 135.741 1558.87 128.051L1522.97 83.1319C1521.51 83.3792 1519.98 83.5453 1518.37 83.5453C1511.97 83.5453 1508.11 79.8737 1505.81 76.8633C1503.5 79.8742 1499.66 83.5453 1493.25 83.5453C1486.86 83.5453 1483 79.8737 1480.69 76.8633C1478.38 79.8742 1474.53 83.5453 1468.12 83.5453C1461.73 83.5453 1457.87 79.8786 1455.56 76.8682C1453.26 79.8791 1449.41 83.5453 1443.01 83.5453C1441.4 83.5453 1439.88 83.3792 1438.42 83.1319L1402.51 127.935C1396.34 135.62 1399.38 141.913 1409.26 141.924Z" fill="#012615"/>
<path d="M1443.02 72.8444C1449.3 72.8444 1449.3 63.3029 1455.57 63.3029C1461.85 63.3029 1461.85 72.8444 1468.13 72.8444C1474.43 72.8444 1474.43 63.3029 1480.69 63.3029C1486.98 63.3029 1486.98 72.8444 1493.26 72.8444C1499.53 72.8444 1499.53 63.3029 1505.82 63.3029C1512.1 63.3029 1512.1 72.8444 1518.37 72.8444C1528.24 72.8444 1531.66 66.2631 1525.96 58.2342L1491.04 9.02868C1485.37 0.990441 1476.03 0.990441 1470.32 9.02868L1435.42 58.2342C1429.72 66.2631 1433.13 72.8444 1443.02 72.8444Z" fill="#012615"/>
</g>
<g clip-path="url(#clip14_3994_11414)">
<path d="M1618.07 220.407C1617.91 220.141 1617.73 219.838 1617.54 219.531C1617.35 219.838 1617.17 220.138 1617.01 220.403C1614.85 224.01 1610.81 230.732 1602.58 230.732C1601.29 230.732 1600.14 230.525 1599.06 230.233V263.242H1636.02V230.238C1634.93 230.526 1633.79 230.733 1632.51 230.733C1624.28 230.733 1620.24 224.014 1618.07 220.407Z" fill="#012615"/>
<path d="M1701.38 208.547L1669.94 168.594C1662.88 168.513 1659.44 163.043 1657.59 160.091C1657.41 159.784 1657.18 159.418 1656.94 159.064C1656.71 159.415 1656.48 159.78 1656.29 160.083C1654.43 163.055 1650.96 168.587 1643.81 168.587C1636.64 168.579 1633.19 163.047 1631.33 160.076C1631.14 159.766 1630.91 159.4 1630.68 159.045C1630.44 159.396 1630.22 159.762 1630.02 160.072C1628.16 163.043 1624.69 168.568 1617.54 168.568C1610.38 168.561 1606.92 163.028 1605.06 160.053C1604.87 159.747 1604.64 159.381 1604.41 159.022C1604.17 159.381 1603.94 159.747 1603.75 160.053C1601.89 163.021 1598.41 168.553 1591.25 168.553C1584.09 168.546 1580.63 163.01 1578.77 160.035C1578.58 159.729 1578.35 159.363 1578.12 159.012C1577.9 159.359 1577.67 159.725 1577.48 160.032C1575.63 162.973 1572.2 168.413 1565.19 168.517L1533.69 208.547C1529.23 214.231 1531.51 218.88 1538.78 218.88C1546.66 218.88 1550.2 210.709 1557.67 210.709C1565.16 210.709 1565.16 223.163 1572.64 223.163C1580.13 223.163 1580.13 210.709 1587.61 210.709C1595.09 210.709 1595.09 223.163 1602.57 223.163C1610.06 223.163 1610.06 210.709 1617.54 210.709C1625.02 210.709 1625.02 223.163 1632.5 223.163C1639.99 223.163 1639.99 210.709 1647.46 210.709C1654.95 210.709 1654.95 223.163 1662.42 223.163C1669.91 223.163 1669.91 210.709 1677.38 210.709C1684.87 210.709 1688.42 218.88 1696.29 218.88C1703.56 218.879 1705.84 214.231 1701.38 208.547Z" fill="#012615"/>
<path d="M1565 160.691C1571.57 160.691 1571.57 150.207 1578.14 150.214C1584.71 150.214 1584.69 160.706 1591.26 160.713C1597.84 160.713 1597.85 150.225 1604.42 150.237C1610.98 150.237 1610.98 160.721 1617.54 160.728C1624.11 160.728 1624.12 150.241 1630.68 150.255C1637.25 150.255 1637.25 160.74 1643.81 160.747C1650.38 160.747 1650.38 150.262 1656.95 150.274C1663.52 150.274 1663.51 160.758 1670.08 160.766C1677.34 160.766 1679.58 156.161 1675.05 150.526L1648.64 117.609C1647.57 117.79 1646.44 117.912 1645.26 117.912C1640.55 117.912 1637.71 115.222 1636.02 113.016C1634.32 115.222 1631.49 117.912 1626.78 117.912C1622.08 117.912 1619.24 115.222 1617.54 113.016C1615.84 115.222 1613.01 117.912 1608.3 117.912C1603.59 117.912 1600.76 115.225 1599.06 113.019C1597.36 115.226 1594.53 117.912 1589.82 117.912C1588.64 117.912 1587.52 117.79 1586.45 117.609L1560.03 150.441C1555.49 156.072 1557.73 160.684 1565 160.691Z" fill="#012615"/>
<path d="M1589.83 110.068C1594.45 110.068 1594.45 103.076 1599.06 103.076C1603.68 103.076 1603.68 110.068 1608.3 110.068C1612.93 110.068 1612.93 103.076 1617.54 103.076C1622.17 103.076 1622.17 110.068 1626.79 110.068C1631.4 110.068 1631.4 103.076 1636.03 103.076C1640.64 103.076 1640.64 110.068 1645.26 110.068C1652.52 110.068 1655.03 105.246 1650.84 99.3619L1625.16 63.3045C1620.98 57.4141 1614.11 57.4141 1609.91 63.3045L1584.24 99.3619C1580.04 105.246 1582.56 110.068 1589.83 110.068Z" fill="#012615"/>
</g>
<g clip-path="url(#clip15_3994_11414)">
<path d="M1723.48 225.732C1723.34 225.499 1723.18 225.234 1723.02 224.965C1722.85 225.234 1722.69 225.496 1722.55 225.729C1720.66 228.887 1717.14 234.774 1709.96 234.774C1708.84 234.774 1707.83 234.592 1706.89 234.336V263.242H1739.13V234.34C1738.18 234.593 1737.19 234.774 1736.07 234.774C1728.89 234.774 1725.37 228.891 1723.48 225.732Z" fill="#012615"/>
<path d="M1796.15 215.346L1768.72 180.36C1762.56 180.289 1759.57 175.499 1757.95 172.914C1757.79 172.645 1757.59 172.325 1757.39 172.014C1757.19 172.322 1756.99 172.642 1756.82 172.907C1755.2 175.509 1752.17 180.354 1745.93 180.354C1739.68 180.347 1736.66 175.503 1735.04 172.901C1734.87 172.629 1734.67 172.309 1734.47 171.998C1734.26 172.305 1734.07 172.626 1733.9 172.897C1732.28 175.499 1729.25 180.337 1723.01 180.337C1716.76 180.331 1713.75 175.486 1712.12 172.881C1711.96 172.613 1711.76 172.292 1711.56 171.978C1711.35 172.292 1711.15 172.613 1710.98 172.881C1709.36 175.48 1706.32 180.324 1700.08 180.324C1693.84 180.318 1690.82 175.47 1689.19 172.865C1689.03 172.596 1688.83 172.276 1688.63 171.969C1688.43 172.273 1688.23 172.593 1688.07 172.862C1686.45 175.438 1683.46 180.202 1677.34 180.292L1649.87 215.346C1645.98 220.323 1647.96 224.395 1654.3 224.395C1661.18 224.395 1664.27 217.239 1670.79 217.239C1677.32 217.239 1677.32 228.146 1683.85 228.146C1690.38 228.146 1690.38 217.239 1696.9 217.239C1703.43 217.239 1703.43 228.146 1709.96 228.146C1716.49 228.146 1716.49 217.239 1723.01 217.239C1729.54 217.239 1729.54 228.146 1736.07 228.146C1742.6 228.146 1742.6 217.239 1749.12 217.239C1755.65 217.239 1755.65 228.146 1762.16 228.146C1768.69 228.146 1768.69 217.239 1775.22 217.239C1781.75 217.239 1784.85 224.395 1791.71 224.395C1798.05 224.394 1800.04 220.323 1796.15 215.346Z" fill="#012615"/>
<path d="M1677.17 173.437C1682.91 173.437 1682.91 164.256 1688.63 164.262C1694.37 164.262 1694.36 173.45 1700.08 173.456C1705.82 173.456 1705.83 164.272 1711.56 164.282C1717.29 164.282 1717.28 173.463 1723.01 173.469C1728.74 173.469 1728.74 164.285 1734.47 164.298C1740.2 164.298 1740.2 173.479 1745.93 173.485C1751.66 173.485 1751.66 164.304 1757.39 164.314C1763.12 164.314 1763.11 173.495 1768.84 173.502C1775.18 173.502 1777.13 169.469 1773.18 164.535L1750.14 135.71C1749.2 135.869 1748.22 135.975 1747.19 135.975C1743.08 135.975 1740.61 133.619 1739.13 131.688C1737.65 133.62 1735.18 135.975 1731.07 135.975C1726.97 135.975 1724.49 133.619 1723.01 131.688C1721.53 133.62 1719.05 135.975 1714.94 135.975C1710.84 135.975 1708.37 133.622 1706.89 131.691C1705.41 133.623 1702.93 135.975 1698.83 135.975C1697.8 135.975 1696.82 135.869 1695.88 135.71L1672.84 164.46C1668.88 169.391 1670.83 173.43 1677.17 173.437Z" fill="#012615"/>
<path d="M1698.84 129.108C1702.87 129.108 1702.87 122.985 1706.9 122.985C1710.92 122.985 1710.92 129.108 1714.96 129.108C1718.99 129.108 1718.99 122.985 1723.02 122.985C1727.05 122.985 1727.05 129.108 1731.08 129.108C1735.1 129.108 1735.1 122.985 1739.14 122.985C1743.17 122.985 1743.17 129.108 1747.19 129.108C1753.53 129.108 1755.72 124.885 1752.07 119.733L1729.66 88.1577C1726.01 82.9995 1720.02 82.9995 1716.36 88.1577L1693.96 119.733C1690.3 124.885 1692.49 129.108 1698.84 129.108Z" fill="#012615"/>
</g>
<g clip-path="url(#clip16_3994_11414)">
<path d="M1832.89 229.518C1832.77 229.308 1832.62 229.07 1832.48 228.828C1832.33 229.07 1832.18 229.305 1832.06 229.515C1830.35 232.354 1827.17 237.647 1820.69 237.647C1819.68 237.647 1818.77 237.484 1817.92 237.254V263.242H1847.02V237.257C1846.17 237.484 1845.26 237.647 1844.26 237.647C1837.78 237.647 1834.6 232.358 1832.89 229.518Z" fill="#012615"/>
<path d="M1898.48 220.182L1873.73 188.728C1868.17 188.664 1865.46 184.358 1864.01 182.033C1863.86 181.792 1863.68 181.503 1863.5 181.224C1863.32 181.501 1863.14 181.789 1862.99 182.027C1861.52 184.367 1858.79 188.722 1853.15 188.722C1847.52 188.716 1844.79 184.361 1843.33 182.022C1843.18 181.777 1843 181.489 1842.82 181.21C1842.63 181.486 1842.45 181.774 1842.3 182.019C1840.83 184.358 1838.1 188.707 1832.47 188.707C1826.84 188.702 1824.11 184.346 1822.65 182.004C1822.5 181.762 1822.32 181.474 1822.13 181.192C1821.95 181.474 1821.77 181.762 1821.62 182.004C1820.15 184.34 1817.41 188.696 1811.78 188.696C1806.14 188.69 1803.42 184.332 1801.95 181.989C1801.81 181.748 1801.62 181.46 1801.44 181.184C1801.27 181.457 1801.09 181.745 1800.94 181.986C1799.48 184.302 1796.78 188.585 1791.26 188.667L1766.46 220.182C1762.95 224.657 1764.74 228.317 1770.47 228.317C1776.67 228.317 1779.46 221.884 1785.34 221.884C1791.24 221.884 1791.24 231.69 1797.13 231.69C1803.02 231.69 1803.02 221.884 1808.91 221.884C1814.8 221.884 1814.8 231.69 1820.69 231.69C1826.58 231.69 1826.58 221.884 1832.47 221.884C1838.37 221.884 1838.37 231.69 1844.26 231.69C1850.15 231.69 1850.15 221.884 1856.03 221.884C1861.93 221.884 1861.93 231.69 1867.81 231.69C1873.7 231.69 1873.7 221.884 1879.59 221.884C1885.48 221.884 1888.28 228.317 1894.48 228.317C1900.2 228.317 1902 224.657 1898.48 220.182Z" fill="#012615"/>
<path d="M1791.11 182.504C1796.28 182.504 1796.28 174.249 1801.45 174.255C1806.63 174.255 1806.62 182.515 1811.79 182.521C1816.97 182.521 1816.97 174.264 1822.14 174.273C1827.31 174.273 1827.31 182.527 1832.48 182.532C1837.65 182.532 1837.65 174.276 1842.82 174.287C1848 174.287 1847.99 182.542 1853.16 182.547C1858.33 182.547 1858.33 174.293 1863.5 174.302C1868.68 174.302 1868.67 182.556 1873.84 182.562C1879.56 182.562 1881.32 178.937 1877.76 174.5L1856.96 148.585C1856.12 148.728 1855.23 148.824 1854.3 148.824C1850.59 148.824 1848.36 146.706 1847.03 144.969C1845.69 146.706 1843.46 148.824 1839.75 148.824C1836.05 148.824 1833.81 146.706 1832.48 144.969C1831.14 146.706 1828.91 148.824 1825.2 148.824C1821.49 148.824 1819.26 146.708 1817.92 144.972C1816.59 146.709 1814.36 148.824 1810.66 148.824C1809.72 148.824 1808.84 148.728 1808 148.585L1787.2 174.433C1783.63 178.867 1785.39 182.498 1791.11 182.504Z" fill="#012615"/>
<path d="M1810.66 142.65C1814.3 142.65 1814.3 137.146 1817.93 137.146C1821.57 137.146 1821.57 142.65 1825.21 142.65C1828.85 142.65 1828.85 137.146 1832.48 137.146C1836.12 137.146 1836.12 142.65 1839.76 142.65C1843.39 142.65 1843.39 137.146 1847.03 137.146C1850.67 137.146 1850.67 142.65 1854.3 142.65C1860.02 142.65 1862 138.853 1858.7 134.221L1838.47 105.834C1835.19 101.196 1829.78 101.196 1826.47 105.834L1806.26 134.221C1802.96 138.853 1804.93 142.65 1810.66 142.65Z" fill="#012615"/>
</g>
<g clip-path="url(#clip17_3994_11414)">
<path d="M1949.75 229.518C1949.63 229.308 1949.49 229.07 1949.34 228.828C1949.19 229.07 1949.04 229.305 1948.92 229.515C1947.21 232.354 1944.03 237.647 1937.55 237.647C1936.54 237.647 1935.63 237.484 1934.78 237.254V263.242H1963.88V237.257C1963.03 237.484 1962.13 237.647 1961.12 237.647C1954.64 237.647 1951.46 232.358 1949.75 229.518Z" fill="#012615"/>
<path d="M2015.34 220.182L1990.59 188.728C1985.03 188.664 1982.32 184.358 1980.87 182.033C1980.72 181.792 1980.54 181.503 1980.36 181.224C1980.17 181.501 1979.99 181.789 1979.84 182.027C1978.38 184.367 1975.64 188.722 1970.01 188.722C1964.37 188.716 1961.65 184.361 1960.19 182.022C1960.04 181.777 1959.86 181.489 1959.67 181.21C1959.49 181.486 1959.31 181.774 1959.16 182.019C1957.69 184.358 1954.96 188.707 1949.33 188.707C1943.69 188.702 1940.97 184.346 1939.5 182.004C1939.35 181.762 1939.17 181.474 1938.99 181.192C1938.81 181.474 1938.62 181.762 1938.48 182.004C1937.01 184.34 1934.27 188.696 1928.64 188.696C1923 188.69 1920.28 184.332 1918.81 181.989C1918.66 181.748 1918.48 181.46 1918.3 181.184C1918.12 181.457 1917.94 181.745 1917.79 181.986C1916.34 184.302 1913.64 188.585 1908.12 188.667L1883.32 220.182C1879.81 224.657 1881.6 228.317 1887.32 228.317C1893.53 228.317 1896.31 221.884 1902.2 221.884C1908.1 221.884 1908.1 231.69 1913.98 231.69C1919.88 231.69 1919.88 221.884 1925.77 221.884C1931.66 221.884 1931.66 231.69 1937.55 231.69C1943.44 231.69 1943.44 221.884 1949.33 221.884C1955.22 221.884 1955.22 231.69 1961.11 231.69C1967.01 231.69 1967.01 221.884 1972.89 221.884C1978.79 221.884 1978.79 231.69 1984.67 231.69C1990.56 231.69 1990.56 221.884 1996.45 221.884C2002.34 221.884 2005.14 228.317 2011.33 228.317C2017.06 228.317 2018.85 224.657 2015.34 220.182Z" fill="#012615"/>
<path d="M1907.97 182.504C1913.14 182.504 1913.14 174.249 1918.31 174.255C1923.48 174.255 1923.47 182.515 1928.64 182.521C1933.82 182.521 1933.83 174.264 1939 174.273C1944.17 174.273 1944.17 182.527 1949.34 182.532C1954.5 182.532 1954.51 174.276 1959.68 174.287C1964.85 174.287 1964.85 182.542 1970.02 182.547C1975.19 182.547 1975.19 174.293 1980.36 174.302C1985.53 174.302 1985.53 182.556 1990.7 182.562C1996.41 182.562 1998.18 178.937 1994.61 174.5L1973.82 148.585C1972.97 148.728 1972.09 148.824 1971.16 148.824C1967.45 148.824 1965.22 146.706 1963.88 144.969C1962.55 146.706 1960.32 148.824 1956.61 148.824C1952.91 148.824 1950.67 146.706 1949.33 144.969C1948 146.706 1945.76 148.824 1942.06 148.824C1938.35 148.824 1936.12 146.708 1934.78 144.972C1933.45 146.709 1931.22 148.824 1927.51 148.824C1926.58 148.824 1925.7 148.728 1924.85 148.585L1904.05 174.433C1900.48 178.867 1902.24 182.498 1907.97 182.504Z" fill="#012615"/>
<path d="M1927.52 142.65C1931.15 142.65 1931.15 137.146 1934.78 137.146C1938.42 137.146 1938.42 142.65 1942.06 142.65C1945.7 142.65 1945.7 137.146 1949.33 137.146C1952.97 137.146 1952.97 142.65 1956.61 142.65C1960.24 142.65 1960.24 137.146 1963.89 137.146C1967.52 137.146 1967.52 142.65 1971.15 142.65C1976.87 142.65 1978.85 138.853 1975.55 134.221L1955.33 105.834C1952.04 101.196 1946.63 101.196 1943.33 105.834L1923.11 134.221C1919.81 138.853 1921.79 142.65 1927.52 142.65Z" fill="#012615"/>
</g>
<defs>
<clipPath id="clip0_3994_11414">
<rect width="147.339" height="160.887" fill="white" transform="translate(116.854 99.3555)"/>
</clipPath>
<clipPath id="clip1_3994_11414">
<rect width="147.339" height="160.887" fill="white" transform="translate(0 99.3555)"/>
</clipPath>
<clipPath id="clip2_3994_11414">
<rect width="163.254" height="178.952" fill="white" transform="translate(218.361 81.2891)"/>
</clipPath>
<clipPath id="clip3_3994_11414">
<rect width="187.146" height="204.355" fill="white" transform="translate(311.887 55.8867)"/>
</clipPath>
<clipPath id="clip4_3994_11414">
<rect width="254.409" height="278.871" fill="white" transform="translate(415.484)"/>
</clipPath>
<clipPath id="clip5_3994_11414">
<rect width="187.146" height="204.355" fill="white" transform="translate(585.969 55.8867)"/>
</clipPath>
<clipPath id="clip6_3994_11414">
<rect width="163.254" height="178.952" fill="white" transform="translate(703.386 81.2891)"/>
</clipPath>
<clipPath id="clip7_3994_11414">
<rect width="147.339" height="160.887" fill="white" transform="translate(820.808 99.3555)"/>
</clipPath>
<clipPath id="clip8_3994_11414">
<rect width="147.339" height="160.887" fill="white" transform="translate(937.661 99.3555)"/>
</clipPath>
<clipPath id="clip9_3994_11414">
<rect width="147.339" height="160.887" fill="white" transform="translate(1054.85 102.355)"/>
</clipPath>
<clipPath id="clip10_3994_11414">
<rect width="147.339" height="160.887" fill="white" transform="translate(938 102.355)"/>
</clipPath>
<clipPath id="clip11_3994_11414">
<rect width="163.254" height="178.952" fill="white" transform="translate(1156.36 84.2891)"/>
</clipPath>
<clipPath id="clip12_3994_11414">
<rect width="187.146" height="204.355" fill="white" transform="translate(1249.89 58.8867)"/>
</clipPath>
<clipPath id="clip13_3994_11414">
<rect width="254.409" height="278.871" fill="white" transform="translate(1353.48 3)"/>
</clipPath>
<clipPath id="clip14_3994_11414">
<rect width="187.146" height="204.355" fill="white" transform="translate(1523.97 58.8867)"/>
</clipPath>
<clipPath id="clip15_3994_11414">
<rect width="163.254" height="178.952" fill="white" transform="translate(1641.39 84.2891)"/>
</clipPath>
<clipPath id="clip16_3994_11414">
<rect width="147.339" height="160.887" fill="white" transform="translate(1758.81 102.355)"/>
</clipPath>
<clipPath id="clip17_3994_11414">
<rect width="147.339" height="160.887" fill="white" transform="translate(1875.66 102.355)"/>
</clipPath>
</defs>
</svg>
