<svg width="16" height="16" viewBox="0 0 16 16" fill="none" xmlns="http://www.w3.org/2000/svg">
<path d="M10.2066 10.0133C9.81996 10.0133 9.39996 9.88666 8.97996 9.62666L8.09996 9.09333C8.05996 9.06666 7.93996 9.06666 7.89996 9.09333L7.01996 9.62666C6.29996 10.0667 5.59329 10.1333 5.02663 9.81333C4.47329 9.5 4.16663 8.87333 4.16663 8.05333V3.35333C4.16663 1.72666 5.05329 0.833328 6.66663 0.833328H9.33329C10.9466 0.833328 11.8333 1.72666 11.8333 3.35333V8.05333C11.8333 8.88 11.5266 9.50666 10.9733 9.81333C10.74 9.94666 10.48 10.0133 10.2066 10.0133ZM7.99996 8.07333C8.21996 8.07333 8.43996 8.12666 8.61996 8.23333L9.49996 8.76666C9.89329 9.00666 10.2533 9.06666 10.48 8.93999C10.7 8.81333 10.8266 8.48666 10.8266 8.04666V3.35333C10.8266 2.28666 10.38 1.83333 9.32663 1.83333H6.65996C5.60663 1.83333 5.15996 2.28666 5.15996 3.35333V8.05333C5.15996 8.49333 5.28663 8.82 5.50663 8.94666C5.73329 9.07333 6.09329 9.01333 6.48663 8.77333L7.36663 8.24C7.55996 8.12666 7.77996 8.07333 7.99996 8.07333Z" fill="#44433E"/>
<path d="M10 15.1667H6.00004C2.38004 15.1667 0.833374 13.6067 0.833374 9.95333V7.93333C0.833374 4.82667 1.95337 3.25333 4.46004 2.83333C4.72671 2.78667 4.98671 2.97333 5.03337 3.24667C5.08004 3.52 4.89337 3.77333 4.62004 3.82C2.61337 4.15333 1.82671 5.30667 1.82671 7.93333V9.95333C1.82671 13.0267 2.95337 14.1667 5.99337 14.1667H9.99337C13.0334 14.1667 14.16 13.0267 14.16 9.95333V7.93333C14.16 5.26667 13.3467 4.11333 11.2534 3.8C10.98 3.76 10.7934 3.50667 10.8334 3.23333C10.8734 2.96 11.1267 2.77333 11.4 2.81333C14 3.2 15.16 4.77333 15.16 7.93333V9.95333C15.1667 13.6067 13.62 15.1667 10 15.1667Z" fill="#44433E"/>
</svg>
