<svg width="16" height="16" viewBox="0 0 16 16" fill="none" xmlns="http://www.w3.org/2000/svg">
<path d="M12.6667 15.1666C11.5868 15.1666 10.5667 14.6066 9.99341 13.6866C9.68674 13.2133 9.51342 12.6466 9.50008 12.0666C9.48008 11.0933 9.89342 10.1866 10.6334 9.57326C11.1868 9.11326 11.8801 8.85327 12.5934 8.83327C13.4601 8.8266 14.2401 9.12661 14.8534 9.71327C15.4667 10.2999 15.8134 11.0866 15.8267 11.9333C15.8401 12.5133 15.6934 13.0799 15.4001 13.5799C15.2401 13.8599 15.0334 14.1199 14.7867 14.3399C14.2401 14.8533 13.5067 15.1533 12.7267 15.1666C12.7134 15.1666 12.6934 15.1666 12.6667 15.1666ZM12.6667 9.83327C12.6534 9.83327 12.6334 9.83327 12.6201 9.83327C12.1267 9.8466 11.6601 10.0199 11.2734 10.3399C10.7668 10.7599 10.4868 11.3799 10.5001 12.0466C10.5067 12.4399 10.6267 12.8266 10.8334 13.1533C11.2401 13.8066 11.9467 14.2066 12.7067 14.1666C13.2334 14.1533 13.7334 13.9533 14.1134 13.6C14.2868 13.4466 14.4267 13.2733 14.5334 13.0866C14.7334 12.7399 14.8334 12.3533 14.8267 11.9599C14.8134 11.3799 14.5801 10.8399 14.1601 10.4399C13.7601 10.0466 13.2268 9.83327 12.6667 9.83327Z" fill="#44433E"/>
<path d="M12.2999 13.1666C12.1732 13.1666 12.0532 13.1199 11.9532 13.0266L11.2799 12.3866C11.0799 12.1933 11.0732 11.88 11.2665 11.68C11.4599 11.48 11.7732 11.4733 11.9732 11.6666L12.2999 11.9799L13.3465 10.9666C13.5465 10.7733 13.8599 10.7799 14.0532 10.9799C14.2465 11.1799 14.2399 11.4933 14.0399 11.6866L12.6465 13.0333C12.5465 13.1199 12.4199 13.1666 12.2999 13.1666Z" fill="#44433E"/>
<path d="M7.99986 8.86656C7.91319 8.86656 7.82652 8.84658 7.74652 8.79991L1.85986 5.39326C1.61986 5.25326 1.53985 4.94657 1.67985 4.70657C1.81985 4.46657 2.12653 4.38656 2.35986 4.52656L7.99318 7.78657L13.5932 4.54658C13.8332 4.40658 14.1399 4.49326 14.2732 4.72659C14.4132 4.96659 14.3265 5.27324 14.0932 5.41324L8.24652 8.79991C8.17319 8.83991 8.08652 8.86656 7.99986 8.86656Z" fill="#44433E"/>
<path d="M8 14.9065C7.72667 14.9065 7.5 14.6799 7.5 14.4065V8.35986C7.5 8.08653 7.72667 7.85986 8 7.85986C8.27333 7.85986 8.5 8.08653 8.5 8.35986V14.4065C8.5 14.6799 8.27333 14.9065 8 14.9065Z" fill="#44433E"/>
<path d="M7.99988 15.1666C7.41321 15.1666 6.82654 15.0399 6.37321 14.7799L2.81321 12.8066C1.84655 12.2733 1.08655 10.9866 1.08655 9.87996V6.10661C1.08655 4.99994 1.84655 3.71997 2.81321 3.17997L6.37321 1.20662C7.27988 0.693291 8.70654 0.693291 9.61987 1.20662L13.1799 3.17997C14.1465 3.71331 14.9065 4.99994 14.9065 6.10661V9.87996C14.9065 9.94663 14.9065 9.99994 14.8932 10.0666C14.8599 10.2399 14.7332 10.3866 14.5665 10.4399C14.3999 10.4999 14.2132 10.46 14.0732 10.3466C13.3065 9.67997 12.1199 9.6533 11.3132 10.3C10.7999 10.7066 10.4999 11.3266 10.4999 11.9866C10.4999 12.3799 10.6065 12.7666 10.8132 13.1C10.8665 13.1933 10.9199 13.2666 10.9799 13.34C11.0799 13.4533 11.1199 13.6066 11.0932 13.7533C11.0666 13.9 10.9732 14.0266 10.8399 14.1L9.61987 14.7733C9.16654 15.0399 8.58654 15.1666 7.99988 15.1666ZM7.99988 1.83329C7.58654 1.83329 7.16654 1.91996 6.86654 2.08663L3.30654 4.05998C2.65987 4.41331 2.09987 5.37328 2.09987 6.10661V9.87996C2.09987 10.6133 2.66654 11.5733 3.30654 11.9266L6.86654 13.8999C7.4732 14.2399 8.53321 14.2399 9.13987 13.8999L9.88653 13.4866C9.63987 13.0399 9.50655 12.5199 9.50655 11.9866C9.50655 11.0133 9.93988 10.1133 10.6932 9.51331C11.5999 8.78664 12.8932 8.63328 13.9132 9.06661V6.0933C13.9132 5.35997 13.3465 4.39996 12.7065 4.04663L9.14654 2.07328C8.83321 1.91995 8.41321 1.83329 7.99988 1.83329Z" fill="#44433E"/>
</svg>
