<svg width="21" height="21" viewBox="0 0 21 21" fill="none" xmlns="http://www.w3.org/2000/svg">
<path d="M13.8334 2.16699V5.50033M7.16675 2.16699V5.50033" stroke="#1A1A1A" stroke-width="1.5" stroke-linecap="round" stroke-linejoin="round"/>
<path d="M11.3333 3.83301H9.66667C6.52397 3.83301 4.95262 3.83301 3.97631 4.80932C3 5.78563 3 7.35697 3 10.4997V12.1663C3 15.309 3 16.8804 3.97631 17.8567C4.95262 18.833 6.52397 18.833 9.66667 18.833H11.3333C14.476 18.833 16.0474 18.833 17.0237 17.8567C18 16.8804 18 15.309 18 12.1663V10.4997C18 7.35697 18 5.78563 17.0237 4.80932C16.0474 3.83301 14.476 3.83301 11.3333 3.83301Z" stroke="#1A1A1A" stroke-width="1.5" stroke-linecap="round" stroke-linejoin="round"/>
<path d="M3 8.83301H18" stroke="#1A1A1A" stroke-width="1.5" stroke-linecap="round" stroke-linejoin="round"/>
<path d="M10.4963 12.167H10.5038M10.4963 15.5003H10.5038M13.8259 12.167H13.8334M7.16675 12.167H7.17422M7.16675 15.5003H7.17422" stroke="#1A1A1A" stroke-width="2" stroke-linecap="round" stroke-linejoin="round"/>
</svg>
