<svg width="14" height="15" viewBox="0 0 14 15" fill="none" xmlns="http://www.w3.org/2000/svg">
<path d="M5.34244 3.83213L5.10755 3.30365C4.95397 2.9581 4.87718 2.78531 4.76234 2.65309C4.61842 2.48738 4.43081 2.36547 4.22093 2.30125C4.05346 2.25 3.86439 2.25 3.48624 2.25C2.93307 2.25 2.65648 2.25 2.4243 2.35634C2.15079 2.4816 1.90379 2.75358 1.80538 3.03785C1.72183 3.27917 1.74577 3.52717 1.79363 4.02316C2.30307 9.30262 5.19752 12.1971 10.4769 12.7065C10.9729 12.7544 11.221 12.7783 11.4622 12.6948C11.7466 12.5963 12.0185 12.3493 12.1438 12.0758C12.2501 11.8436 12.2501 11.5671 12.2501 11.0139C12.2501 10.6357 12.2501 10.4466 12.1989 10.2792C12.1347 10.0693 12.0127 9.88169 11.847 9.73778C11.7148 9.62292 11.542 9.54616 11.1965 9.39257L10.668 9.15766C10.2938 8.99135 10.1066 8.90822 9.91653 8.89014C9.73453 8.87282 9.55107 8.89837 9.38074 8.96469C9.20276 9.03399 9.0455 9.16507 8.73085 9.42722C8.41771 9.6882 8.26115 9.81869 8.06981 9.88857C7.90018 9.95052 7.67595 9.97351 7.49733 9.94714C7.29579 9.91745 7.1415 9.83502 6.83286 9.67006C5.87269 9.15696 5.34318 8.62747 4.83004 7.66724C4.66512 7.35866 4.58266 7.20431 4.55296 7.00283C4.52664 6.82415 4.54958 6.59992 4.61155 6.43034C4.68144 6.239 4.81193 6.08242 5.0729 5.76925C5.33507 5.45465 5.46615 5.29734 5.53546 5.11936C5.60178 4.94905 5.62732 4.76557 5.61001 4.58361C5.59192 4.39347 5.50876 4.20636 5.34244 3.83213Z" stroke="#EDF0EE" stroke-width="1.2" stroke-linecap="round"/>
</svg>
