<svg width="18" height="18" viewBox="0 0 18 18" fill="none" xmlns="http://www.w3.org/2000/svg">
<path d="M14.2429 14.25H14.25M14.2429 14.25C13.7758 14.7131 12.9295 14.5978 12.3359 14.5978C11.6074 14.5978 11.2565 14.7403 10.7366 15.2603C10.2938 15.7031 9.70028 16.5 9 16.5C8.29972 16.5 7.70618 15.7031 7.26343 15.2603C6.74346 14.7403 6.39262 14.5978 5.66405 14.5978C5.07051 14.5978 4.22414 14.7131 3.75712 14.25C3.28636 13.7832 3.40221 12.9333 3.40221 12.3359C3.40221 11.5811 3.23712 11.2339 2.69954 10.6963C1.89986 9.8967 1.50001 9.4968 1.5 9C1.50001 8.50312 1.89984 8.1033 2.69951 7.30363C3.1794 6.82374 3.40221 6.34821 3.40221 5.66405C3.40221 5.07049 3.28687 4.2241 3.75 3.75708C4.21682 3.28633 5.0667 3.4022 5.66406 3.4022C6.3482 3.4022 6.82374 3.1794 7.30361 2.69953C8.1033 1.89984 8.50312 1.5 9 1.5C9.49688 1.5 9.8967 1.89984 10.6963 2.69953C11.1761 3.1793 11.6516 3.4022 12.3359 3.4022C12.9295 3.4022 13.7759 3.28685 14.243 3.75C14.7137 4.21682 14.5978 5.06669 14.5978 5.66405C14.5978 6.41894 14.7629 6.76603 15.3005 7.30363C16.1002 8.1033 16.5 8.50312 16.5 9C16.5 9.4968 16.1002 9.8967 15.3005 10.6963C14.7629 11.2339 14.5978 11.5811 14.5978 12.3359C14.5978 12.9333 14.7136 13.7832 14.2429 14.25Z" stroke="#595959" stroke-width="1.5"/>
<path d="M6.75 9.66968L8.1 10.875L11.25 7.125" stroke="#595959" stroke-width="1.5" stroke-linecap="round" stroke-linejoin="round"/>
</svg>
