<svg width="16" height="16" viewBox="0 0 16 16" fill="none" xmlns="http://www.w3.org/2000/svg">
<g clip-path="url(#clip0_1063_7187)">
<path d="M10.6667 3.33333C10.6667 2.71208 10.6667 2.40145 10.7682 2.15642C10.9036 1.82972 11.1631 1.57015 11.4898 1.43483C11.7349 1.33333 12.0455 1.33333 12.6667 1.33333C13.288 1.33333 13.5986 1.33333 13.8437 1.43483C14.1704 1.57015 14.4299 1.82972 14.5653 2.15642C14.6667 2.40145 14.6667 2.71208 14.6667 3.33333V6C14.6667 6.62125 14.6667 6.93188 14.5653 7.17691C14.4299 7.50361 14.1704 7.76318 13.8437 7.8985C13.5986 8 13.288 8 12.6667 8C12.0455 8 11.7349 8 11.4898 7.8985C11.1631 7.76318 10.9036 7.50361 10.7682 7.17691C10.6667 6.93188 10.6667 6.62125 10.6667 6V3.33333Z" stroke="#EDF0EE" stroke-width="1.2"/>
<path d="M10.6667 12.6667C10.6667 12.0454 10.6667 11.7348 10.7682 11.4898C10.9036 11.1631 11.1631 10.9035 11.4898 10.7682C11.7349 10.6667 12.0455 10.6667 12.6667 10.6667C13.288 10.6667 13.5986 10.6667 13.8437 10.7682C14.1704 10.9035 14.4299 11.1631 14.5653 11.4898C14.6667 11.7348 14.6667 12.0454 14.6667 12.6667C14.6667 13.2879 14.6667 13.5986 14.5653 13.8436C14.4299 14.1703 14.1704 14.4298 13.8437 14.5652C13.5986 14.6667 13.288 14.6667 12.6667 14.6667C12.0455 14.6667 11.7349 14.6667 11.4898 14.5652C11.1631 14.4298 10.9036 14.1703 10.7682 13.8436C10.6667 13.5986 10.6667 13.2879 10.6667 12.6667Z" stroke="#EDF0EE" stroke-width="1.2"/>
<path d="M1.3335 10.6667C1.3335 9.40959 1.3335 8.78105 1.72402 8.39052C2.11454 8 2.74308 8 4.00016 8H5.3335C6.59057 8 7.21911 8 7.60964 8.39052C8.00016 8.78105 8.00016 9.40959 8.00016 10.6667V12C8.00016 13.2571 8.00016 13.8856 7.60964 14.2761C7.21911 14.6667 6.59057 14.6667 5.3335 14.6667H4.00016C2.74308 14.6667 2.11454 14.6667 1.72402 14.2761C1.3335 13.8856 1.3335 13.2571 1.3335 12V10.6667Z" stroke="#EDF0EE" stroke-width="1.2"/>
<path d="M1.3335 3.33333C1.3335 2.71208 1.3335 2.40145 1.43499 2.15642C1.57032 1.82972 1.82988 1.57015 2.15658 1.43483C2.40161 1.33333 2.71224 1.33333 3.3335 1.33333H6.00016C6.62142 1.33333 6.93205 1.33333 7.17707 1.43483C7.50378 1.57015 7.76334 1.82972 7.89867 2.15642C8.00016 2.40145 8.00016 2.71208 8.00016 3.33333C8.00016 3.95459 8.00016 4.26522 7.89867 4.51024C7.76334 4.83695 7.50378 5.09651 7.17707 5.23184C6.93205 5.33333 6.62142 5.33333 6.00016 5.33333H3.3335C2.71224 5.33333 2.40161 5.33333 2.15658 5.23184C1.82988 5.09651 1.57032 4.83695 1.43499 4.51024C1.3335 4.26522 1.3335 3.95459 1.3335 3.33333Z" stroke="#EDF0EE" stroke-width="1.2"/>
</g>
<defs>
<clipPath id="clip0_1063_7187">
<rect width="16" height="16" fill="white"/>
</clipPath>
</defs>
</svg>
