<svg width="16" height="16" viewBox="0 0 16 16" fill="none" xmlns="http://www.w3.org/2000/svg">
<g clip-path="url(#clip0_1063_7023)">
<path d="M10.6666 3.33334C10.6666 2.71208 10.6666 2.40145 10.7681 2.15642C10.9034 1.82972 11.163 1.57016 11.4897 1.43483C11.7347 1.33334 12.0454 1.33334 12.6666 1.33334C13.2879 1.33334 13.5985 1.33334 13.8435 1.43483C14.1702 1.57016 14.4298 1.82972 14.5651 2.15642C14.6666 2.40145 14.6666 2.71208 14.6666 3.33334V6C14.6666 6.62126 14.6666 6.93189 14.5651 7.17691C14.4298 7.50362 14.1702 7.76318 13.8435 7.89851C13.5985 8 13.2879 8 12.6666 8C12.0454 8 11.7347 8 11.4897 7.89851C11.163 7.76318 10.9034 7.50362 10.7681 7.17691C10.6666 6.93189 10.6666 6.62126 10.6666 6V3.33334Z" stroke="#44433E" stroke-width="1.2"/>
<path d="M10.6666 12.6667C10.6666 12.0454 10.6666 11.7348 10.7681 11.4898C10.9034 11.1631 11.163 10.9035 11.4897 10.7682C11.7347 10.6667 12.0454 10.6667 12.6666 10.6667C13.2879 10.6667 13.5985 10.6667 13.8435 10.7682C14.1702 10.9035 14.4298 11.1631 14.5651 11.4898C14.6666 11.7348 14.6666 12.0454 14.6666 12.6667C14.6666 13.2879 14.6666 13.5986 14.5651 13.8436C14.4298 14.1703 14.1702 14.4299 13.8435 14.5652C13.5985 14.6667 13.2879 14.6667 12.6666 14.6667C12.0454 14.6667 11.7347 14.6667 11.4897 14.5652C11.163 14.4299 10.9034 14.1703 10.7681 13.8436C10.6666 13.5986 10.6666 13.2879 10.6666 12.6667Z" stroke="#44433E" stroke-width="1.2"/>
<path d="M1.33337 10.6667C1.33337 9.40959 1.33337 8.78105 1.7239 8.39052C2.11442 8 2.74296 8 4.00004 8H5.33337C6.59045 8 7.21899 8 7.60952 8.39052C8.00004 8.78105 8.00004 9.40959 8.00004 10.6667V12C8.00004 13.2571 8.00004 13.8856 7.60952 14.2761C7.21899 14.6667 6.59045 14.6667 5.33337 14.6667H4.00004C2.74296 14.6667 2.11442 14.6667 1.7239 14.2761C1.33337 13.8856 1.33337 13.2571 1.33337 12V10.6667Z" stroke="#44433E" stroke-width="1.2"/>
<path d="M1.33337 3.33334C1.33337 2.71208 1.33337 2.40145 1.43487 2.15642C1.57019 1.82972 1.82976 1.57016 2.15646 1.43483C2.40149 1.33334 2.71212 1.33334 3.33337 1.33334H6.00004C6.6213 1.33334 6.93192 1.33334 7.17695 1.43483C7.50366 1.57016 7.76322 1.82972 7.89855 2.15642C8.00004 2.40145 8.00004 2.71208 8.00004 3.33334C8.00004 3.95459 8.00004 4.26522 7.89855 4.51025C7.76322 4.83695 7.50366 5.09652 7.17695 5.23184C6.93192 5.33334 6.6213 5.33334 6.00004 5.33334H3.33337C2.71212 5.33334 2.40149 5.33334 2.15646 5.23184C1.82976 5.09652 1.57019 4.83695 1.43487 4.51025C1.33337 4.26522 1.33337 3.95459 1.33337 3.33334Z" stroke="#44433E" stroke-width="1.2"/>
</g>
<defs>
<clipPath id="clip0_1063_7023">
<rect width="16" height="16" fill="white"/>
</clipPath>
</defs>
</svg>
