<svg width="19" height="19" viewBox="0 0 19 19" fill="none" xmlns="http://www.w3.org/2000/svg">
<path d="M4.21509 8.66866L2.99009 11.4253C1.44343 14.9037 0.670925 16.6428 1.51509 17.487C2.35926 18.3312 4.09676 17.5578 7.57509 16.012L10.3334 14.7853C12.4309 13.8528 13.4801 13.387 13.6468 12.4878C13.8134 11.5887 13.0018 10.777 11.3784 9.15449L9.84676 7.62199C8.22426 5.99866 7.41259 5.18699 6.51343 5.35449C5.61426 5.52116 5.14843 6.57033 4.21593 8.66783M4.91676 8.25033L10.7501 14.0837M3.25009 12.417L6.58343 15.7503M12.8334 6.16699L15.3334 3.66699M11.3309 1.16699C11.6643 1.72283 11.9301 3.16699 10.3334 4.50033M17.8334 7.66949C17.2776 7.33616 15.8334 7.07033 14.5001 8.66699M14.5001 1.16699V1.18366M17.8334 4.50033V4.51699M17.0001 10.3337V10.3503M8.66676 2.00033V2.01699" stroke="black" stroke-width="1.2" stroke-linecap="round" stroke-linejoin="round"/>
</svg>
