<svg width="20" height="21" viewBox="0 0 20 21" fill="none" xmlns="http://www.w3.org/2000/svg">
<path fill-rule="evenodd" clip-rule="evenodd" d="M5.15154 9.11116C4.33674 9.11116 4.16669 9.27108 4.16669 10.0371V11.426C4.16669 12.1921 4.33674 12.3519 5.15154 12.3519H7.12123V17.9075C7.12123 18.6735 7.29128 18.8334 8.10608 18.8334H10.0758C10.8906 18.8334 11.0606 18.6735 11.0606 17.9075V12.3519H13.2723C13.8903 12.3519 14.0495 12.239 14.2193 11.6804L14.6414 10.2915C14.9321 9.33458 14.7529 9.11116 13.6944 9.11116H11.0606V6.79638C11.0606 6.28501 11.5015 5.87045 12.0454 5.87045H14.8485C15.6633 5.87045 15.8334 5.71057 15.8334 4.94452V3.09267C15.8334 2.32662 15.6633 2.16675 14.8485 2.16675H12.0454C9.32585 2.16675 7.12123 4.23951 7.12123 6.79638V9.11116H5.15154Z" stroke="#1A1A1A" stroke-width="1.5" stroke-linejoin="round"/>
</svg>
