<svg width="20" height="21" viewBox="0 0 20 21" fill="none" xmlns="http://www.w3.org/2000/svg">
<path d="M2.08337 10.4999C2.08337 6.76797 2.08337 4.90199 3.24274 3.74262C4.40212 2.58325 6.26809 2.58325 10 2.58325C13.732 2.58325 15.598 2.58325 16.7574 3.74262C17.9167 4.90199 17.9167 6.76797 17.9167 10.4999C17.9167 14.2318 17.9167 16.0978 16.7574 17.2573C15.598 18.4166 13.732 18.4166 10 18.4166C6.26809 18.4166 4.40212 18.4166 3.24274 17.2573C2.08337 16.0978 2.08337 14.2318 2.08337 10.4999Z" stroke="#1A1A1A" stroke-width="1.5" stroke-linejoin="round"/>
<path d="M13.75 10.5C13.75 12.5711 12.0711 14.25 10 14.25C7.92893 14.25 6.25 12.5711 6.25 10.5C6.25 8.42893 7.92893 6.75 10 6.75C12.0711 6.75 13.75 8.42893 13.75 10.5Z" stroke="#1A1A1A" stroke-width="1.5"/>
<path d="M14.5898 5.91675H14.5823" stroke="#1A1A1A" stroke-width="1.5" stroke-linecap="round" stroke-linejoin="round"/>
</svg>
