<svg width="20" height="21" viewBox="0 0 20 21" fill="none" xmlns="http://www.w3.org/2000/svg">
<path d="M3.74996 8.41675H3.33329C2.54762 8.41675 2.15478 8.41675 1.9107 8.66082C1.66663 8.90491 1.66663 9.29775 1.66663 10.0834V17.1667C1.66663 17.9524 1.66663 18.3452 1.9107 18.5893C2.15478 18.8334 2.54762 18.8334 3.33329 18.8334H3.74996C4.53563 18.8334 4.92847 18.8334 5.17255 18.5893C5.41663 18.3452 5.41663 17.9524 5.41663 17.1667V10.0834C5.41663 9.29775 5.41663 8.90491 5.17255 8.66082C4.92847 8.41675 4.53563 8.41675 3.74996 8.41675Z" stroke="#1A1A1A" stroke-width="1.5"/>
<path d="M5.41663 4.04175C5.41663 5.07728 4.57716 5.91675 3.54163 5.91675C2.50609 5.91675 1.66663 5.07728 1.66663 4.04175C1.66663 3.00621 2.50609 2.16675 3.54163 2.16675C4.57716 2.16675 5.41663 3.00621 5.41663 4.04175Z" stroke="#1A1A1A" stroke-width="1.5"/>
<path d="M10.2716 8.41675H9.58329C8.79763 8.41675 8.40479 8.41675 8.1607 8.66082C7.91663 8.90491 7.91663 9.29775 7.91663 10.0834V17.1667C7.91663 17.9524 7.91663 18.3452 8.1607 18.5893C8.40479 18.8334 8.79763 18.8334 9.58329 18.8334H9.99996C10.7856 18.8334 11.1785 18.8334 11.4225 18.5893C11.6666 18.3452 11.6666 17.9524 11.6666 17.1667L11.6667 14.2502C11.6667 12.8695 12.1067 11.7502 13.4065 11.7502C14.0564 11.7502 14.5833 12.3098 14.5833 13.0002V16.7502C14.5833 17.5358 14.5833 17.9287 14.8274 18.1727C15.0714 18.4168 15.4643 18.4168 16.25 18.4168H16.6655C17.451 18.4168 17.8438 18.4168 18.0879 18.1728C18.332 17.9288 18.332 17.5361 18.3322 16.7506L18.3334 12.1669C18.3334 10.0959 16.3636 8.41695 14.414 8.41695C13.304 8.41695 12.3139 8.961 11.6667 9.81175C11.6666 9.28666 11.6666 9.02416 11.5526 8.82925C11.4804 8.7058 11.3775 8.60302 11.2541 8.53081C11.0592 8.41675 10.7967 8.41675 10.2716 8.41675Z" stroke="#1A1A1A" stroke-width="1.5" stroke-linejoin="round"/>
</svg>
