<svg width="14" height="15" viewBox="0 0 14 15" fill="none" xmlns="http://www.w3.org/2000/svg">
<path d="M9.04165 6.91667C9.04165 8.04425 8.12756 8.95833 6.99998 8.95833C5.8724 8.95833 4.95831 8.04425 4.95831 6.91667C4.95831 5.78908 5.8724 4.875 6.99998 4.875C8.12756 4.875 9.04165 5.78908 9.04165 6.91667Z" stroke="#EDF0EE" stroke-width="1.2"/>
<path d="M7 1.66675C9.84118 1.66675 12.25 4.01932 12.25 6.87346C12.25 9.77304 9.80192 11.8078 7.54075 13.1915C7.37596 13.2845 7.18958 13.3334 7 13.3334C6.81042 13.3334 6.62404 13.2845 6.45925 13.1915C4.20227 11.7943 1.75 9.78307 1.75 6.87346C1.75 4.01932 4.15884 1.66675 7 1.66675Z" stroke="#EDF0EE" stroke-width="1.2"/>
</svg>
