<svg width="16" height="16" viewBox="0 0 16 16" fill="none" xmlns="http://www.w3.org/2000/svg">
<path d="M12 7.16634C11.7267 7.16634 11.5 6.93967 11.5 6.66634V5.33301C11.5 3.23301 10.9067 1.83301 8 1.83301C5.09333 1.83301 4.5 3.23301 4.5 5.33301V6.66634C4.5 6.93967 4.27333 7.16634 4 7.16634C3.72667 7.16634 3.5 6.93967 3.5 6.66634V5.33301C3.5 3.39967 3.96667 0.833008 8 0.833008C12.0333 0.833008 12.5 3.39967 12.5 5.33301V6.66634C12.5 6.93967 12.2733 7.16634 12 7.16634Z" fill="#292D32"/>
<path d="M8.00016 12.8333C6.80683 12.8333 5.8335 11.86 5.8335 10.6667C5.8335 9.47333 6.80683 8.5 8.00016 8.5C9.1935 8.5 10.1668 9.47333 10.1668 10.6667C10.1668 11.86 9.1935 12.8333 8.00016 12.8333ZM8.00016 9.5C7.36016 9.5 6.8335 10.0267 6.8335 10.6667C6.8335 11.3067 7.36016 11.8333 8.00016 11.8333C8.64016 11.8333 9.16683 11.3067 9.16683 10.6667C9.16683 10.0267 8.64016 9.5 8.00016 9.5Z" fill="#292D32"/>
<path d="M11.3335 15.167H4.66683C1.72683 15.167 0.833496 14.2737 0.833496 11.3337V10.0003C0.833496 7.06033 1.72683 6.16699 4.66683 6.16699H11.3335C14.2735 6.16699 15.1668 7.06033 15.1668 10.0003V11.3337C15.1668 14.2737 14.2735 15.167 11.3335 15.167ZM4.66683 7.16699C2.28016 7.16699 1.8335 7.62033 1.8335 10.0003V11.3337C1.8335 13.7137 2.28016 14.167 4.66683 14.167H11.3335C13.7202 14.167 14.1668 13.7137 14.1668 11.3337V10.0003C14.1668 7.62033 13.7202 7.16699 11.3335 7.16699H4.66683Z" fill="#292D32"/>
</svg>
