<svg width="14" height="15" viewBox="0 0 14 15" fill="none" xmlns="http://www.w3.org/2000/svg">
<path d="M1.16669 4L5.19928 6.2849C6.68595 7.12725 7.31409 7.12725 8.80077 6.2849L12.8334 4" stroke="#EDF0EE" stroke-width="1.2" stroke-linejoin="round"/>
<path d="M1.17589 8.36085C1.21402 10.1491 1.23309 11.0432 1.89291 11.7056C2.55273 12.3679 3.47105 12.3909 5.30767 12.4371C6.43961 12.4655 7.56043 12.4655 8.69239 12.4371C10.529 12.3909 11.4473 12.3679 12.1072 11.7056C12.767 11.0432 12.786 10.1491 12.8241 8.36085C12.8364 7.78586 12.8364 7.21431 12.8241 6.63931C12.786 4.85108 12.767 3.95697 12.1072 3.29463C11.4473 2.6323 10.529 2.60923 8.69239 2.56308C7.56043 2.53464 6.43961 2.53464 5.30767 2.56308C3.47105 2.60922 2.55273 2.63229 1.89291 3.29463C1.23308 3.95696 1.21402 4.85108 1.17588 6.63931C1.16362 7.21431 1.16362 7.78586 1.17589 8.36085Z" stroke="#EDF0EE" stroke-width="1.2" stroke-linejoin="round"/>
</svg>
