<svg width="16" height="17" viewBox="0 0 16 17" fill="none" xmlns="http://www.w3.org/2000/svg">
<path d="M11.9866 7.69334V10.36C11.9866 10.5333 11.9799 10.7 11.9599 10.86C11.8066 12.66 10.7466 13.5533 8.79325 13.5533H8.52659C8.35992 13.5533 8.19991 13.6333 8.09991 13.7667L7.29993 14.8333C6.94659 15.3067 6.37325 15.3067 6.01992 14.8333L5.21991 13.7667C5.13324 13.6533 4.93992 13.5533 4.79325 13.5533H4.52659C2.39992 13.5533 1.33325 13.0267 1.33325 10.36V7.69334C1.33325 5.74001 2.23326 4.68001 4.02659 4.52667C4.18659 4.50667 4.35326 4.5 4.52659 4.5H8.79325C10.9199 4.5 11.9866 5.56667 11.9866 7.69334Z" stroke="#4B6450" stroke-width="1.5" stroke-miterlimit="10" stroke-linecap="round" stroke-linejoin="round"/>
<path d="M14.6533 5.02684V7.6935C14.6533 9.6535 13.7533 10.7068 11.9599 10.8602C11.9799 10.7002 11.9866 10.5335 11.9866 10.3602V7.6935C11.9866 5.56684 10.9199 4.50016 8.79327 4.50016H4.52661C4.35328 4.50016 4.18661 4.50684 4.02661 4.52684C4.17994 2.7335 5.23994 1.8335 7.19328 1.8335H11.4599C13.5866 1.8335 14.6533 2.90017 14.6533 5.02684Z" stroke="#4B6450" stroke-width="1.5" stroke-miterlimit="10" stroke-linecap="round" stroke-linejoin="round"/>
<path d="M8.99708 9.33333H9.00308" stroke="#4B6450" stroke-width="1.5" stroke-linecap="round" stroke-linejoin="round"/>
<path d="M6.66359 9.33333H6.66959" stroke="#4B6450" stroke-width="1.5" stroke-linecap="round" stroke-linejoin="round"/>
<path d="M4.33033 9.33333H4.33633" stroke="#4B6450" stroke-width="1.5" stroke-linecap="round" stroke-linejoin="round"/>
</svg>
