<svg width="24" height="24" viewBox="0 0 24 24" fill="none" xmlns="http://www.w3.org/2000/svg">
<path d="M12 16.143C12.6116 16.143 13.1982 16.386 13.6307 16.8184C14.0632 17.2509 14.3061 17.8375 14.3061 18.4491C14.3061 19.0607 14.0632 19.6473 13.6307 20.0798C13.1982 20.5123 12.6116 20.7553 12 20.7553C11.3884 20.7553 10.8018 20.5123 10.3693 20.0798C9.93682 19.6473 9.69385 19.0607 9.69385 18.4491C9.69385 17.8375 9.93682 17.2509 10.3693 16.8184C10.8018 16.386 11.3884 16.143 12 16.143ZM12 8.07149C12.6116 8.07149 13.1982 8.31446 13.6307 8.74694C14.0632 9.17943 14.3061 9.766 14.3061 10.3776C14.3061 10.9893 14.0632 11.5758 13.6307 12.0083C13.1982 12.4408 12.6116 12.6838 12 12.6838C11.3884 12.6838 10.8018 12.4408 10.3693 12.0083C9.93682 11.5758 9.69385 10.9893 9.69385 10.3776C9.69385 9.766 9.93682 9.17943 10.3693 8.74694C10.8018 8.31446 11.3884 8.07149 12 8.07149ZM12 0C12.6116 0 13.1982 0.242968 13.6307 0.675453C14.0632 1.10794 14.3061 1.69451 14.3061 2.30614C14.3061 2.91777 14.0632 3.50434 13.6307 3.93683C13.1982 4.36931 12.6116 4.61228 12 4.61228C11.3884 4.61228 10.8018 4.36931 10.3693 3.93683C9.93682 3.50434 9.69385 2.91777 9.69385 2.30614C9.69385 1.69451 9.93682 1.10794 10.3693 0.675453C10.8018 0.242968 11.3884 0 12 0Z" fill="#1A231C"/>
</svg>
