<svg width="15" height="16" viewBox="0 0 15 16" fill="none" xmlns="http://www.w3.org/2000/svg">
<path d="M3.53601 7.37625L2.61726 9.44375C1.45726 12.0525 0.877889 13.3569 1.51101 13.99C2.14414 14.6231 3.44726 14.0431 6.05601 12.8837L8.12476 11.9637C9.69789 11.2644 10.4848 10.915 10.6098 10.2406C10.7348 9.56625 10.126 8.9575 8.90851 7.74063L7.75976 6.59125C6.54289 5.37375 5.93414 4.765 5.25976 4.89063C4.58539 5.01563 4.23601 5.8025 3.53664 7.37563M4.06226 7.0625L8.43726 11.4375M2.81226 10.1875L5.31226 12.6875M9.99976 5.5L11.8748 3.625M8.87289 1.75C9.12289 2.16687 9.32226 3.25 8.12476 4.25M13.7498 6.62688C13.3329 6.37688 12.2498 6.1775 11.2498 7.375M11.2498 1.75V1.7625M13.7498 4.25V4.2625M13.1248 8.625V8.6375M6.87476 2.375V2.3875" stroke="#999999" stroke-width="1.5" stroke-linecap="round" stroke-linejoin="round"/>
</svg>
