<svg width="16" height="16" viewBox="0 0 16 16" fill="none" xmlns="http://www.w3.org/2000/svg">
<mask id="path-1-inside-1_1380_5914" fill="white">
<path d="M11.3333 14.5H4.66659C1.72659 14.5 0.833252 13.6067 0.833252 10.6667V5.33333C0.833252 2.39333 1.72659 1.5 4.66659 1.5H11.3333C14.2733 1.5 15.1666 2.39333 15.1666 5.33333V10.6667C15.1666 13.6067 14.2733 14.5 11.3333 14.5ZM4.66659 2.5C2.27992 2.5 1.83325 2.95333 1.83325 5.33333V10.6667C1.83325 13.0467 2.27992 13.5 4.66659 13.5H11.3333C13.7199 13.5 14.1666 13.0467 14.1666 10.6667V5.33333C14.1666 2.95333 13.7199 2.5 11.3333 2.5H4.66659Z"/>
</mask>
<path d="M11.3333 14.5H4.66659C1.72659 14.5 0.833252 13.6067 0.833252 10.6667V5.33333C0.833252 2.39333 1.72659 1.5 4.66659 1.5H11.3333C14.2733 1.5 15.1666 2.39333 15.1666 5.33333V10.6667C15.1666 13.6067 14.2733 14.5 11.3333 14.5ZM4.66659 2.5C2.27992 2.5 1.83325 2.95333 1.83325 5.33333V10.6667C1.83325 13.0467 2.27992 13.5 4.66659 13.5H11.3333C13.7199 13.5 14.1666 13.0467 14.1666 10.6667V5.33333C14.1666 2.95333 13.7199 2.5 11.3333 2.5H4.66659Z" fill="#292D32"/>
<path d="M11.3333 14.5V13.3H4.66659V14.5V15.7H11.3333V14.5ZM4.66659 14.5V13.3C3.23791 13.3 2.72176 13.0631 2.49595 12.8373C2.27014 12.6115 2.03325 12.0953 2.03325 10.6667H0.833252H-0.366748C-0.366748 12.178 -0.156968 13.5785 0.798891 14.5344C1.75475 15.4902 3.15526 15.7 4.66659 15.7V14.5ZM0.833252 10.6667H2.03325V5.33333H0.833252H-0.366748V10.6667H0.833252ZM0.833252 5.33333H2.03325C2.03325 3.90466 2.27014 3.3885 2.49595 3.16269C2.72176 2.93689 3.23791 2.7 4.66659 2.7V1.5V0.3C3.15526 0.3 1.75475 0.50978 0.798891 1.46564C-0.156968 2.4215 -0.366748 3.82201 -0.366748 5.33333H0.833252ZM4.66659 1.5V2.7H11.3333V1.5V0.3H4.66659V1.5ZM11.3333 1.5V2.7C12.7619 2.7 13.2781 2.93689 13.5039 3.16269C13.7297 3.3885 13.9666 3.90466 13.9666 5.33333H15.1666H16.3666C16.3666 3.82201 16.1568 2.4215 15.2009 1.46564C14.2451 0.50978 12.8446 0.3 11.3333 0.3V1.5ZM15.1666 5.33333H13.9666V10.6667H15.1666H16.3666V5.33333H15.1666ZM15.1666 10.6667H13.9666C13.9666 12.0953 13.7297 12.6115 13.5039 12.8373C13.2781 13.0631 12.7619 13.3 11.3333 13.3V14.5V15.7C12.8446 15.7 14.2451 15.4902 15.2009 14.5344C16.1568 13.5785 16.3666 12.178 16.3666 10.6667H15.1666ZM4.66659 2.5V1.3C4.04874 1.3 3.4722 1.32771 2.96915 1.4339C2.45274 1.54291 1.92936 1.75181 1.50553 2.1765C1.08182 2.60107 0.874124 3.12456 0.765924 3.64007C0.660509 4.14232 0.633252 4.71764 0.633252 5.33333H1.83325H3.03325C3.03325 4.75903 3.06183 4.38518 3.11475 4.13306C3.16488 3.8942 3.21801 3.8581 3.20431 3.87183C3.19048 3.88569 3.22627 3.83251 3.46485 3.78215C3.71681 3.72896 4.0911 3.7 4.66659 3.7V2.5ZM1.83325 5.33333H0.633252V10.6667H1.83325H3.03325V5.33333H1.83325ZM1.83325 10.6667H0.633252C0.633252 11.2824 0.660509 11.8577 0.765924 12.3599C0.874124 12.8754 1.08182 13.3989 1.50553 13.8235C1.92936 14.2482 2.45274 14.4571 2.96915 14.5661C3.4722 14.6723 4.04874 14.7 4.66659 14.7V13.5V12.3C4.0911 12.3 3.71681 12.271 3.46485 12.2179C3.22627 12.1675 3.19048 12.1143 3.20431 12.1282C3.21801 12.1419 3.16488 12.1058 3.11475 11.8669C3.06183 11.6148 3.03325 11.241 3.03325 10.6667H1.83325ZM4.66659 13.5V14.7H11.3333V13.5V12.3H4.66659V13.5ZM11.3333 13.5V14.7C11.9511 14.7 12.5276 14.6723 13.0307 14.5661C13.5471 14.4571 14.0705 14.2482 14.4943 13.8235C14.918 13.3989 15.1257 12.8754 15.2339 12.3599C15.3393 11.8577 15.3666 11.2824 15.3666 10.6667H14.1666H12.9666C12.9666 11.241 12.938 11.6148 12.8851 11.8669C12.835 12.1058 12.7818 12.1419 12.7955 12.1282C12.8094 12.1143 12.7736 12.1675 12.535 12.2179C12.283 12.271 11.9087 12.3 11.3333 12.3V13.5ZM14.1666 10.6667H15.3666V5.33333H14.1666H12.9666V10.6667H14.1666ZM14.1666 5.33333H15.3666C15.3666 4.71764 15.3393 4.14232 15.2339 3.64007C15.1257 3.12456 14.918 2.60107 14.4943 2.1765C14.0705 1.75181 13.5471 1.54291 13.0307 1.4339C12.5276 1.32771 11.9511 1.3 11.3333 1.3V2.5V3.7C11.9087 3.7 12.283 3.72896 12.535 3.78215C12.7736 3.83251 12.8094 3.88569 12.7955 3.87183C12.7818 3.8581 12.835 3.8942 12.8851 4.13306C12.938 4.38518 12.9666 4.75903 12.9666 5.33333H14.1666ZM11.3333 2.5V1.3H4.66659V2.5V3.7H11.3333V2.5Z" fill="#44433E" mask="url(#path-1-inside-1_1380_5914)"/>
<mask id="path-3-inside-2_1380_5914" fill="white">
<path d="M12.6666 5.83301H9.33325C9.05992 5.83301 8.83325 5.60634 8.83325 5.33301C8.83325 5.05967 9.05992 4.83301 9.33325 4.83301H12.6666C12.9399 4.83301 13.1666 5.05967 13.1666 5.33301C13.1666 5.60634 12.9399 5.83301 12.6666 5.83301Z"/>
</mask>
<path d="M12.6666 5.83301H9.33325C9.05992 5.83301 8.83325 5.60634 8.83325 5.33301C8.83325 5.05967 9.05992 4.83301 9.33325 4.83301H12.6666C12.9399 4.83301 13.1666 5.05967 13.1666 5.33301C13.1666 5.60634 12.9399 5.83301 12.6666 5.83301Z" fill="#292D32"/>
<path d="M12.6666 5.83301V4.63301H9.33325V5.83301V7.03301H12.6666V5.83301ZM9.33325 5.83301V4.63301C9.72266 4.63301 10.0333 4.9436 10.0333 5.33301H8.83325H7.63325C7.63325 6.26908 8.39718 7.03301 9.33325 7.03301V5.83301ZM8.83325 5.33301H10.0333C10.0333 5.72242 9.72266 6.03301 9.33325 6.03301V4.83301V3.63301C8.39718 3.63301 7.63325 4.39693 7.63325 5.33301H8.83325ZM9.33325 4.83301V6.03301H12.6666V4.83301V3.63301H9.33325V4.83301ZM12.6666 4.83301V6.03301C12.2772 6.03301 11.9666 5.72242 11.9666 5.33301H13.1666H14.3666C14.3666 4.39693 13.6027 3.63301 12.6666 3.63301V4.83301ZM13.1666 5.33301H11.9666C11.9666 4.9436 12.2772 4.63301 12.6666 4.63301V5.83301V7.03301C13.6027 7.03301 14.3666 6.26908 14.3666 5.33301H13.1666Z" fill="#44433E" mask="url(#path-3-inside-2_1380_5914)"/>
<mask id="path-5-inside-3_1380_5914" fill="white">
<path d="M12.6667 8.5H10C9.72667 8.5 9.5 8.27333 9.5 8C9.5 7.72667 9.72667 7.5 10 7.5H12.6667C12.94 7.5 13.1667 7.72667 13.1667 8C13.1667 8.27333 12.94 8.5 12.6667 8.5Z"/>
</mask>
<path d="M12.6667 8.5H10C9.72667 8.5 9.5 8.27333 9.5 8C9.5 7.72667 9.72667 7.5 10 7.5H12.6667C12.94 7.5 13.1667 7.72667 13.1667 8C13.1667 8.27333 12.94 8.5 12.6667 8.5Z" fill="#292D32"/>
<path d="M12.6667 8.5V7.3H10V8.5V9.7H12.6667V8.5ZM10 8.5V7.3C10.3894 7.3 10.7 7.61059 10.7 8H9.5H8.3C8.3 8.93608 9.06393 9.7 10 9.7V8.5ZM9.5 8H10.7C10.7 8.38941 10.3894 8.7 10 8.7V7.5V6.3C9.06393 6.3 8.3 7.06392 8.3 8H9.5ZM10 7.5V8.7H12.6667V7.5V6.3H10V7.5ZM12.6667 7.5V8.7C12.2773 8.7 11.9667 8.38941 11.9667 8H13.1667H14.3667C14.3667 7.06392 13.6027 6.3 12.6667 6.3V7.5ZM13.1667 8H11.9667C11.9667 7.61059 12.2773 7.3 12.6667 7.3V8.5V9.7C13.6027 9.7 14.3667 8.93608 14.3667 8H13.1667Z" fill="#44433E" mask="url(#path-5-inside-3_1380_5914)"/>
<mask id="path-7-inside-4_1380_5914" fill="white">
<path d="M12.6666 11.167H11.3333C11.0599 11.167 10.8333 10.9403 10.8333 10.667C10.8333 10.3937 11.0599 10.167 11.3333 10.167H12.6666C12.9399 10.167 13.1666 10.3937 13.1666 10.667C13.1666 10.9403 12.9399 11.167 12.6666 11.167Z"/>
</mask>
<path d="M12.6666 11.167H11.3333C11.0599 11.167 10.8333 10.9403 10.8333 10.667C10.8333 10.3937 11.0599 10.167 11.3333 10.167H12.6666C12.9399 10.167 13.1666 10.3937 13.1666 10.667C13.1666 10.9403 12.9399 11.167 12.6666 11.167Z" fill="#292D32"/>
<path d="M12.6666 11.167V9.96699H11.3333V11.167V12.367H12.6666V11.167ZM11.3333 11.167V9.96699C11.7227 9.96699 12.0333 10.2776 12.0333 10.667H10.8333H9.63325C9.63325 11.6031 10.3972 12.367 11.3333 12.367V11.167ZM10.8333 10.667H12.0333C12.0333 11.0564 11.7227 11.367 11.3333 11.367V10.167V8.96699C10.3972 8.96699 9.63325 9.73092 9.63325 10.667H10.8333ZM11.3333 10.167V11.367H12.6666V10.167V8.96699H11.3333V10.167ZM12.6666 10.167V11.367C12.2772 11.367 11.9666 11.0564 11.9666 10.667H13.1666H14.3666C14.3666 9.73092 13.6027 8.96699 12.6666 8.96699V10.167ZM13.1666 10.667H11.9666C11.9666 10.2776 12.2772 9.96699 12.6666 9.96699V11.167V12.367C13.6027 12.367 14.3666 11.6031 14.3666 10.667H13.1666Z" fill="#44433E" mask="url(#path-7-inside-4_1380_5914)"/>
<path d="M5.66663 8.02661C4.72663 8.02661 3.95996 7.25995 3.95996 6.31995C3.95996 5.37995 4.72663 4.61328 5.66663 4.61328C6.60663 4.61328 7.37329 5.37995 7.37329 6.31995C7.37329 7.25995 6.60663 8.02661 5.66663 8.02661ZM5.66663 5.61328C5.27996 5.61328 4.95996 5.93328 4.95996 6.31995C4.95996 6.70661 5.27996 7.02661 5.66663 7.02661C6.05329 7.02661 6.37329 6.70661 6.37329 6.31995C6.37329 5.93328 6.05329 5.61328 5.66663 5.61328Z" fill="#292D32"/>
<path d="M7.99994 11.3862C7.7466 11.3862 7.5266 11.1929 7.49994 10.9329C7.4266 10.2129 6.8466 9.63285 6.11994 9.56619C5.81327 9.53952 5.5066 9.53952 5.19994 9.56619C4.47327 9.63285 3.89327 10.2062 3.81994 10.9329C3.79327 11.2062 3.5466 11.4129 3.27327 11.3795C2.99994 11.3529 2.79994 11.1062 2.8266 10.8329C2.9466 9.63285 3.89994 8.67952 5.1066 8.57285C5.47327 8.53952 5.8466 8.53952 6.21327 8.57285C7.41327 8.68618 8.37327 9.63952 8.49327 10.8329C8.51994 11.1062 8.31994 11.3529 8.0466 11.3795C8.03327 11.3862 8.01327 11.3862 7.99994 11.3862Z" fill="#292D32"/>
</svg>
