<svg width="14" height="14" viewBox="0 0 14 14" fill="none" xmlns="http://www.w3.org/2000/svg">
<path d="M10.7916 11.375H8.45825" stroke="#55544E" stroke-width="1.2" stroke-linecap="round" stroke-linejoin="round"/>
<path d="M9.625 12.5418V10.2085" stroke="#55544E" stroke-width="1.2" stroke-linecap="round" stroke-linejoin="round"/>
<path d="M7.09327 6.34067C7.03493 6.33484 6.96493 6.33484 6.90077 6.34067C5.51243 6.294 4.40993 5.1565 4.40993 3.7565C4.4041 2.32734 5.56493 1.1665 6.9941 1.1665C8.42327 1.1665 9.5841 2.32734 9.5841 3.7565C9.5841 5.1565 8.47577 6.294 7.09327 6.34067Z" stroke="#292D32" stroke-width="1.5" stroke-linecap="round" stroke-linejoin="round"/>
<path d="M6.99419 12.7226C5.93252 12.7226 4.87669 12.4543 4.07169 11.9176C2.66002 10.9726 2.66002 9.43264 4.07169 8.49348C5.67586 7.42014 8.30669 7.42014 9.91086 8.49348" stroke="#292D32" stroke-width="1.5" stroke-linecap="round" stroke-linejoin="round"/>
</svg>
