<svg width="20" height="20" viewBox="0 0 20 20" fill="none" xmlns="http://www.w3.org/2000/svg">
<path d="M9.58374 1.54167C14.0158 1.54184 17.6248 5.15158 17.6248 9.58366C17.6246 14.0156 14.0157 17.6245 9.58374 17.6247C5.15166 17.6247 1.54192 14.0157 1.54175 9.58366C1.54175 5.15147 5.15155 1.54167 9.58374 1.54167ZM9.58374 1.79167C5.28223 1.79167 1.79175 5.29122 1.79175 9.58366C1.79192 13.8759 5.28233 17.3747 9.58374 17.3747C13.885 17.3745 17.3746 13.8758 17.3748 9.58366C17.3748 5.29133 13.8851 1.79184 9.58374 1.79167Z" fill="#292D32" stroke="#66655E"/>
<path d="M16.6667 16.5437C16.7025 16.5438 16.7331 16.5574 16.7546 16.5789L18.4216 18.2449C18.4432 18.2664 18.4558 18.2979 18.4558 18.3338C18.4557 18.3694 18.4431 18.4002 18.4216 18.4217C18.407 18.4364 18.3925 18.4448 18.3796 18.45C18.3665 18.4553 18.3511 18.4587 18.3337 18.4588C18.3161 18.4588 18.3001 18.4553 18.2869 18.45C18.274 18.4448 18.2596 18.4364 18.2449 18.4217L16.5789 16.7547C16.5574 16.7332 16.5437 16.7026 16.5437 16.6668C16.5437 16.6309 16.5573 16.6004 16.5789 16.5789C16.6004 16.5574 16.6309 16.5437 16.6667 16.5437Z" fill="#292D32" stroke="#66655E"/>
</svg>
