<svg width="16" height="16" viewBox="0 0 16 16" fill="none" xmlns="http://www.w3.org/2000/svg">
<path d="M8 10.5C6.62 10.5 5.5 9.38 5.5 8C5.5 6.62 6.62 5.5 8 5.5C9.38 5.5 10.5 6.62 10.5 8C10.5 9.38 9.38 10.5 8 10.5ZM8 6.5C7.17333 6.5 6.5 7.17333 6.5 8C6.5 8.82667 7.17333 9.5 8 9.5C8.82667 9.5 9.5 8.82667 9.5 8C9.5 7.17333 8.82667 6.5 8 6.5Z" fill="#292D32"/>
<path d="M10.14 14.7933C10 14.7933 9.86004 14.7733 9.72004 14.74C9.30671 14.6267 8.96004 14.3667 8.74004 14L8.66004 13.8667C8.26671 13.1867 7.72671 13.1867 7.33337 13.8667L7.26004 13.9933C7.04004 14.3667 6.69337 14.6333 6.28004 14.74C5.86004 14.8533 5.42671 14.7933 5.06004 14.5733L3.91337 13.9133C3.50671 13.68 3.21337 13.3 3.08671 12.84C2.96671 12.38 3.02671 11.9067 3.26004 11.5C3.45337 11.16 3.50671 10.8533 3.39337 10.66C3.28004 10.4667 2.99337 10.3533 2.60004 10.3533C1.62671 10.3533 0.833374 9.55999 0.833374 8.58665V7.41332C0.833374 6.43999 1.62671 5.64665 2.60004 5.64665C2.99337 5.64665 3.28004 5.53332 3.39337 5.33999C3.50671 5.14665 3.46004 4.83999 3.26004 4.49999C3.02671 4.09332 2.96671 3.61332 3.08671 3.15999C3.20671 2.69999 3.50004 2.31999 3.91337 2.08665L5.06671 1.42665C5.82004 0.979988 6.81337 1.23999 7.26671 2.00665L7.34671 2.13999C7.74004 2.81999 8.28004 2.81999 8.67337 2.13999L8.74671 2.01332C9.20004 1.23999 10.1934 0.979988 10.9534 1.43332L12.1 2.09332C12.5067 2.32665 12.8 2.70665 12.9267 3.16665C13.0467 3.62665 12.9867 4.09999 12.7534 4.50665C12.56 4.84665 12.5067 5.15332 12.62 5.34665C12.7334 5.53999 13.02 5.65332 13.4134 5.65332C14.3867 5.65332 15.18 6.44665 15.18 7.41999V8.59332C15.18 9.56665 14.3867 10.36 13.4134 10.36C13.02 10.36 12.7334 10.4733 12.62 10.6667C12.5067 10.86 12.5534 11.1667 12.7534 11.5067C12.9867 11.9133 13.0534 12.3933 12.9267 12.8467C12.8067 13.3067 12.5134 13.6867 12.1 13.92L10.9467 14.58C10.6934 14.72 10.42 14.7933 10.14 14.7933ZM8.00004 12.3267C8.59337 12.3267 9.14671 12.7 9.52671 13.36L9.60004 13.4867C9.68004 13.6267 9.81337 13.7267 9.97337 13.7667C10.1334 13.8067 10.2934 13.7867 10.4267 13.7067L11.58 13.04C11.7534 12.94 11.8867 12.7733 11.94 12.5733C11.9934 12.3733 11.9667 12.1667 11.8667 11.9933C11.4867 11.34 11.44 10.6667 11.7334 10.1533C12.0267 9.63999 12.6334 9.34665 13.3934 9.34665C13.82 9.34665 14.16 9.00665 14.16 8.57999V7.40665C14.16 6.98665 13.82 6.63999 13.3934 6.63999C12.6334 6.63999 12.0267 6.34665 11.7334 5.83332C11.44 5.31999 11.4867 4.64665 11.8667 3.99332C11.9667 3.81999 11.9934 3.61332 11.94 3.41332C11.8867 3.21332 11.76 3.05332 11.5867 2.94665L10.4334 2.28665C10.1467 2.11332 9.76671 2.21332 9.59337 2.50665L9.52004 2.63332C9.14004 3.29332 8.58671 3.66665 7.99337 3.66665C7.40004 3.66665 6.84671 3.29332 6.46671 2.63332L6.39337 2.49999C6.22671 2.21999 5.85337 2.11999 5.56671 2.28665L4.41337 2.95332C4.24004 3.05332 4.10671 3.21999 4.05337 3.41999C4.00004 3.61999 4.02671 3.82665 4.12671 3.99999C4.50671 4.65332 4.55337 5.32665 4.26004 5.83999C3.96671 6.35332 3.36004 6.64665 2.60004 6.64665C2.17337 6.64665 1.83337 6.98665 1.83337 7.41332V8.58665C1.83337 9.00665 2.17337 9.35332 2.60004 9.35332C3.36004 9.35332 3.96671 9.64665 4.26004 10.16C4.55337 10.6733 4.50671 11.3467 4.12671 12C4.02671 12.1733 4.00004 12.38 4.05337 12.58C4.10671 12.78 4.23337 12.94 4.40671 13.0467L5.56004 13.7067C5.70004 13.7933 5.86671 13.8133 6.02004 13.7733C6.18004 13.7333 6.31337 13.6267 6.40004 13.4867L6.47337 13.36C6.85337 12.7067 7.40671 12.3267 8.00004 12.3267Z" fill="#292D32"/>
</svg>
