<svg width="14" height="14" viewBox="0 0 14 14" fill="none" xmlns="http://www.w3.org/2000/svg">
<path d="M12.25 3.79199C12.25 4.75849 11.4665 5.54199 10.5 5.54199C9.53347 5.54199 8.75 4.75849 8.75 3.79199C8.75 2.8255 9.53347 2.04199 10.5 2.04199C11.4665 2.04199 12.25 2.8255 12.25 3.79199Z" stroke="#55544E" stroke-width="1.2"/>
<path d="M5.25 7C5.25 7.96652 4.4665 8.75 3.5 8.75C2.5335 8.75 1.75 7.96652 1.75 7C1.75 6.03347 2.5335 5.25 3.5 5.25C4.4665 5.25 5.25 6.03347 5.25 7Z" stroke="#55544E" stroke-width="1.2"/>
<path d="M12.25 10.208C12.25 11.1745 11.4665 11.958 10.5 11.958C9.53347 11.958 8.75 11.1745 8.75 10.208C8.75 9.24148 9.53347 8.45801 10.5 8.45801C11.4665 8.45801 12.25 9.24148 12.25 10.208Z" stroke="#55544E" stroke-width="1.5"/>
<path d="M5.09155 6.27022L8.88321 4.52051M5.09155 7.72884L8.88321 9.47855" stroke="#55544E" stroke-width="1.5"/>
</svg>
