<svg width="14" height="14" viewBox="0 0 14 14" fill="none" xmlns="http://www.w3.org/2000/svg">
<path d="M12.25 3.48796C10.3075 3.29546 8.35333 3.19629 6.405 3.19629C5.25 3.19629 4.095 3.25462 2.94 3.37129L1.75 3.48796" stroke="#55544E" stroke-width="1.5" stroke-linecap="round" stroke-linejoin="round"/>
<path d="M4.95825 2.89949L5.08659 2.13533C5.17992 1.58116 5.24992 1.16699 6.23575 1.16699H7.76409C8.74992 1.16699 8.82575 1.60449 8.91325 2.14116L9.04159 2.89949" stroke="#55544E" stroke-width="1.5" stroke-linecap="round" stroke-linejoin="round"/>
<path d="M10.9958 5.33203L10.6167 11.2062C10.5525 12.122 10.5 12.8337 8.87248 12.8337H5.12748C3.49998 12.8337 3.44748 12.122 3.38332 11.2062L3.00415 5.33203" stroke="#55544E" stroke-width="1.5" stroke-linecap="round" stroke-linejoin="round"/>
<path d="M6.02588 9.625H7.96838" stroke="#55544E" stroke-width="1.5" stroke-linecap="round" stroke-linejoin="round"/>
<path d="M5.54175 7.29199H8.45841" stroke="#55544E" stroke-width="1.5" stroke-linecap="round" stroke-linejoin="round"/>
</svg>
