<svg width="20" height="21" viewBox="0 0 20 21" fill="none" xmlns="http://www.w3.org/2000/svg">
<path d="M10 18.8334C14.6024 18.8334 18.3334 15.1024 18.3334 10.5001C18.3334 5.89771 14.6024 2.16675 10 2.16675C5.39765 2.16675 1.66669 5.89771 1.66669 10.5001C1.66669 11.6492 1.89925 12.7439 2.31987 13.7398C2.55234 14.2902 2.66857 14.5654 2.68296 14.7734C2.69735 14.9814 2.63614 15.2102 2.5137 15.6677L1.66669 18.8334L4.83233 17.9864C5.28992 17.864 5.51872 17.8027 5.7267 17.8172C5.9347 17.8315 6.2099 17.9477 6.76031 18.1802C7.75623 18.6008 8.85094 18.8334 10 18.8334Z" stroke="#1A1A1A" stroke-width="1.5" stroke-linejoin="round"/>
<path d="M7.15677 10.8143L7.88255 9.91292C8.18845 9.533 8.56656 9.17933 8.59623 8.67347C8.60365 8.5457 8.51381 7.97206 8.33398 6.8248C8.26332 6.37393 7.84236 6.33325 7.47775 6.33325C7.0026 6.33325 6.76502 6.33325 6.5291 6.44101C6.23093 6.57721 5.9248 6.96018 5.85762 7.28103C5.80447 7.53489 5.84397 7.70981 5.92297 8.05966C6.2585 9.54558 7.04566 11.0131 8.26621 12.2337C9.48681 13.4543 10.9543 14.2414 12.4402 14.5769C12.7901 14.6559 12.965 14.6954 13.2189 14.6423C13.5397 14.5751 13.9226 14.269 14.0589 13.9708C14.1666 13.7348 14.1666 13.4973 14.1666 13.0222C14.1666 12.6575 14.126 12.2366 13.6751 12.1659C12.5278 11.9861 11.9542 11.8963 11.8264 11.9037C11.3206 11.9333 10.9669 12.3114 10.587 12.6173L9.68556 13.3431" stroke="#1A1A1A" stroke-width="1.5"/>
</svg>
