<svg width="60" height="66" viewBox="0 0 60 66" fill="none" xmlns="http://www.w3.org/2000/svg">
<g clip-path="url(#clip0_28_178)">
<path d="M13.541 16.7603L0.916664 43.0833L27.3992 30.4003" stroke="#D4A548" stroke-width="0.5" stroke-miterlimit="10" stroke-linecap="round" stroke-linejoin="round"/>
<path d="M22.9167 14.6667L21.0833 11.9167L22.9167 9.16666L21.0833 6.41666L22.9167 3.66666L21.0833 0.916656M28.4167 22L32.0833 20.1667L34.8333 22L37.5833 20.1667L40.3333 22L43.0833 20.1667M33.4125 15.851L35.2513 13.1047L38.4945 13.7463L40.3333 11M26.994 10.4133L27.8978 7.23432L31.1795 6.84566L32.0833 3.66666M27.3992 30.4003L17.2883 26.8143L13.541 16.7603L23.6537 20.3463L27.3992 30.4003Z" stroke="#D4A548" stroke-width="0.5" stroke-miterlimit="10" stroke-linecap="round" stroke-linejoin="round"/>
<path d="M28.4258 16.5L29.3517 15.5742L28.4258 14.6483L27.5 15.576L28.4258 16.5018M14.674 8.23167L15.5998 9.1575L14.674 10.0833L13.7482 9.1575L14.674 8.23167ZM36.6758 6.38184L37.6017 7.30767L36.6758 8.2335L35.75 7.30767L36.6758 6.38184ZM35.739 25.6667L36.6648 26.5925L35.739 27.5183L34.8132 26.5925L35.739 25.6667Z" stroke="#D4A548" stroke-width="0.5" stroke-linecap="round" stroke-linejoin="round"/>
</g>
<g clip-path="url(#clip1_28_178)">
<path d="M29.541 38.7603L16.9167 65.0833L43.3992 52.4003" stroke="#D4A548" stroke-width="0.5" stroke-miterlimit="10" stroke-linecap="round" stroke-linejoin="round"/>
<path d="M38.9167 36.6667L37.0833 33.9167L38.9167 31.1667L37.0833 28.4167L38.9167 25.6667L37.0833 22.9167M44.4167 44L48.0833 42.1667L50.8333 44L53.5833 42.1667L56.3333 44L59.0833 42.1667M49.4125 37.851L51.2513 35.1047L54.4945 35.7463L56.3333 33M42.994 32.4133L43.8978 29.2343L47.1795 28.8457L48.0833 25.6667M43.3992 52.4003L33.2883 48.8143L29.541 38.7603L39.6537 42.3463L43.3992 52.4003Z" stroke="#D4A548" stroke-width="0.5" stroke-miterlimit="10" stroke-linecap="round" stroke-linejoin="round"/>
<path d="M44.4258 38.5L45.3517 37.5742L44.4258 36.6483L43.5 37.576L44.4258 38.5018M30.674 30.2317L31.5998 31.1575L30.674 32.0833L29.7482 31.1575L30.674 30.2317ZM52.6758 28.3818L53.6017 29.3077L52.6758 30.2335L51.75 29.3077L52.6758 28.3818ZM51.739 47.6667L52.6648 48.5925L51.739 49.5183L50.8132 48.5925L51.739 47.6667Z" stroke="#D4A548" stroke-width="0.5" stroke-linecap="round" stroke-linejoin="round"/>
</g>
<defs>
<clipPath id="clip0_28_178">
<rect width="44" height="44" fill="white"/>
</clipPath>
<clipPath id="clip1_28_178">
<rect width="44" height="44" fill="white" transform="translate(16 22)"/>
</clipPath>
</defs>
</svg>
