<svg width="59" height="64" viewBox="0 0 59 64" fill="none" xmlns="http://www.w3.org/2000/svg">
<g clip-path="url(#clip0_77_673)">
<path d="M45.0512 16.2524L57.293 41.7778L31.613 29.4791" stroke="#D4A548" stroke-width="0.5" stroke-miterlimit="10" stroke-linecap="round" stroke-linejoin="round"/>
<path d="M35.9596 14.2222L37.7374 11.5556L35.9596 8.88891L37.7374 6.22225L35.9596 3.55558L37.7374 0.888916M30.6263 21.3334L27.0707 19.5556L24.4041 21.3334L21.7374 19.5556L19.0707 21.3334L16.4041 19.5556M25.7818 15.3707L23.9987 12.7076L20.8538 13.3298L19.0707 10.6667M32.0058 10.0978L31.1294 7.01514L27.9472 6.63825L27.0707 3.55558M31.613 29.4791L41.4174 26.0018L45.0512 16.2525L35.245 19.7298L31.613 29.4791Z" stroke="#D4A548" stroke-width="0.5" stroke-miterlimit="10" stroke-linecap="round" stroke-linejoin="round"/>
<path d="M30.6174 16L29.7196 15.1023L30.6174 14.2045L31.5152 15.104L30.6174 16.0018M43.9525 7.98225L43.0547 8.88003L43.9525 9.77781L44.8503 8.88003L43.9525 7.98225ZM22.6174 6.18848L21.7196 7.08625L22.6174 7.98403L23.5152 7.08625L22.6174 6.18848ZM23.5258 24.8889L22.6281 25.7867L23.5258 26.6845L24.4236 25.7867L23.5258 24.8889Z" stroke="#D4A548" stroke-width="0.5" stroke-linecap="round" stroke-linejoin="round"/>
</g>
<g clip-path="url(#clip1_77_673)">
<path d="M29.536 37.5857L41.7778 63.111L16.0978 50.8124" stroke="#D4A548" stroke-width="0.5" stroke-miterlimit="10" stroke-linecap="round" stroke-linejoin="round"/>
<path d="M20.4444 35.5555L22.2222 32.8888L20.4444 30.2222L22.2222 27.5555L20.4444 24.8888L22.2222 22.2222M15.1111 42.6666L11.5556 40.8888L8.88889 42.6666L6.22222 40.8888L3.55555 42.6666L0.888886 40.8888M10.2667 36.7039L8.48355 34.0408L5.33866 34.6631L3.55555 31.9999M16.4907 31.4311L15.6142 28.3484L12.432 27.9715L11.5556 24.8888M16.0978 50.8124L25.9022 47.3351L29.536 37.5857L19.7298 41.0631L16.0978 50.8124Z" stroke="#D4A548" stroke-width="0.5" stroke-miterlimit="10" stroke-linecap="round" stroke-linejoin="round"/>
<path d="M15.1022 37.3333L14.2044 36.4355L15.1022 35.5377L16 36.4373L15.1022 37.3351M28.4373 29.3155L27.5395 30.2133L28.4373 31.1111L29.3351 30.2133L28.4373 29.3155ZM7.10221 27.5217L6.20443 28.4195L7.10221 29.3173L7.99999 28.4195L7.10221 27.5217ZM8.01066 46.2222L7.11288 47.1199L8.01066 48.0177L8.90843 47.1199L8.01066 46.2222Z" stroke="#D4A548" stroke-width="0.5" stroke-linecap="round" stroke-linejoin="round"/>
</g>
<defs>
<clipPath id="clip0_77_673">
<rect width="42.6667" height="42.6667" fill="white" transform="matrix(-1 0 0 1 58.1818 0)"/>
</clipPath>
<clipPath id="clip1_77_673">
<rect width="42.6667" height="42.6667" fill="white" transform="matrix(-1 0 0 1 42.6667 21.3333)"/>
</clipPath>
</defs>
</svg>
