<svg width="81" height="19" viewBox="0 0 81 19" fill="none" xmlns="http://www.w3.org/2000/svg">
<g clip-path="url(#clip0_1839_2402)">
<path d="M56.7717 17.2148L57.2921 13.247H57.7691L57.3029 16.7758H58.7312L58.6743 17.2148H56.7717ZM59.5226 13.5614C59.5226 13.4819 59.5515 13.4132 59.6094 13.3554C59.669 13.2976 59.7395 13.2687 59.8208 13.2687C59.9039 13.2687 59.9734 13.2976 60.0295 13.3554C60.0873 13.4114 60.1162 13.4801 60.1162 13.5614C60.1162 13.6463 60.0873 13.7177 60.0295 13.7755C59.9734 13.8333 59.9039 13.8622 59.8208 13.8622C59.7395 13.8622 59.669 13.8333 59.6094 13.7755C59.5515 13.7159 59.5226 13.6445 59.5226 13.5614ZM59.1676 17.2148L59.4955 14.7349H59.9265L59.5985 17.2148H59.1676ZM62.0269 17.2148L62.2275 15.6917C62.2329 15.6537 62.2365 15.6158 62.2383 15.5778C62.242 15.5399 62.2438 15.5029 62.2438 15.4667C62.2438 15.3167 62.2049 15.2038 62.1272 15.1279C62.0513 15.0502 61.9384 15.0114 61.7884 15.0114C61.5933 15.0114 61.437 15.0909 61.3196 15.2499C61.2039 15.4071 61.1253 15.6438 61.0838 15.96L60.9157 17.2148H60.4902L60.8209 14.7349H61.2328L61.1759 15.1171C61.2934 14.9581 61.4216 14.8397 61.5608 14.762C61.6999 14.6843 61.8517 14.6455 62.0161 14.6455C62.1823 14.6455 62.3233 14.6871 62.4389 14.7702C62.5545 14.8515 62.6313 14.9653 62.6693 15.1117C62.7939 14.9563 62.9295 14.8397 63.0758 14.762C63.224 14.6843 63.3812 14.6455 63.5474 14.6455C63.7588 14.6455 63.9259 14.7105 64.0488 14.8406C64.1735 14.9707 64.2358 15.1478 64.2358 15.3719C64.2358 15.4243 64.2295 15.5074 64.2168 15.6212C64.215 15.6338 64.2141 15.6429 64.2141 15.6483L64.0082 17.2148H63.5745L63.7751 15.6944C63.7805 15.6564 63.7841 15.6185 63.7859 15.5805C63.7895 15.5426 63.7913 15.5047 63.7913 15.4667C63.7913 15.3167 63.7525 15.2038 63.6748 15.1279C63.5989 15.0502 63.486 15.0114 63.336 15.0114C63.1354 15.0114 62.9782 15.0873 62.8644 15.239C62.7524 15.3908 62.6747 15.6311 62.6313 15.96L62.466 17.2148H62.0269ZM65.2251 13.5614C65.2251 13.4819 65.254 13.4132 65.3118 13.3554C65.3714 13.2976 65.4419 13.2687 65.5232 13.2687C65.6063 13.2687 65.6759 13.2976 65.7319 13.3554C65.7897 13.4114 65.8186 13.4801 65.8186 13.5614C65.8186 13.6463 65.7897 13.7177 65.7319 13.7755C65.6759 13.8333 65.6063 13.8622 65.5232 13.8622C65.4419 13.8622 65.3714 13.8333 65.3118 13.7755C65.254 13.7159 65.2251 13.6445 65.2251 13.5614ZM64.87 17.2148L65.198 14.7349H65.6289L65.301 17.2148H64.87ZM66.2956 17.2148L66.5748 15.0954H66.114L66.1628 14.7349H66.6236L66.751 13.7348H67.19L67.0572 14.7349H67.602L67.5559 15.0954H67.0084L66.7293 17.2148H66.2956ZM70.1388 16.0467L68.1522 16.0494V16.0928C68.1522 16.3584 68.2199 16.568 68.3554 16.7216C68.491 16.8733 68.6762 16.9492 68.911 16.9492C69.0574 16.9492 69.192 16.914 69.3149 16.8435C69.4377 16.7731 69.557 16.6638 69.6726 16.5156L69.9708 16.7595C69.8262 16.9474 69.6672 17.0884 69.4938 17.1823C69.3203 17.2745 69.1315 17.3205 68.9273 17.3205C68.5569 17.3205 68.2624 17.2094 68.0438 16.9872C67.8269 16.7631 67.7185 16.4614 67.7185 16.0819C67.7185 15.6682 67.845 15.3258 68.098 15.0548C68.3509 14.7819 68.668 14.6455 69.0493 14.6455C69.3962 14.6455 69.6654 14.7512 69.8569 14.9626C70.0485 15.174 70.1442 15.4712 70.1442 15.8543C70.1442 15.9067 70.1433 15.9464 70.1415 15.9735C70.1415 16.0006 70.1406 16.025 70.1388 16.0467ZM69.7268 15.6944C69.7232 15.4703 69.6618 15.2978 69.5425 15.1767C69.4251 15.0557 69.2589 14.9951 69.0439 14.9951C68.8306 14.9951 68.6463 15.0584 68.491 15.1848C68.3374 15.3113 68.2371 15.4812 68.1901 15.6944H69.7268ZM71.7812 16.9194C72.0215 16.9194 72.2257 16.8191 72.3938 16.6186C72.5618 16.418 72.6458 16.1687 72.6458 15.8705C72.6458 15.6194 72.5799 15.4161 72.448 15.2607C72.3179 15.1053 72.1471 15.0276 71.9357 15.0276C71.6611 15.0276 71.437 15.1252 71.2636 15.3204C71.0901 15.5137 71.0034 15.7621 71.0034 16.0657C71.0034 16.3205 71.0748 16.5264 71.2175 16.6836C71.362 16.8408 71.55 16.9194 71.7812 16.9194ZM73.0307 13.0139H73.4616L72.906 17.2148H72.4751L72.5347 16.8435C72.4154 17.0043 72.2817 17.1236 72.1336 17.2013C71.9872 17.2772 71.8192 17.3151 71.6295 17.3151C71.3133 17.3151 71.0558 17.1995 70.857 16.9682C70.6583 16.7369 70.5589 16.4361 70.5589 16.0657C70.5589 15.6555 70.68 15.3167 70.9221 15.0493C71.1642 14.7801 71.4686 14.6455 71.8354 14.6455C72.0559 14.6455 72.2411 14.6943 72.391 14.7919C72.541 14.8894 72.6576 15.0367 72.7407 15.2336L73.0307 13.0139Z" fill="white"/>
<path d="M47.9567 18.8429C44.0112 17.6494 40.0657 16.6095 36.0736 15.8567C35.8218 15.8101 35.57 15.7535 35.3258 15.7144L34.5704 15.5885C34.0668 15.508 33.5721 15.4161 33.071 15.3368L31.5603 15.1316C31.3085 15.0976 31.0567 15.056 30.8049 15.0283L30.0496 14.9478C29.546 14.8987 29.0424 14.8294 28.5388 14.7853L27.0281 14.6595L26.6504 14.6267L26.2728 14.6053L25.5174 14.5638C25.0138 14.5348 24.5102 14.5033 24.0067 14.4983C23.5031 14.4933 22.9995 14.4631 22.4959 14.4555H20.9852C20.4816 14.4555 19.9781 14.4744 19.4745 14.4819C18.9709 14.4895 18.4673 14.5185 17.9638 14.5411C15.9444 14.6343 13.9301 14.8139 11.9209 15.0799C9.91161 15.346 7.91158 15.6972 5.92078 16.1337C3.9162 16.567 1.93913 17.1189 0 17.7867C0.43811 17.5135 0.897622 17.2755 1.35588 17.0376C1.81413 16.7996 2.28749 16.5894 2.76085 16.3779C3.70505 15.9549 4.67569 15.5898 5.6564 15.2449C7.6211 14.5688 9.62793 14.0221 11.6641 13.6082C13.7041 13.197 15.767 12.9086 17.8417 12.7446C18.3603 12.6993 18.879 12.6615 19.399 12.6426C19.9189 12.6238 20.4388 12.5885 20.96 12.5809L22.5211 12.5684C23.0423 12.5684 23.5623 12.591 24.0822 12.6024C24.6021 12.6137 25.1221 12.6477 25.642 12.6804L26.4213 12.7295L26.8103 12.7547L27.1993 12.7937L28.7516 12.9549C29.2678 13.0102 29.7827 13.0908 30.2976 13.1626L31.0693 13.2746C31.3211 13.3124 31.5817 13.364 31.8373 13.4081L33.3618 13.6951C33.8654 13.8009 34.3765 13.9167 34.8826 14.0312L35.638 14.2062C35.8898 14.2629 36.1416 14.3321 36.3933 14.4026C40.4039 15.4388 44.2834 16.9285 47.9567 18.8429Z" fill="white"/>
<path d="M11.2575 0.1875H13.4468C13.5308 0.187497 13.6114 0.220709 13.6711 0.279898C13.7308 0.339087 13.7646 0.419456 13.7653 0.503493V10.0248C13.7653 10.1093 13.7317 10.1903 13.672 10.2501C13.6123 10.3098 13.5312 10.3433 13.4468 10.3433H11.2575C11.2156 10.3433 11.1742 10.3351 11.1356 10.3191C11.0969 10.3031 11.0618 10.2796 11.0323 10.2501C11.0027 10.2205 10.9792 10.1854 10.9632 10.1467C10.9472 10.1081 10.939 10.0667 10.939 10.0248V0.503493C10.9396 0.419456 10.9735 0.339087 11.0331 0.279898C11.0928 0.220709 11.1734 0.187497 11.2575 0.1875ZM23.0008 10.3433H21.0054C20.9209 10.3433 20.8399 10.3098 20.7802 10.2501C20.7205 10.1903 20.6869 10.1093 20.6869 10.0248V9.9644C20.6871 9.90292 20.6695 9.8427 20.6363 9.791C20.603 9.7393 20.5555 9.69833 20.4994 9.67304C20.4434 9.64775 20.3812 9.63922 20.3204 9.64848C20.2597 9.65773 20.2029 9.68438 20.1569 9.72521C19.9591 9.91074 19.7377 10.0695 19.4985 10.1973C19.0401 10.4179 18.5352 10.5245 18.0268 10.5083C17.2504 10.5083 16.6419 10.2762 16.2013 9.81207C15.7607 9.34794 15.54 8.63455 15.5391 7.67188V3.30463C15.5391 3.26237 15.5475 3.22054 15.5638 3.18156C15.5802 3.14259 15.6041 3.10725 15.6342 3.07761C15.6643 3.04796 15.7 3.02461 15.7392 3.0089C15.7785 2.99319 15.8204 2.98545 15.8627 2.98612H18.0595C18.1439 2.98645 18.2247 3.02011 18.2844 3.07977C18.344 3.13943 18.3777 3.22026 18.378 3.30463V7.03234C18.378 7.49479 18.462 7.82253 18.6298 8.01557C18.7208 8.11447 18.8326 8.19205 18.9571 8.24275C19.0815 8.29346 19.2157 8.31605 19.3499 8.3089C19.5085 8.31249 19.6657 8.27922 19.8093 8.21172C19.9528 8.14422 20.0787 8.04432 20.177 7.91989C20.3919 7.66223 20.4993 7.1981 20.4993 6.52751V3.30463C20.4997 3.22026 20.5333 3.13943 20.593 3.07977C20.6526 3.02011 20.7335 2.98645 20.8178 2.98612H23.0008C23.0853 2.98612 23.1663 3.01967 23.2261 3.07941C23.2858 3.13914 23.3193 3.22015 23.3193 3.30463V10.0248C23.3193 10.1093 23.2858 10.1903 23.2261 10.2501C23.1663 10.3098 23.0853 10.3433 23.0008 10.3433ZM32.8797 7.3647H27.9245C27.8764 7.36456 27.8289 7.37532 27.7855 7.39618C27.7422 7.41703 27.7041 7.44744 27.6742 7.48512C27.6443 7.52279 27.6233 7.56676 27.6128 7.61372C27.6023 7.66067 27.6026 7.7094 27.6136 7.75623C27.6635 7.98349 27.7656 8.196 27.912 8.37688C28.0422 8.53202 28.2059 8.65558 28.3909 8.73823C28.5758 8.82088 28.7771 8.86047 28.9795 8.85402C29.2053 8.86048 29.4294 8.81463 29.6345 8.72007C29.8396 8.6255 30.02 8.48478 30.1617 8.3089C30.1945 8.27162 30.2357 8.24269 30.2818 8.22452C30.328 8.20635 30.3779 8.19945 30.4273 8.20441L32.5171 8.39703C32.5732 8.40197 32.6269 8.42167 32.6729 8.45412C32.7189 8.48658 32.7554 8.53063 32.7788 8.5818C32.8022 8.63297 32.8117 8.68942 32.8062 8.74542C32.8007 8.80142 32.7804 8.85496 32.7475 8.9006C32.4258 9.36999 31.999 9.75793 31.5012 10.0336C30.9002 10.3543 30.0387 10.5146 28.9166 10.5146C27.9422 10.5146 27.1755 10.3773 26.6165 10.1029C26.0387 9.80849 25.558 9.35395 25.2317 8.79359C24.8508 8.15503 24.6579 7.42191 24.6752 6.67858C24.6752 5.52959 25.0437 4.59923 25.7806 3.88752C26.5175 3.1758 27.5338 2.81994 28.8297 2.81994C29.8839 2.81994 30.7152 2.9794 31.3237 3.29833C31.9206 3.60386 32.4073 4.08795 32.7161 4.68316C33.0358 5.28829 33.1953 6.07597 33.1945 7.04619C33.1945 7.13001 33.1614 7.21046 33.1025 7.27008C33.0436 7.32971 32.9635 7.3637 32.8797 7.3647ZM29.9628 6.01386C30.0104 6.01378 30.0574 6.00307 30.1003 5.98252C30.1433 5.96196 30.1811 5.93207 30.211 5.89503C30.2409 5.85799 30.2622 5.81474 30.2733 5.76843C30.2843 5.72213 30.2849 5.67393 30.275 5.62737C30.2274 5.33495 30.0963 5.06255 29.8973 4.84305C29.7559 4.71669 29.5902 4.62071 29.4102 4.56104C29.2302 4.50138 29.0399 4.4793 28.8511 4.49618C28.6623 4.51305 28.4789 4.56853 28.3124 4.65916C28.1458 4.7498 27.9997 4.87366 27.883 5.02308C27.7544 5.20212 27.6652 5.40634 27.6211 5.62233C27.6104 5.66914 27.6103 5.71778 27.6209 5.76463C27.6315 5.81148 27.6525 5.85535 27.6823 5.89296C27.7122 5.93058 27.7502 5.96098 27.7934 5.98191C27.8367 6.00284 27.8841 6.01376 27.9321 6.01386H29.9628Z" fill="white"/>
<path d="M34.7227 0.504058C34.7227 0.419584 34.7562 0.338569 34.8159 0.278837C34.8757 0.219104 34.9567 0.185547 35.0412 0.185547H39.3845C40.3035 0.185547 41.0459 0.311441 41.6116 0.563228C42.1608 0.80001 42.643 1.16891 43.0153 1.6371C43.3917 2.11895 43.6651 2.67301 43.8185 3.26491C43.9884 3.90692 44.0731 4.56851 44.0703 5.23262C44.0703 6.31783 43.9469 7.15964 43.7001 7.75805C43.4718 8.32857 43.1207 8.84179 42.6716 9.26122C42.2734 9.64392 41.7869 9.92241 41.2553 10.072C40.6464 10.2454 40.0175 10.3385 39.3845 10.3489H35.0412C34.9567 10.3489 34.8757 10.3154 34.8159 10.2557C34.7562 10.1959 34.7227 10.1149 34.7227 10.0304V0.504058ZM37.8612 2.80414V7.71399C37.8612 7.79846 37.8947 7.87948 37.9545 7.93921C38.0142 7.99894 38.0952 8.0325 38.1797 8.0325H38.6291C39.2855 8.0325 39.7521 7.9599 40.0291 7.8147C40.3279 7.64353 40.558 7.37385 40.6799 7.05179C40.8377 6.68921 40.9162 6.10171 40.9154 5.28928C40.9154 4.2133 40.74 3.47641 40.3891 3.07858C40.0383 2.68076 39.4584 2.48395 38.6493 2.48814H38.186C38.1436 2.48731 38.1015 2.49493 38.0622 2.51056C38.0228 2.52619 37.9869 2.54952 37.9567 2.57918C37.9264 2.60884 37.9024 2.64423 37.886 2.68329C37.8696 2.72235 37.8612 2.76429 37.8612 2.80665V2.80414ZM52.9684 10.3414H50.968C50.9262 10.3414 50.8847 10.3332 50.8461 10.3171C50.8074 10.3011 50.7723 10.2777 50.7428 10.2481C50.7132 10.2185 50.6897 10.1834 50.6737 10.1448C50.6577 10.1061 50.6495 10.0647 50.6495 10.0229V9.96245C50.65 9.90097 50.6327 9.84067 50.5995 9.78887C50.5664 9.73706 50.519 9.696 50.463 9.67066C50.407 9.64532 50.3448 9.6368 50.284 9.64614C50.2233 9.65547 50.1665 9.68227 50.1207 9.72325C49.9226 9.9097 49.7008 10.0693 49.461 10.1979C49.0026 10.4184 48.4978 10.5251 47.9893 10.5088C47.2138 10.5088 46.6053 10.2768 46.1639 9.81264C45.7224 9.34851 45.5017 8.63511 45.5017 7.67244V3.30519C45.5018 3.26299 45.5104 3.22123 45.5267 3.18233C45.5431 3.14343 45.567 3.10816 45.5971 3.07855C45.6272 3.04894 45.6628 3.02558 45.702 3.00981C45.7411 2.99404 45.783 2.98618 45.8252 2.98668H48.0208C48.1053 2.98668 48.1863 3.02024 48.246 3.07997C48.3058 3.1397 48.3393 3.22072 48.3393 3.30519V7.0329C48.3393 7.49535 48.4232 7.8231 48.5911 8.01613C48.682 8.11549 48.794 8.19335 48.9187 8.24409C49.0435 8.29482 49.178 8.31716 49.3125 8.30947C49.4712 8.31306 49.6286 8.2798 49.7724 8.2123C49.9161 8.1448 50.0422 8.04491 50.1409 7.92045C50.3549 7.66279 50.4619 7.19866 50.4619 6.52807V3.30519C50.4622 3.2206 50.4961 3.13959 50.556 3.07989C50.6159 3.0202 50.6971 2.98668 50.7817 2.98668H52.9634C53.0479 2.98668 53.1289 3.02024 53.1886 3.07997C53.2483 3.1397 53.2819 3.22072 53.2819 3.30519V10.0254C53.2819 10.1099 53.2483 10.1909 53.1886 10.2506C53.1289 10.3104 53.0479 10.3439 52.9634 10.3439L52.9684 10.3414ZM60.7323 7.48738L62.7818 7.72154C62.8294 7.72663 62.8752 7.7424 62.9158 7.76769C62.9564 7.79297 62.9908 7.82711 63.0163 7.86756C63.0419 7.908 63.0579 7.95369 63.0633 8.00122C63.0687 8.04875 63.0633 8.09689 63.0475 8.14203C62.9074 8.53227 62.7013 8.89553 62.4382 9.2159C62.0908 9.63315 61.6476 9.96013 61.1465 10.1689C60.6228 10.3938 59.9568 10.5067 59.1485 10.5076C58.4917 10.5226 57.8358 10.4494 57.1985 10.2898C56.704 10.1585 56.2456 9.91704 55.8577 9.58351C55.489 9.26615 55.1891 8.87671 54.9764 8.43914C54.7637 7.99977 54.6579 7.4194 54.6579 6.69425C54.6579 5.93889 54.7872 5.30942 55.0457 4.80584C55.2406 4.42968 55.5035 4.0929 55.8212 3.81254C56.1173 3.53909 56.4579 3.31813 56.8283 3.15916C57.3772 2.93255 58.0814 2.81924 58.9408 2.81924C60.1418 2.81924 61.0575 3.0341 61.6878 3.46382C62.2272 3.83674 62.6421 4.36305 62.8788 4.97454C62.8964 5.01931 62.9036 5.06748 62.8999 5.11543C62.8962 5.16339 62.8817 5.20988 62.8575 5.25143C62.8332 5.29298 62.7999 5.32851 62.76 5.35534C62.7201 5.38217 62.6746 5.39961 62.627 5.40636L60.6202 5.6657C60.5501 5.67408 60.4792 5.65929 60.4183 5.62361C60.3574 5.58792 60.3098 5.53329 60.2829 5.46805C60.2026 5.2773 60.0721 5.11195 59.9052 4.98965C59.644 4.81898 59.3355 4.73525 59.0239 4.75045C58.8093 4.74362 58.596 4.78536 58.3998 4.87256C58.2036 4.95976 58.0296 5.09016 57.8909 5.25403C57.6022 5.58974 57.4578 6.09584 57.4578 6.7723C57.4578 7.37575 57.6013 7.83443 57.8884 8.14832C58.0256 8.30137 58.1946 8.42267 58.3836 8.50377C58.5725 8.58486 58.7768 8.62381 58.9824 8.61791C59.3157 8.62889 59.6432 8.5293 59.914 8.33464C60.1304 8.16326 60.2973 7.93729 60.3974 7.68C60.4252 7.61751 60.4722 7.56546 60.5314 7.5313C60.5907 7.49715 60.6592 7.48265 60.7273 7.4899L60.7323 7.48738ZM64.5381 0.185547H66.7827C66.8246 0.185547 66.866 0.193785 66.9046 0.209792C66.9433 0.225799 66.9784 0.24926 67.008 0.278837C67.0375 0.308413 67.061 0.343525 67.077 0.382169C67.093 0.420813 67.1013 0.46223 67.1013 0.504058V4.57042C67.1011 4.63491 67.1205 4.69794 67.1569 4.75116C67.1933 4.80438 67.245 4.84529 67.3052 4.86849C67.3654 4.89169 67.4312 4.89607 67.4939 4.88106C67.5566 4.86606 67.6133 4.83236 67.6564 4.78444L69.1067 3.09747C69.1366 3.06261 69.1737 3.03466 69.2154 3.01553C69.2572 2.9964 69.3025 2.98656 69.3485 2.98668H71.8852C71.9486 2.98662 72.0105 3.00545 72.0631 3.04076C72.1156 3.07607 72.1565 3.12626 72.1804 3.18491C72.2043 3.24356 72.2102 3.30801 72.1973 3.37003C72.1844 3.43204 72.1534 3.4888 72.108 3.53306L70.207 5.38999C70.156 5.43961 70.1231 5.50488 70.1135 5.57538C70.104 5.64589 70.1183 5.71757 70.1542 5.779L72.5462 9.86551C72.5743 9.91394 72.5891 9.96892 72.5892 10.0249C72.5893 10.0809 72.5746 10.1359 72.5466 10.1844C72.5187 10.233 72.4784 10.2732 72.4299 10.3012C72.3815 10.3292 72.3264 10.3439 72.2704 10.3439H69.8445C69.7855 10.3441 69.7276 10.3278 69.6773 10.2969C69.6271 10.266 69.5864 10.2217 69.56 10.1689L68.3602 7.78323C68.3375 7.73914 68.3049 7.70094 68.2648 7.6717C68.2248 7.64245 68.1785 7.62295 68.1296 7.61476C68.0807 7.60657 68.0305 7.60991 67.9831 7.62451C67.9357 7.63912 67.8924 7.66458 67.8566 7.69888L67.2007 8.33842C67.1703 8.3672 67.1459 8.4017 67.1288 8.43994C67.1117 8.47817 67.1024 8.5194 67.1013 8.56125V10.0254C67.1013 10.1099 67.0677 10.1909 67.008 10.2506C66.9482 10.3104 66.8672 10.3439 66.7827 10.3439H64.533C64.4485 10.3439 64.3675 10.3104 64.3078 10.2506C64.2481 10.1909 64.2145 10.1099 64.2145 10.0254V0.504058C64.2152 0.420021 64.249 0.339651 64.3087 0.280463C64.3683 0.221274 64.449 0.188062 64.533 0.188065L64.5381 0.185547ZM73.5709 8.26163L75.7426 8.05768C75.8089 8.05233 75.8752 8.0676 75.9324 8.10141C75.9897 8.13522 76.035 8.1859 76.0624 8.24652C76.1487 8.44695 76.2869 8.62077 76.4627 8.75009C76.7117 8.90382 77.0014 8.97845 77.2936 8.96411C77.6721 8.96411 77.9659 8.88354 78.1749 8.7224C78.2494 8.67344 78.3106 8.60675 78.353 8.52831C78.3954 8.44987 78.4177 8.36213 78.4178 8.27296C78.4158 8.17242 78.3845 8.07466 78.3277 7.99168C78.2709 7.90871 78.1911 7.84413 78.0981 7.80589C77.9453 7.72784 77.5412 7.6309 76.8857 7.51508C75.9063 7.34722 75.226 7.18943 74.845 7.04172C74.4599 6.89315 74.1256 6.63708 73.8819 6.30398C73.623 5.96427 73.4851 5.54769 73.4904 5.12058C73.4801 4.66635 73.6298 4.22297 73.9134 3.86794C74.2192 3.50157 74.6225 3.22922 75.0766 3.08236C75.571 2.91031 76.234 2.82386 77.0657 2.82302C77.9436 2.82302 78.5912 2.89016 79.0083 3.02445C79.403 3.14482 79.7622 3.36008 80.0545 3.6514C80.2608 3.86441 80.4328 4.1082 80.5643 4.37403C80.5879 4.42028 80.5999 4.47157 80.5992 4.52348C80.5985 4.57539 80.5852 4.62635 80.5604 4.67196C80.5356 4.71757 80.5001 4.75646 80.4569 4.78527C80.4137 4.81408 80.3642 4.83194 80.3125 4.83732L78.3171 5.03371C78.2545 5.04093 78.1912 5.02888 78.1357 4.99919C78.0801 4.9695 78.0349 4.92357 78.0062 4.86753C77.9452 4.73369 77.8501 4.61821 77.7305 4.53266C77.4909 4.38008 77.2111 4.30289 76.9273 4.31108C76.6087 4.31108 76.3758 4.36773 76.2311 4.48104C76.1641 4.52691 76.1091 4.58831 76.071 4.65999C76.0329 4.73167 76.0126 4.81152 76.012 4.89271C76.0121 4.9806 76.0385 5.06646 76.0879 5.13917C76.1373 5.21188 76.2073 5.26812 76.289 5.30061C76.4745 5.39209 76.8765 5.47602 77.495 5.55239C78.4334 5.65814 79.1308 5.80586 79.5874 5.99554C80.0081 6.15472 80.3728 6.43402 80.6361 6.79874C80.875 7.13654 81.0023 7.54067 80.9999 7.95445C80.9972 8.39533 80.866 8.82584 80.6222 9.19324C80.3246 9.62808 79.9018 9.9622 79.4099 10.1513C78.8568 10.3896 78.1052 10.5084 77.1551 10.5076C75.8123 10.5076 74.855 10.3162 74.2835 9.93349C73.8326 9.63628 73.4892 9.20198 73.304 8.6947C73.2871 8.64925 73.2807 8.60056 73.2854 8.55228C73.29 8.50401 73.3054 8.45741 73.3306 8.41597C73.3558 8.37454 73.3901 8.33936 73.4308 8.31306C73.4716 8.28677 73.5178 8.27004 73.5659 8.26414L73.5709 8.26163Z" fill="white"/>
<path d="M8.53307 7.60272C7.77961 8.36137 6.78951 8.83976 5.7269 8.9586C4.64044 9.0933 3.30345 9.00266 2.46878 8.21079C1.59507 7.38366 1.6064 6.38659 2.14019 5.37566C2.30511 5.0647 2.53676 4.79403 2.65132 4.45664C2.77722 4.07896 2.65132 3.70883 2.51787 3.345C2.44474 3.1591 2.39033 2.96636 2.35547 2.76966C2.30707 2.43764 2.34613 2.09874 2.46878 1.78643C2.65175 1.33059 2.99197 0.955388 3.42779 0.728821C3.8636 0.502253 4.36616 0.439315 4.84439 0.551414C6.05549 0.846006 6.78441 2.2044 6.11466 3.30597C5.90064 3.65847 5.6841 4.09532 5.87546 4.46167C6.10459 4.89978 6.71265 4.91363 7.1344 4.85446C7.57882 4.792 7.99581 4.60273 8.33542 4.30934C8.45239 4.20716 8.55526 4.08989 8.64134 3.96062C8.83672 3.66533 8.96918 3.33298 9.03048 2.98426C9.09177 2.63554 9.08059 2.27793 8.99762 1.93373L8.99007 1.89848C8.98126 1.86323 8.97118 1.82798 8.96111 1.79399C8.8297 1.38882 8.59393 1.0254 8.27751 0.740255C7.7454 0.246752 6.98081 0 5.98373 0H0.503575C0.370018 0 0.241932 0.0530551 0.147494 0.147494C0.0530551 0.241932 0 0.370018 0 0.503575L0 9.83985C0 9.97341 0.0530551 10.1015 0.147494 10.1959C0.241932 10.2904 0.370018 10.3434 0.503575 10.3434H5.51792C5.99727 10.3196 6.47505 10.2708 6.94933 10.1974C7.49067 10.1269 7.89521 10.014 8.16295 9.85873C8.5891 9.619 8.9437 9.27006 9.19024 8.84781C9.44392 8.40837 9.5744 7.90865 9.56792 7.40129C9.57324 7.03861 9.5087 6.67829 9.37782 6.34001C9.17587 6.80905 8.88954 7.23704 8.53307 7.60272Z" fill="white"/>
<path d="M2.46885 1.78906H1.22628C1.22628 1.78906 0.946793 3.09584 2.51795 3.34511C2.44481 3.15921 2.3904 2.96648 2.35554 2.76977C2.30759 2.43858 2.34664 2.1006 2.46885 1.78906Z" fill="url(#paint0_linear_1839_2402)"/>
</g>
<defs>
<linearGradient id="paint0_linear_1839_2402" x1="1.86204" y1="3.47604" x2="1.86204" y2="1.73871" gradientUnits="userSpaceOnUse">
<stop stop-color="#F26522"/>
<stop offset="0.29" stop-color="#F26923"/>
<stop offset="0.56" stop-color="#F47428"/>
<stop offset="0.82" stop-color="#F6872F"/>
<stop offset="1" stop-color="#F89936"/>
</linearGradient>
<clipPath id="clip0_1839_2402">
<rect width="81" height="18.8425" fill="white"/>
</clipPath>
</defs>
</svg>
